<svg width="597" height="602" viewBox="0 0 597 602" fill="none" xmlns="http://www.w3.org/2000/svg">
<g filter="url(#filter0_d)">
<rect x="363.563" y="3.00018" width="241.405" height="319" rx="11.4955" transform="rotate(15 363.563 3.00018)" fill="#FA885E"/>
<rect x="364.173" y="4.05611" width="239.681" height="317.275" rx="10.6333" transform="rotate(15 364.173 4.05611)" stroke="white" stroke-width="1.72432"/>
</g>
<path d="M480.807 35.3078L585.46 63.3495C591.132 64.8695 594.499 70.7001 592.979 76.3726L516.366 362.295C514.846 367.968 509.015 371.334 503.343 369.814L398.69 341.772L480.807 35.3078Z" fill="#5ABE93" stroke="white" stroke-width="1.72432"/>
<path d="M484.16 355.997L485.792 356.435L486.61 353.381L489.109 354.05L489.49 352.629L486.991 351.96L487.458 350.216L490.612 351.061L490.996 349.629L486.21 348.347L484.16 355.997ZM492.091 349.542L489.946 357.548L491.489 357.961L493.635 349.955L492.091 349.542ZM495.828 353.566L494.296 353.155L492.906 358.341L494.439 358.751L495.828 353.566ZM494.611 351.181C494.477 351.68 494.811 352.21 495.333 352.35C495.866 352.493 496.386 352.192 496.52 351.692C496.66 351.171 496.339 350.68 495.818 350.54C495.296 350.4 494.747 350.67 494.611 351.181ZM498.112 356.974C498.314 356.219 498.992 355.866 499.647 356.041C500.302 356.217 500.715 356.851 500.51 357.617C500.308 358.372 499.647 358.707 498.981 358.528C498.359 358.362 497.903 357.752 498.112 356.974ZM497.245 353.946L495.174 361.674L496.707 362.084L497.558 358.909C497.685 359.455 498.224 359.885 498.879 360.06C500.212 360.417 501.672 359.678 502.118 358.012C502.558 356.369 501.661 355.01 500.328 354.653C499.673 354.477 498.988 354.591 498.605 355L498.777 354.356L497.245 353.946ZM505.457 356.146L503.925 355.735L502.535 360.921L504.068 361.331L505.457 356.146ZM504.24 353.761C504.106 354.261 504.44 354.79 504.962 354.93C505.495 355.073 506.016 354.772 506.149 354.273C506.289 353.751 505.968 353.26 505.447 353.12C504.925 352.98 504.376 353.25 504.24 353.761ZM505.873 359.018C505.436 360.651 506.488 362.099 507.964 362.495C508.897 362.744 509.837 362.568 510.516 361.988L509.499 360.764C509.196 361.051 508.76 361.125 508.36 361.018C507.705 360.842 507.206 360.173 507.405 359.429C507.605 358.685 508.363 358.388 509.018 358.564C509.417 358.671 509.758 358.953 509.877 359.353L511.373 358.79C511.064 357.946 510.346 357.337 509.413 357.087C507.937 356.691 506.313 357.375 505.873 359.018Z" fill="#FEFFF6"/>
<path d="M471.705 237.256C472.053 235.957 471.388 234.886 470.011 234.517L466.946 233.696L464.896 241.346L468.183 242.227C469.704 242.635 470.914 241.805 471.254 240.539C471.423 239.906 471.216 238.946 470.277 238.409C471.157 238.323 471.571 237.756 471.705 237.256ZM467.769 237.154L468.195 235.566L469.46 235.905C469.938 236.033 470.096 236.42 469.968 236.898C469.846 237.353 469.479 237.612 469.046 237.496L467.769 237.154ZM468.941 238.908C469.519 239.062 469.669 239.614 469.553 240.047C469.431 240.503 469.022 240.917 468.478 240.771L466.912 240.351L467.409 238.497L468.941 238.908ZM475.774 241.643C475.563 242.431 475.036 242.576 474.559 242.448C474.204 242.353 473.691 242.001 473.914 241.168L474.655 238.403L473.111 237.99L472.281 241.088C471.886 242.565 472.58 243.524 473.746 243.837C474.246 243.971 474.893 243.823 475.31 243.375L475.12 244.086L476.663 244.499L478.053 239.314L476.509 238.9L475.774 241.643ZM480.117 243.485C480.486 242.108 481.07 241.527 481.958 241.765C482.214 241.833 482.463 241.924 482.705 242.131L483.354 240.818C483.132 240.627 482.883 240.489 482.517 240.391C481.984 240.248 481.21 240.469 480.685 241.364L481.021 240.109L479.478 239.696L478.088 244.881L479.632 245.295L480.117 243.485ZM487.194 244.524C486.988 245.29 486.233 245.623 485.6 245.454C484.933 245.275 484.49 244.621 484.695 243.855C484.892 243.122 485.6 242.788 486.266 242.967C486.91 243.139 487.399 243.758 487.194 244.524ZM482.28 247.052C482.465 248.137 483.258 249.04 484.402 249.346C486.234 249.837 487.622 249.054 488.22 246.823L489.416 242.359L487.917 241.957L487.745 242.601C487.603 242.063 487.036 241.602 486.392 241.43C485.06 241.073 483.523 241.791 483.076 243.457C482.636 245.1 483.611 246.48 484.943 246.837C485.599 247.013 486.317 246.908 486.7 246.499C486.482 247.535 485.962 248.276 484.774 247.958C484.252 247.818 483.734 247.31 483.687 246.774L482.28 247.052ZM493.553 247.192C493.205 247.468 492.722 247.493 492.289 247.377C491.734 247.228 491.172 246.792 491.244 246.169L495.042 247.187C495.089 247.056 495.156 246.848 495.192 246.715C495.629 245.083 494.747 243.668 493.27 243.272C491.793 242.877 490.281 243.59 489.841 245.234C489.403 246.866 490.344 248.284 491.821 248.68C492.709 248.918 493.728 248.893 494.469 248.259L493.553 247.192ZM491.525 245.209C491.826 244.575 492.496 244.517 492.918 244.63C493.362 244.749 493.849 245.153 493.768 245.81L491.525 245.209ZM497.586 248.166C497.955 246.789 498.539 246.208 499.427 246.446C499.683 246.514 499.932 246.605 500.174 246.812L500.823 245.499C500.601 245.308 500.352 245.17 499.986 245.072C499.453 244.929 498.679 245.15 498.154 246.045L498.49 244.79L496.947 244.377L495.557 249.562L497.101 249.976L497.586 248.166ZM502.754 249.396C503.116 249.6 503.205 249.755 503.146 249.977C503.074 250.243 502.744 250.321 502.397 250.24C501.964 250.124 501.722 249.738 501.791 249.435L500.348 249.049C500.038 250.203 500.99 251.137 502.034 251.416C503.122 251.708 504.417 251.496 504.711 250.396C504.803 250.052 504.865 249.2 503.706 248.508L502.891 248.04C502.601 247.879 502.506 247.699 502.54 247.529C502.591 247.293 502.844 247.194 503.188 247.287C503.443 247.355 503.748 247.508 503.654 247.9L505.109 248.289C505.451 247.012 504.46 246.271 503.438 245.997C502.35 245.705 501.227 246.166 501.022 246.932C500.894 247.41 500.668 248.206 502.124 249.037L502.754 249.396Z" fill="#FEFFF6"/>
<path d="M352.938 208.943C352.569 210.32 353.426 211.609 355.08 212.052C356.446 212.418 357.997 212.048 358.435 210.547C358.662 209.834 358.667 208.705 356.955 207.675L356.122 207.143C355.424 206.729 355.455 206.345 355.509 206.145C355.631 205.69 356.136 205.492 356.702 205.644C357.357 205.819 357.598 206.253 357.459 206.775L359.08 207.209C359.472 205.743 358.597 204.569 357.12 204.173C355.655 203.78 354.242 204.389 353.876 205.755C353.688 206.455 353.718 207.498 355.263 208.483L356.116 208.986C356.823 209.413 356.909 209.757 356.806 210.099C356.661 210.595 356.133 210.787 355.467 210.609C354.723 210.409 354.473 209.878 354.57 209.381L352.938 208.943ZM368.008 209.827L366.364 209.387L364.616 212.227L364.532 208.896L363.211 208.542L361.473 211.385L361.379 208.051L359.735 207.611L360.223 213.299L361.511 213.644L363.371 210.608L363.509 214.18L364.797 214.525L368.008 209.827ZM371.461 214.478C371.113 214.754 370.63 214.779 370.197 214.663C369.642 214.514 369.081 214.078 369.153 213.455L372.95 214.472C372.997 214.342 373.065 214.134 373.1 214.001C373.538 212.368 372.655 210.954 371.178 210.558C369.702 210.162 368.189 210.876 367.749 212.519C367.312 214.151 368.253 215.57 369.729 215.966C370.618 216.204 371.636 216.179 372.377 215.544L371.461 214.478ZM369.434 212.495C369.734 211.861 370.404 211.803 370.826 211.916C371.271 212.035 371.757 212.439 371.677 213.096L369.434 212.495ZM377.566 216.114C377.218 216.389 376.735 216.415 376.302 216.299C375.747 216.15 375.186 215.714 375.257 215.09L379.055 216.108C379.102 215.978 379.169 215.77 379.205 215.636C379.642 214.004 378.76 212.59 377.283 212.194C375.806 211.798 374.294 212.512 373.854 214.155C373.417 215.787 374.357 217.206 375.834 217.601C376.723 217.839 377.741 217.815 378.482 217.18L377.566 216.114ZM375.539 214.13C375.839 213.497 376.509 213.438 376.931 213.551C377.376 213.67 377.862 214.075 377.782 214.731L375.539 214.13ZM382.937 213.828L383.47 211.84L381.938 211.43L381.405 213.417L380.461 213.164L380.134 214.386L381.078 214.639L380.016 218.603L381.548 219.013L382.61 215.049L383.698 215.341L384.026 214.119L382.937 213.828ZM386.127 218.146C386.489 218.35 386.578 218.505 386.519 218.727C386.448 218.993 386.117 219.071 385.77 218.99C385.337 218.874 385.095 218.488 385.164 218.185L383.721 217.799C383.412 218.953 384.363 219.887 385.407 220.166C386.495 220.458 387.79 220.246 388.085 219.146C388.177 218.802 388.239 217.95 387.079 217.258L386.264 216.79C385.974 216.629 385.88 216.449 385.913 216.279C385.965 216.043 386.217 215.944 386.561 216.037C386.817 216.105 387.121 216.258 387.028 216.65L388.483 217.039C388.825 215.762 387.833 215.021 386.812 214.747C385.724 214.455 384.6 214.916 384.395 215.682C384.267 216.16 384.042 216.956 385.497 217.787L386.127 218.146Z" fill="#FEFFF6"/>
<path d="M406.662 169.406C406.198 169.273 405.786 168.962 405.533 168.507L373.31 110.25C372.806 109.339 373.136 108.191 374.047 107.687C374.958 107.183 376.106 107.514 376.61 108.424L408.834 166.68C409.338 167.591 409.007 168.74 408.097 169.243C407.641 169.494 407.126 169.54 406.662 169.406Z" fill="#D99E82"/>
<path d="M390.469 122.221C388.885 127.727 383.137 130.906 377.632 129.322C372.126 127.738 368.947 121.99 370.531 116.485C372.115 110.979 377.862 107.8 383.368 109.384C388.874 110.968 392.053 116.715 390.469 122.221Z" fill="#FCB1E3"/>
<path d="M397.291 138.444C400.098 133.449 398.325 127.125 393.331 124.318C388.336 121.511 382.012 123.284 379.205 128.279C376.398 133.273 378.172 139.597 383.166 142.404C388.16 145.211 394.484 143.438 397.291 138.444Z" fill="#FFD983"/>
<path d="M405.963 150.231C404.379 155.736 398.63 158.917 393.124 157.332C387.618 155.748 384.44 150 386.024 144.494C387.608 138.988 393.355 135.809 398.861 137.393C404.367 138.977 407.547 144.726 405.963 150.231Z" fill="#A6D388"/>
<path d="M406.662 169.406C406.198 169.273 405.785 168.962 405.533 168.507L397.624 154.21C397.119 153.299 397.449 152.15 398.362 151.647C399.274 151.144 400.419 151.473 400.925 152.384L408.833 166.682C409.337 167.592 409.006 168.741 408.096 169.245C407.64 169.494 407.125 169.54 406.662 169.406Z" fill="#D99E82"/>
<path d="M505.619 169.426C491.493 165.744 480.132 162.419 477.517 172.446C474.904 182.469 485.76 187.735 499.885 191.417C514.011 195.1 526.055 195.805 528.668 185.782C531.282 175.757 519.744 173.109 505.619 169.426Z" fill="#D99E82"/>
<path d="M530.247 176.66C530.247 176.66 518.244 171.947 505.823 168.641C493.369 165.462 480.594 163.715 480.594 163.715C476.824 173.154 485.951 179.827 501.828 183.967C517.705 188.106 528.928 186.738 530.247 176.66Z" fill="#662113"/>
<path d="M530.383 172.53L482.112 160.985C480.454 160.552 478.19 163.55 479.72 164.888C491.782 172.392 501.256 179.273 501.256 179.273C502.497 180.453 502.987 180.584 504.647 180.162C504.647 180.162 520.737 178.13 530.735 178.121C532.153 178.12 532.04 172.962 530.383 172.53Z" fill="#FFCC4D"/>
<path d="M531.615 172.986C529.439 169.6 529.238 171.048 527.205 169.856C526.433 169.404 522.478 160.138 508.883 156.594L508.853 156.586C495.258 153.042 487.283 159.197 486.389 159.215C484.032 159.262 484.564 157.901 481.012 159.793C479.382 160.662 478.862 161.2 480.167 161.875C482.133 162.891 481.613 164.107 482.996 164.937C484.669 165.941 485.667 165.163 488.484 166.323C490.888 167.312 490.208 170.586 492.722 171.241C495.236 171.897 495.551 170.691 498.064 171.346C500.576 172.001 501.219 175.624 503.734 176.279C506.248 176.935 508.576 174.087 511.09 174.742C513.605 175.398 513.29 176.604 515.803 177.259C518.317 177.914 519.323 174.725 521.903 175.035C524.927 175.401 525.42 176.566 527.37 176.506C528.981 176.456 529.121 175.143 531.333 175.215C532.804 175.265 532.615 174.541 531.615 172.986Z" fill="#77B255"/>
<path d="M531.382 169.879C530.209 174.377 518.805 173.673 505.421 170.183C492.037 166.694 481.741 161.741 482.914 157.243C485.037 149.099 486.493 149.479 509.271 155.417C532.049 161.355 533.505 161.737 531.382 169.879Z" fill="#DD2E44"/>
<path d="M513.434 139.449C499.308 135.767 486.133 139.4 483.519 149.426C481.112 158.659 492.464 162.021 506.589 165.703C520.715 169.386 532.263 171.994 534.67 162.762C537.284 152.735 527.56 143.132 513.434 139.449Z" fill="#D99E82"/>
<path d="M501.311 141.393C500.685 140.717 499.632 140.677 498.957 141.303C498.282 141.929 498.24 142.983 498.866 143.657C499.491 144.334 501.3 145.188 501.977 144.563C502.652 143.937 501.936 142.069 501.311 141.393ZM516.39 143.659C515.472 143.712 513.66 144.566 513.715 145.485C513.77 146.404 515.667 147.038 516.586 146.984C517.504 146.931 518.205 146.141 518.15 145.222C518.096 144.305 517.306 143.603 516.39 143.659ZM530.069 158.55C529.537 157.8 527.592 158.266 526.84 158.798C526.089 159.332 525.913 160.371 526.445 161.121C526.977 161.872 528.018 162.048 528.768 161.516C529.521 160.983 530.603 159.301 530.069 158.55ZM526.543 149.582C525.917 148.907 524.864 148.867 524.187 149.492C523.512 150.118 523.472 151.172 524.098 151.847C524.723 152.523 526.532 153.378 527.207 152.752C527.884 152.125 527.169 150.257 526.543 149.582ZM501.182 154.238C500.556 153.563 499.502 153.524 498.826 154.149C498.151 154.773 498.111 155.828 498.737 156.502C499.362 157.179 501.171 158.035 501.846 157.408C502.523 156.782 501.807 154.913 501.182 154.238ZM507.662 148.188C506.965 148.789 506.045 150.566 506.647 151.264C507.247 151.961 509.141 151.312 509.838 150.711C510.535 150.111 510.612 149.058 510.011 148.361C509.412 147.664 508.358 147.587 507.662 148.188ZM517.763 158.561C517.137 157.886 516.083 157.847 515.407 158.472C514.732 159.096 514.691 160.153 515.318 160.825C515.943 161.501 517.752 162.358 518.427 161.73C519.104 161.105 518.388 159.236 517.763 158.561ZM490.897 145.3C490.13 145.81 488.994 147.457 489.504 148.224C490.011 148.99 491.971 148.587 492.738 148.077C493.506 147.569 493.714 146.535 493.206 145.767C492.7 145 491.664 144.791 490.897 145.3Z" fill="#FFE8B6"/>
<g filter="url(#filter1_d)">
<rect x="0.728516" y="82.9097" width="241.405" height="319" rx="11.4955" transform="rotate(-20 0.728516 82.9097)" fill="#FA885E"/>
<rect x="1.83356" y="83.425" width="239.681" height="317.275" rx="10.6333" transform="rotate(-20 1.83356 83.425)" stroke="white" stroke-width="1.72432"/>
</g>
<path d="M115.3 42.1266L217.111 5.07041C222.629 3.06186 228.731 5.9072 230.739 11.4257L331.98 289.583C333.989 295.101 331.144 301.203 325.625 303.212L223.814 340.268L115.3 42.1266Z" fill="#5ABE93" stroke="white" stroke-width="1.72432"/>
<path d="M301.986 302.896L303.574 302.319L302.493 299.348L304.924 298.463L304.42 297.081L301.99 297.965L301.373 296.269L304.44 295.153L303.933 293.759L299.277 295.454L301.986 302.896ZM304.781 293.059L307.615 300.848L309.117 300.301L306.282 292.513L304.781 293.059ZM310.15 294.212L308.659 294.755L310.495 299.8L311.986 299.257L310.15 294.212ZM307.784 292.957C307.961 293.443 308.539 293.685 309.047 293.501C309.565 293.312 309.819 292.767 309.642 292.281C309.458 291.773 308.913 291.555 308.406 291.74C307.898 291.925 307.604 292.46 307.784 292.957ZM313.975 295.695C313.708 294.96 314.06 294.281 314.698 294.049C315.335 293.817 316.037 294.1 316.309 294.845C316.576 295.58 316.227 296.233 315.579 296.469C314.974 296.689 314.251 296.451 313.975 295.695ZM311.528 293.711L314.265 301.229L315.756 300.686L314.631 297.597C315.049 297.971 315.737 298.014 316.374 297.782C317.671 297.31 318.442 295.867 317.852 294.247C317.271 292.648 315.756 292.049 314.46 292.521C313.822 292.753 313.327 293.24 313.247 293.794L313.019 293.168L311.528 293.711ZM319.517 290.803L318.027 291.345L319.863 296.39L321.353 295.847L319.517 290.803ZM317.152 289.547C317.329 290.033 317.906 290.276 318.414 290.091C318.933 289.902 319.187 289.357 319.01 288.871C318.825 288.363 318.281 288.146 317.773 288.33C317.266 288.515 316.971 289.05 317.152 289.547ZM321.506 292.917C322.084 294.505 323.776 295.088 325.213 294.565C326.12 294.235 326.789 293.551 327.012 292.687L325.477 292.267C325.394 292.676 325.079 292.987 324.69 293.128C324.052 293.36 323.26 293.098 322.996 292.375C322.733 291.651 323.184 290.973 323.821 290.741C324.21 290.6 324.651 290.635 324.978 290.895L325.88 289.576C325.142 289.061 324.205 288.974 323.298 289.304C321.861 289.827 320.924 291.318 321.506 292.917Z" fill="#FEFFF6"/>
<path d="M224.425 221.262C224.86 221.214 225.378 221.123 225.583 221.048C227.365 220.4 227.604 219.004 227.108 217.643L224.388 210.168L222.8 210.746L225.52 218.221C225.725 218.783 225.656 219.334 225.04 219.558C224.986 219.577 224.388 219.783 224.047 219.785L224.425 221.262ZM232.28 215.724L233.771 215.181L231.935 210.137L230.444 210.679L230.648 211.241C230.037 210.84 229.27 210.984 228.935 211.106C227.65 211.574 226.734 213.057 227.32 214.667C227.906 216.276 229.561 216.824 230.846 216.356C231.224 216.218 231.931 215.741 232.072 215.151L232.28 215.724ZM228.875 214.101C228.612 213.377 229.066 212.673 229.703 212.441C230.319 212.217 231.089 212.451 231.36 213.196C231.635 213.952 231.191 214.615 230.576 214.84C229.938 215.072 229.139 214.824 228.875 214.101ZM235.768 211.616C235.5 210.882 235.853 210.203 236.49 209.971C237.127 209.739 237.83 210.022 238.101 210.767C238.368 211.502 238.019 212.155 237.371 212.391C236.766 212.611 236.043 212.373 235.768 211.616ZM233.321 209.632L236.057 217.151L237.548 216.608L236.423 213.519C236.841 213.893 237.529 213.936 238.167 213.704C239.463 213.232 240.234 211.789 239.645 210.169C239.063 208.57 237.548 207.971 236.252 208.443C235.614 208.675 235.119 209.161 235.039 209.716L234.811 209.09L233.321 209.632ZM245.392 210.951L246.883 210.409L245.047 205.364L243.556 205.907L243.761 206.468C243.15 206.067 242.383 206.212 242.048 206.333C240.762 206.801 239.847 208.285 240.432 209.894C241.018 211.504 242.673 212.051 243.959 211.583C244.337 211.446 245.044 210.968 245.184 210.379L245.392 210.951ZM241.988 209.328C241.724 208.604 242.178 207.901 242.815 207.669C243.431 207.445 244.201 207.678 244.472 208.424C244.748 209.18 244.304 209.843 243.688 210.067C243.051 210.299 242.251 210.052 241.988 209.328ZM248.799 206.69C248.52 205.923 248.826 205.518 249.355 205.325C249.863 205.141 250.348 205.331 250.596 206.012L251.575 208.701L253.076 208.155L251.979 205.141C251.456 203.704 250.488 203.262 249.353 203.674C248.749 203.895 248.287 204.442 248.202 205.048L247.934 204.313L246.433 204.86L248.269 209.904L249.771 209.358L248.799 206.69Z" fill="#FEFFF6"/>
<path d="M99.2436 264.708C98.5846 264.948 97.7733 264.668 97.4942 263.901L95.7524 259.116L94.1429 259.701L95.8846 264.487C96.498 266.172 98.263 266.753 99.7861 266.198C101.309 265.644 102.266 264.072 101.653 262.387L99.9113 257.602L98.3234 258.18L100.065 262.965C100.344 263.732 99.9025 264.468 99.2436 264.708ZM104.542 261.323C104.263 260.556 104.569 260.152 105.098 259.959C105.606 259.774 106.091 259.965 106.339 260.645L107.318 263.335L108.819 262.788L107.722 259.775C107.199 258.338 106.231 257.895 105.096 258.308C104.492 258.528 104.03 259.075 103.945 259.681L103.678 258.947L102.176 259.493L104.012 264.538L105.514 263.991L104.542 261.323ZM109.806 256.716L108.316 257.259L110.152 262.303L111.642 261.761L109.806 256.716ZM107.441 255.461C107.618 255.947 108.195 256.189 108.703 256.004C109.222 255.816 109.476 255.271 109.299 254.784C109.114 254.277 108.57 254.059 108.062 254.244C107.555 254.428 107.26 254.964 107.441 255.461ZM113.151 255.499L112.447 253.565L110.956 254.108L111.66 256.041L110.742 256.376L111.174 257.564L112.093 257.23L113.496 261.086L114.987 260.543L113.583 256.687L114.642 256.302L114.21 255.113L113.151 255.499ZM119.83 256.897C119.704 257.322 119.323 257.62 118.901 257.773C118.361 257.97 117.651 257.935 117.352 257.383L121.047 256.038C121.01 255.904 120.946 255.695 120.899 255.566C120.321 253.978 118.787 253.325 117.35 253.848C115.914 254.371 115.084 255.823 115.666 257.421C116.244 259.009 117.828 259.632 119.265 259.109C120.129 258.794 120.949 258.19 121.192 257.245L119.83 256.897ZM117.032 256.435C116.915 255.744 117.43 255.311 117.841 255.162C118.273 255.005 118.903 255.057 119.214 255.641L117.032 256.435ZM125.505 253.84C125.772 254.575 125.42 255.254 124.782 255.486C124.145 255.718 123.443 255.435 123.172 254.69C122.904 253.955 123.254 253.302 123.902 253.066C124.507 252.846 125.233 253.095 125.505 253.84ZM127.952 255.825L125.117 248.036L123.626 248.579L124.849 251.938C124.432 251.564 123.743 251.521 123.106 251.753C121.81 252.225 121.038 253.668 121.628 255.288C122.21 256.887 123.724 257.486 125.021 257.014C125.658 256.782 126.154 256.296 126.233 255.741L126.461 256.367L127.952 255.825ZM130.957 252.26C131.444 253.599 132.885 254.164 134.495 253.578C135.823 253.094 136.882 251.902 136.38 250.421C136.156 249.707 135.513 248.779 133.52 248.917L132.532 248.958C131.723 249.02 131.528 248.688 131.458 248.493C131.296 248.05 131.597 247.598 132.148 247.398C132.785 247.166 133.231 247.383 133.416 247.891L134.993 247.317C134.474 245.891 133.083 245.43 131.646 245.953C130.22 246.472 129.413 247.782 129.896 249.11C130.144 249.791 130.767 250.629 132.597 250.549L133.584 250.472C134.408 250.416 134.677 250.649 134.788 250.988C134.954 251.478 134.632 251.938 133.984 252.173C133.26 252.437 132.75 252.145 132.545 251.682L130.957 252.26ZM138.321 246.338L137.617 244.404L136.126 244.947L136.83 246.88L135.912 247.214L136.344 248.403L137.263 248.068L138.666 251.925L140.157 251.382L138.753 247.526L139.812 247.141L139.38 245.952L138.321 246.338ZM145.8 249.328L147.291 248.786L145.455 243.741L143.964 244.284L144.168 244.845C143.557 244.444 142.79 244.589 142.456 244.71C141.17 245.178 140.254 246.662 140.84 248.271C141.426 249.881 143.081 250.428 144.366 249.96C144.744 249.823 145.451 249.345 145.592 248.756L145.8 249.328ZM142.396 247.705C142.132 246.981 142.586 246.278 143.223 246.046C143.839 245.822 144.609 246.055 144.88 246.801C145.155 247.557 144.712 248.22 144.096 248.444C143.458 248.676 142.659 248.429 142.396 247.705ZM148.807 242.521L148.103 240.588L146.612 241.13L147.316 243.064L146.398 243.398L146.83 244.586L147.748 244.252L149.152 248.108L150.643 247.566L149.239 243.709L150.298 243.324L149.865 242.136L148.807 242.521ZM155.486 243.919C155.359 244.344 154.978 244.642 154.557 244.795C154.017 244.992 153.307 244.957 153.008 244.405L156.702 243.06C156.666 242.927 156.602 242.718 156.555 242.588C155.977 241 154.443 240.347 153.006 240.87C151.569 241.393 150.74 242.845 151.322 244.444C151.9 246.032 153.484 246.654 154.921 246.131C155.785 245.816 156.605 245.212 156.848 244.267L155.486 243.919ZM152.688 243.457C152.571 242.766 153.086 242.334 153.497 242.184C153.929 242.027 154.559 242.079 154.87 242.663L152.688 243.457ZM159.761 242.094C160.175 242.053 160.337 242.129 160.416 242.345C160.51 242.604 160.284 242.858 159.953 242.99C159.532 243.144 159.112 242.966 158.995 242.678L157.591 243.19C158 244.313 159.315 244.532 160.331 244.162C161.389 243.777 162.328 242.86 161.939 241.791C161.817 241.456 161.379 240.722 160.032 240.821L159.096 240.905C158.766 240.939 158.585 240.846 158.516 240.688C158.422 240.465 158.572 240.239 158.907 240.117C159.156 240.027 159.493 239.977 159.641 240.352L161.056 239.837C160.604 238.594 159.366 238.555 158.373 238.917C157.314 239.302 156.658 240.324 156.93 241.069C157.099 241.534 157.371 242.316 159.04 242.161L159.761 242.094Z" fill="#FEFFF6"/>
<path d="M192.075 123.789C191.484 122.165 189.685 121.326 188.06 121.917C186.435 122.509 185.596 124.307 186.188 125.932L199.045 161.257C199.636 162.881 201.435 163.72 203.06 163.129C204.685 162.537 205.523 160.739 204.932 159.114L192.075 123.789ZM224.456 112.004C223.864 110.379 222.065 109.54 220.44 110.132C218.816 110.723 217.977 112.522 218.568 114.147L231.425 149.471C232.017 151.096 233.815 151.935 235.44 151.343C237.065 150.752 237.904 148.953 237.313 147.328L224.456 112.004Z" fill="#DD2E44"/>
<path d="M235.565 119.628C236.156 121.253 235.317 123.052 233.692 123.643L186.593 140.786C184.969 141.377 183.17 140.539 182.578 138.914C181.987 137.289 182.826 135.49 184.451 134.899L231.55 117.756C233.175 117.165 234.973 118.003 235.565 119.628ZM229.272 106.917C229.863 108.542 229.043 109.866 227.399 110.932C227.399 110.932 223.519 114.011 205.857 120.44C188.195 126.868 183.244 127.004 183.244 127.004C181.238 127.29 179.82 126.756 179.229 125.131C178.637 123.507 179.476 121.708 181.101 121.116L225.256 105.045C226.881 104.454 228.68 105.292 229.272 106.917Z" fill="#DD2E44"/>
<path d="M228.998 102.017C229.589 103.641 228.99 105.014 227.261 105.982C227.261 105.982 221.909 109.597 204.249 116.025C186.589 122.452 180.168 123.123 180.168 123.123C178.343 123.473 176.907 122.833 176.315 121.208C175.723 119.582 174.392 116.891 176.017 116.299C176.017 116.299 182.975 117.101 202.106 110.138C221.237 103.174 226.053 98.088 226.053 98.088C227.679 97.496 228.406 100.39 228.998 102.017Z" fill="#292F33"/>
<path d="M211.479 126.728C212.071 128.353 211.232 130.151 209.607 130.743C207.982 131.334 206.183 130.495 205.592 128.871L202.378 120.04C201.786 118.415 202.625 116.616 204.25 116.024C205.875 115.433 207.674 116.272 208.265 117.897L211.479 126.728Z" fill="#DD2E44"/>
<path d="M208.411 159.514C209.003 161.139 208.164 162.938 206.539 163.529L200.652 165.672C199.027 166.264 197.228 165.425 196.637 163.8C196.045 162.175 196.884 160.376 198.509 159.785L204.396 157.642C206.021 157.05 207.82 157.889 208.411 159.514ZM240.792 147.729C241.383 149.354 240.545 151.152 238.92 151.744L233.032 153.887C231.407 154.478 229.609 153.639 229.017 152.014C228.426 150.389 229.265 148.591 230.889 147.999L236.777 145.856C238.402 145.265 240.201 146.104 240.792 147.729Z" fill="#292F33"/>
<path d="M132.965 183.877C134.14 187.106 132.475 190.677 129.246 191.853L88.317 206.749C85.088 207.925 81.5172 206.26 80.3419 203.031L65.445 162.102C64.2698 158.873 65.9349 155.302 69.1639 154.127L110.093 139.23C113.322 138.055 116.893 139.72 118.068 142.949L132.965 183.877Z" fill="#88C9F9"/>
<path d="M106.928 155.568L110.093 139.23L107.169 140.294L101.723 154.347C99.7269 154.148 97.6835 154.246 95.6474 154.67L91.09 146.146L88.1665 147.21L90.1542 156.669C88.3569 157.634 86.7542 158.844 85.3708 160.246L73.5491 152.531L70.6256 153.595L82.1464 164.504C81.2301 166.125 80.533 167.862 80.0895 169.677L68.6372 170.872L69.7013 173.796L79.534 174.345C79.5205 176.678 79.8899 179.048 80.7342 181.368C80.7849 181.512 80.8168 181.654 80.8626 181.798L77.0548 183.834C76.8211 183.547 76.5905 183.268 76.349 182.964C73.2917 179.112 70.7653 176.719 70.7653 176.719L80.3419 203.031C82.47 208.878 88.317 206.749 88.317 206.749L129.246 191.853C129.246 191.853 128.011 190.574 128.182 188.929C128.248 188.296 129.947 187.197 128.579 185.474C126.41 182.739 122.908 176.336 120.673 171.797L127.644 169.26L126.58 166.337L118.904 167.95C118.845 167.806 118.783 167.653 118.74 167.535C117.895 165.215 116.653 163.163 115.147 161.384L122.324 154.643L121.26 151.719L111.717 158.165C110.245 157.082 108.63 156.218 106.928 155.568ZM81.9326 189.208C81.9326 189.208 80.9914 188.314 79.5735 186.756L81.7412 185.967C81.9632 187.842 81.9326 189.208 81.9326 189.208Z" fill="#157569"/>
<path d="M83.1256 178.842C83.1256 178.842 81.9782 173.77 85.7804 167.943C90.0313 161.43 93.4868 161.828 94.0188 163.289C94.5508 164.751 90.1656 166.347 86.8444 170.867C83.5233 175.386 83.1256 178.842 83.1256 178.842ZM115.284 167.137C115.284 167.137 112.901 162.515 106.245 160.495C98.8017 158.238 96.4097 160.762 96.9423 162.225C97.4743 163.687 101.86 162.091 107.309 163.418C112.758 164.746 115.284 167.137 115.284 167.137ZM97.0767 167.143C88.3062 170.335 87.5108 177.246 87.5108 177.246C87.5108 177.246 89.3702 173.258 92.2937 172.194C95.2172 171.13 96.2813 174.054 96.2813 174.054L97.3453 176.977C97.8774 178.439 100.801 177.375 100.801 177.375C100.801 177.375 103.724 176.311 103.192 174.849L102.128 171.926C102.128 171.926 101.064 169.002 103.988 167.938C106.911 166.874 110.899 168.733 110.899 168.733C110.899 168.733 105.847 163.95 97.0767 167.143Z" fill="#3FC9B9"/>
<path d="M107.578 173.253C104.654 174.317 104.122 172.855 104.122 172.855C104.122 172.855 105.499 177.014 104.789 179.234L98.9416 181.362C96.9693 180.119 95.3518 176.047 95.3518 176.047C95.3518 176.047 95.8838 177.509 92.9603 178.573C90.0368 179.637 86.5813 179.24 86.5813 179.24C86.5813 179.24 91.3696 192.395 94.8251 192.793C97.011 193.045 100.14 189.203 104.525 187.607C108.911 186.011 113.777 186.943 115.29 185.345C117.681 182.819 112.893 169.663 112.893 169.663C112.893 169.663 110.501 172.189 107.578 173.253Z" fill="#3FC9B9"/>
<path d="M98.544 184.818L107.314 181.626C107.314 181.626 105.321 180.696 102.397 181.76C99.4737 182.824 98.544 184.818 98.544 184.818Z" fill="#157569"/>
<path d="M78.4771 188.811C79.6755 196.652 84.2058 203.573 84.7271 201.435C86.0545 195.985 87.6506 200.37 88.1826 201.832C88.7146 203.294 91.1919 207.708 92.1702 203.692C93.1003 199.875 101.329 199.893 106.187 200.245L107.874 199.631C104.107 198.693 96.4973 199.862 92.0358 198.774C86.5865 197.447 78.4771 188.811 78.4771 188.811Z" fill="#3FC9B9"/>
<g clip-path="url(#clip0)">
<path d="M348.281 313.183C353.045 315.7 357.702 318.275 362.252 320.909" stroke="#2F2E41" stroke-miterlimit="10"/>
<path d="M259.618 297.591C280.4 302.088 303.088 309.85 325.945 320.804C342.5 328.686 358.341 337.989 373.29 348.609" stroke="#2F2E41" stroke-miterlimit="10"/>
<path d="M190.444 601.019H403.531" stroke="#3F3D56" stroke-miterlimit="10"/>
<path d="M240.172 294.263C246.417 295.031 252.918 296.142 259.618 297.591" stroke="#2F2E41" stroke-miterlimit="10"/>
<path d="M179.058 359.461C167.521 342.567 163.557 326.604 169.485 314.221C176.041 300.525 193.591 293.518 217.381 293.002" stroke="#2F2E41" stroke-miterlimit="10"/>
<path d="M422.019 397.197C431.636 412.687 434.619 427.21 429.134 438.668C424.307 448.751 413.522 455.208 398.675 458.119" stroke="#2F2E41" stroke-miterlimit="10"/>
<path d="M373.29 348.609C382.927 355.448 392.036 363.003 400.541 371.21" stroke="#2F2E41" stroke-miterlimit="10"/>
<path d="M172.67 273.203C191.821 269.086 216.604 269.818 244.321 275.285" stroke="#2F2E41" stroke-miterlimit="10"/>
<path d="M451.406 397.195C459.979 409.726 465.252 421.853 466.63 432.897" stroke="#2F2E41" stroke-miterlimit="10"/>
<path d="M362.252 320.909C370.852 325.884 379.034 331.03 386.799 336.346" stroke="#2F2E41" stroke-miterlimit="10"/>
<path d="M374.576 505.488C372.377 505.613 370.256 506.348 368.45 507.611C366.645 508.874 365.227 510.615 364.355 512.639C361.799 518.821 365.09 526.082 370.03 530.59C374.97 535.098 381.316 537.674 387.081 541.061C394.825 545.61 401.784 551.925 405.659 560.03C409.534 568.136 409.946 578.177 405.391 585.921C401.164 593.109 393.477 597.41 386.145 601.378" stroke="#3F3D56" stroke-miterlimit="10"/>
<path d="M381.087 510.415C386.074 510.415 390.116 508.45 390.116 506.027C390.116 503.603 386.074 501.638 381.087 501.638C376.101 501.638 372.058 503.603 372.058 506.027C372.058 508.45 376.101 510.415 381.087 510.415Z" fill="#57B894"/>
<path d="M388.311 539.326C393.297 539.326 397.34 537.361 397.34 534.937C397.34 532.514 393.297 530.549 388.311 530.549C383.324 530.549 379.281 532.514 379.281 534.937C379.281 537.361 383.324 539.326 388.311 539.326Z" fill="#57B894"/>
<path d="M371.8 543.972C376.787 543.972 380.829 542.007 380.829 539.584C380.829 537.16 376.787 535.195 371.8 535.195C366.814 535.195 362.771 537.16 362.771 539.584C362.771 542.007 366.814 543.972 371.8 543.972Z" fill="#57B894"/>
<path d="M397.598 568.237C402.584 568.237 406.627 566.272 406.627 563.848C406.627 561.425 402.584 559.46 397.598 559.46C392.611 559.46 388.569 561.425 388.569 563.848C388.569 566.272 392.611 568.237 397.598 568.237Z" fill="#57B894"/>
<path d="M415.656 568.237C420.642 568.237 424.685 566.272 424.685 563.848C424.685 561.425 420.642 559.46 415.656 559.46C410.669 559.46 406.627 561.425 406.627 563.848C406.627 566.272 410.669 568.237 415.656 568.237Z" fill="#57B894"/>
<path d="M326.191 335.085H331.277C331.277 335.085 335.94 371.137 332.549 374.53C329.158 377.923 319.833 380.044 318.561 374.53C317.289 369.016 318.561 348.658 318.561 348.658L326.191 335.085Z" fill="#6C63FF"/>
<path d="M292.916 339.963C310.006 339.963 323.859 323.727 323.859 303.699C323.859 283.671 310.006 267.435 292.916 267.435C275.827 267.435 261.973 283.671 261.973 303.699C261.973 323.727 275.827 339.963 292.916 339.963Z" fill="#2F2E41"/>
<path d="M285.922 310.485C285.922 310.485 287.618 324.482 282.531 327.451C277.445 330.42 288.466 347.385 288.466 347.385L301.606 350.778L310.507 338.478L308.812 325.754C308.812 325.754 298.639 315.575 303.301 306.244L285.922 310.485Z" fill="#FFC1C7"/>
<path opacity="0.1" d="M285.922 310.485C285.922 310.485 287.618 324.482 282.531 327.451C277.445 330.42 288.466 347.385 288.466 347.385L301.606 350.778L310.507 338.478L308.812 325.754C308.812 325.754 298.639 315.575 303.301 306.244L285.922 310.485Z" fill="black"/>
<path d="M266.848 462.42C266.848 462.42 261.762 508.651 266.848 519.678C271.935 530.706 285.499 561.668 285.499 561.668L281.26 570.575L292.705 568.03L297.367 559.123C297.367 559.123 291.857 537.492 291.009 529.858C290.161 522.223 283.803 508.227 283.803 508.227L295.672 457.754L266.848 462.42Z" fill="#FFC1C7"/>
<path d="M307.116 454.692C307.116 454.692 307.54 501.347 310.507 508.584L308.812 571.78L318.137 573.026C318.137 573.026 331.701 520.009 329.582 507.285C327.463 494.561 330.006 448.754 330.006 448.754L307.116 454.692Z" fill="#FFC1C7"/>
<path d="M292.916 316.211C301.812 316.211 309.024 308.995 309.024 300.094C309.024 291.193 301.812 283.977 292.916 283.977C284.021 283.977 276.809 291.193 276.809 300.094C276.809 308.995 284.021 316.211 292.916 316.211Z" fill="#FFC1C7"/>
<path d="M347.809 460.63C347.809 460.63 336.364 468.264 331.701 462.75C327.039 457.237 269.815 466.143 262.609 464.447C255.403 462.75 266.424 435.606 266.424 421.609C266.424 411.137 270.222 395.207 272.134 387.844C272.778 385.367 273.206 383.861 273.206 383.861C273.206 383.861 277.555 371.48 276.742 366.336C276.686 365.946 276.579 365.565 276.424 365.203C276.356 365.052 276.272 364.908 276.173 364.775C274.143 362.064 268.323 342.3 266.064 333.813C265.695 332.557 265.391 331.283 265.153 329.995C265.153 328.723 280.836 324.906 284.757 324.723C288.682 324.541 289.738 329.995 289.738 329.995C291.009 330.844 296.943 345.689 296.943 345.689L302.454 331.692C302.454 331.692 302.03 328.723 301.606 328.723C301.182 328.723 307.875 324.719 307.875 324.719C307.875 324.719 314.746 329.571 318.561 328.723C322.376 327.875 331.277 335.509 331.277 335.509C331.277 335.509 315.594 374.954 321.952 383.437C328.31 391.919 347.809 460.63 347.809 460.63Z" fill="#6C63FF"/>
<path d="M296.096 557.426C296.096 557.426 288.89 564.637 288.89 565.485L282.956 562.94C282.956 562.94 280.412 572.271 279.988 573.544C279.565 574.816 272.359 586.268 265.153 591.357C257.947 596.447 265.153 602.809 271.511 601.537C277.869 600.264 293.976 585.844 293.976 585.844C293.976 585.844 304.997 585.844 308.812 577.361C308.812 577.361 298.639 556.578 296.096 557.426Z" fill="#2F2E41"/>
<path d="M317.289 569.66C317.289 569.66 306.4 561.743 305.698 569.094C304.997 576.446 304.997 592.563 304.997 592.563C304.997 592.563 301.606 603.166 312.203 601.894C322.8 600.622 323.648 597.653 323.648 597.653L318.561 577.294V568.387L317.289 569.66Z" fill="#2F2E41"/>
<path opacity="0.1" d="M276.173 364.775C274.143 362.064 268.323 342.3 266.064 333.813H268.12C268.12 333.813 273.283 354.031 276.424 365.203C276.356 365.052 276.272 364.908 276.173 364.775Z" fill="black"/>
<path opacity="0.1" d="M304.149 392.768C304.149 392.768 298.215 393.192 276.597 388.951C275.091 388.661 273.601 388.292 272.134 387.844C272.778 385.367 273.206 383.861 273.206 383.861C273.206 383.861 277.555 371.48 276.741 366.336C277.754 369.898 278.509 372.303 278.717 372.409C279.564 372.833 306.692 377.499 310.507 379.196C314.322 380.892 304.149 392.768 304.149 392.768Z" fill="black"/>
<path opacity="0.1" d="M311.779 337.257C311.779 337.257 323.471 335.814 324.195 337.711C324.919 339.607 327.886 357.939 329.158 360.289C330.43 362.64 330.853 377.211 325.767 377.681C320.68 378.151 313.898 372.981 315.17 368.75C316.442 364.52 311.779 337.257 311.779 337.257Z" fill="black"/>
<path d="M305.844 376.226C305.844 376.226 323.647 378.347 326.614 376.226C329.582 374.106 341.874 374.106 339.331 380.044C336.787 385.982 314.746 386.406 314.746 386.406H302.03L305.844 376.226Z" fill="#FFC1C7"/>
<path d="M268.12 330.844H265.153C265.153 330.844 259.218 332.116 260.066 350.778C260.914 369.44 254.98 381.74 276.597 385.982C298.215 390.223 304.149 389.799 304.149 389.799C304.149 389.799 314.322 377.923 310.508 376.226C306.693 374.53 279.565 369.864 278.717 369.44C277.869 369.016 268.12 330.844 268.12 330.844Z" fill="#6C63FF"/>
<path d="M323.869 339.215C323.869 339.215 316.442 311.334 310.508 311.334C304.573 311.334 297.791 312.606 302.878 318.12C307.964 323.634 314.322 329.572 314.746 332.54C315.17 335.509 316.866 339.751 316.866 339.751L323.869 339.215Z" fill="#FFC1C7"/>
<path d="M313.474 337.257C313.474 337.257 325.166 335.814 325.89 337.711C326.615 339.607 329.582 357.939 330.853 360.289C332.125 362.64 332.549 377.211 327.462 377.681C322.376 378.151 315.594 372.981 316.865 368.75C318.137 364.52 313.474 337.257 313.474 337.257Z" fill="#6C63FF"/>
<path d="M288.678 300.094C297.105 300.094 303.937 293.258 303.937 284.825C303.937 276.392 297.105 269.556 288.678 269.556C280.25 269.556 273.418 276.392 273.418 284.825C273.418 293.258 280.25 300.094 288.678 300.094Z" fill="#2F2E41"/>
<path d="M350.168 457.431C326.488 453.526 299.698 445.037 272.674 432.084C241.905 417.337 215.832 399.2 197.253 380.87" stroke="#2F2E41" stroke-miterlimit="10"/>
<path d="M254.156 440.062C232.971 429.079 213.792 416.869 197.253 404.157" stroke="#2F2E41" stroke-miterlimit="10"/>
<path d="M104.398 268.418C118.425 268.418 129.797 257.04 129.797 243.004C129.797 228.969 118.425 217.59 104.398 217.59C90.3712 217.59 79 228.969 79 243.004C79 257.04 90.3712 268.418 104.398 268.418Z" fill="#6C63FF"/>
<path d="M110.356 258.064C124.383 258.064 135.754 246.686 135.754 232.651C135.754 218.615 124.383 207.237 110.356 207.237C96.329 207.237 84.9578 218.615 84.9578 232.651C84.9578 246.686 96.329 258.064 110.356 258.064Z" stroke="#2F2E41" stroke-miterlimit="10"/>
<path d="M457.52 349.586C465.681 349.586 472.297 342.966 472.297 334.799C472.297 326.633 465.681 320.013 457.52 320.013C449.359 320.013 442.743 326.633 442.743 334.799C442.743 342.966 449.359 349.586 457.52 349.586Z" fill="#F2F2F2"/>
<path d="M460.986 343.562C469.148 343.562 475.764 336.942 475.764 328.776C475.764 320.609 469.148 313.989 460.986 313.989C452.825 313.989 446.209 320.609 446.209 328.776C446.209 336.942 452.825 343.562 460.986 343.562Z" stroke="#2F2E41" stroke-miterlimit="10"/>
<path d="M187.953 510.186C199.685 510.186 209.195 500.67 209.195 488.931C209.195 477.192 199.685 467.676 187.953 467.676C176.221 467.676 166.711 477.192 166.711 488.931C166.711 500.67 176.221 510.186 187.953 510.186Z" fill="#F2F2F2"/>
<path d="M192.936 501.527C204.668 501.527 214.178 492.011 214.178 480.272C214.178 468.533 204.668 459.017 192.936 459.017C181.204 459.017 171.694 468.533 171.694 480.272C171.694 492.011 181.204 501.527 192.936 501.527Z" stroke="#2F2E41" stroke-miterlimit="10"/>
</g>
<defs>
<filter id="filter0_d" x="281.282" y="5.58087" width="315.179" height="370.047" filterUnits="userSpaceOnUse" color-interpolation-filters="sRGB">
<feFlood flood-opacity="0" result="BackgroundImageFix"/>
<feColorMatrix in="SourceAlpha" type="matrix" values="0 0 0 0 0 0 0 0 0 0 0 0 0 0 0 0 0 0 127 0"/>
<feOffset dy="2.2991"/>
<feGaussianBlur stdDeviation="1.14955"/>
<feColorMatrix type="matrix" values="0 0 0 0 0 0 0 0 0 0 0 0 0 0 0 0 0 0 0.4 0"/>
<feBlend mode="normal" in2="BackgroundImageFix" result="effect1_dropShadow"/>
<feBlend mode="normal" in="SourceGraphic" in2="effect1_dropShadow" result="shape"/>
</filter>
<filter id="filter1_d" x="1.66477" y="3.57959" width="334.078" height="380.455" filterUnits="userSpaceOnUse" color-interpolation-filters="sRGB">
<feFlood flood-opacity="0" result="BackgroundImageFix"/>
<feColorMatrix in="SourceAlpha" type="matrix" values="0 0 0 0 0 0 0 0 0 0 0 0 0 0 0 0 0 0 127 0"/>
<feOffset dy="2.2991"/>
<feGaussianBlur stdDeviation="1.14955"/>
<feColorMatrix type="matrix" values="0 0 0 0 0 0 0 0 0 0 0 0 0 0 0 0 0 0 0.4 0"/>
<feBlend mode="normal" in2="BackgroundImageFix" result="effect1_dropShadow"/>
<feBlend mode="normal" in="SourceGraphic" in2="effect1_dropShadow" result="shape"/>
</filter>
<clipPath id="clip0">
<rect width="397" height="395" fill="white" transform="translate(79 207)"/>
</clipPath>
</defs>
</svg>
