<svg width="562" height="679" viewBox="0 0 562 679" fill="none" xmlns="http://www.w3.org/2000/svg">
<rect x="135" y="210" width="356" height="469" rx="20" fill="#FA885E" fill-opacity="0.3"/>
<rect x="109.509" y="156.071" width="376" height="496" rx="19.5" transform="rotate(-1 109.509 156.071)" fill="#FA885E" fill-opacity="0.5" stroke="#FEFFF6"/>
<rect x="163.015" y="76.6153" width="399" height="527" rx="19" transform="rotate(5 163.015 76.6153)" fill="#FA885E" fill-opacity="0.7" stroke="#FEFFF6" stroke-width="2"/>
<g filter="url(#filter0_d)">
<rect x="4.66772" y="51.6661" width="420" height="555" rx="20" transform="rotate(-7 4.66772 51.6661)" fill="#FA885E"/>
<rect x="6.33935" y="52.9721" width="417" height="552" rx="18.5" transform="rotate(-7 6.33935 52.9721)" stroke="white" stroke-width="3"/>
</g>
<path d="M214.853 27.3696L401.947 4.39727C412.089 3.1521 421.319 10.3637 422.564 20.5048L485.327 531.666C486.572 541.807 479.36 551.038 469.219 552.283L282.124 575.255L214.853 27.3696Z" fill="#5ABE93" stroke="white" stroke-width="3"/>
<path d="M429.402 543.57L432.32 543.212L431.65 537.753L436.116 537.205L435.804 534.664L431.338 535.212L430.955 532.096L436.593 531.403L436.278 528.843L427.722 529.893L429.402 543.57ZM437.988 527.988L439.746 542.3L442.505 541.962L440.748 527.649L437.988 527.988ZM446.639 532.044L443.9 532.38L445.038 541.651L447.778 541.314L446.639 532.044ZM443.121 528.99C443.231 529.883 444.115 530.52 445.048 530.406C446.001 530.289 446.645 529.464 446.535 528.571C446.421 527.638 445.583 527.055 444.65 527.17C443.717 527.284 443.009 528.077 443.121 528.99ZM452.545 536.054C452.379 534.704 453.242 533.691 454.413 533.548C455.584 533.404 456.664 534.158 456.832 535.528C456.998 536.877 456.15 537.848 454.959 537.994C453.847 538.131 452.715 537.444 452.545 536.054ZM449.173 531.733L450.869 545.549L453.609 545.213L452.912 539.535C453.473 540.333 454.623 540.675 455.794 540.531C458.176 540.239 460.049 538.095 459.684 535.117C459.323 532.179 456.989 530.571 454.607 530.864C453.436 531.008 452.405 531.638 452.054 532.548L451.912 531.396L449.173 531.733ZM463.854 529.93L461.114 530.266L462.253 539.537L464.992 539.201L463.854 529.93ZM460.335 526.876C460.445 527.769 461.329 528.406 462.262 528.292C463.215 528.175 463.859 527.35 463.75 526.457C463.635 525.524 462.798 524.942 461.865 525.056C460.932 525.171 460.223 525.963 460.335 526.876ZM466.397 534.293C466.755 537.211 469.396 538.861 472.036 538.537C473.704 538.332 475.105 537.435 475.822 536.057L473.384 534.745C473.082 535.406 472.427 535.809 471.712 535.897C470.541 536.041 469.3 535.286 469.136 533.956C468.973 532.626 470.002 531.654 471.173 531.51C471.888 531.422 472.622 531.654 473.074 532.223L475.12 530.34C474.071 529.179 472.517 528.665 470.849 528.87C468.209 529.194 466.036 531.355 466.397 534.293Z" fill="#FEFFF6"/>
<path d="M331.921 360.143C331.636 357.821 329.865 356.527 327.403 356.829L321.925 357.502L323.604 371.179L329.48 370.458C332.199 370.124 333.611 367.996 333.333 365.733C333.194 364.601 332.234 363.188 330.369 362.933C331.733 362.222 332.031 361.037 331.921 360.143ZM325.506 362.543L325.157 359.704L327.42 359.426C328.274 359.322 328.781 359.844 328.886 360.697C328.986 361.511 328.563 362.168 327.788 362.263L325.506 362.543ZM328.54 364.609C329.572 364.482 330.173 365.275 330.268 366.049C330.368 366.863 329.979 367.797 329.007 367.916L326.208 368.26L325.801 364.945L328.54 364.609ZM341.345 364.568C341.518 365.977 340.762 366.554 339.909 366.658C339.274 366.736 338.217 366.503 338.035 365.015L337.428 360.072L334.668 360.41L335.348 365.949C335.673 368.589 337.419 369.684 339.503 369.428C340.397 369.319 341.343 368.658 341.725 367.665L341.881 368.935L344.64 368.596L343.502 359.326L340.743 359.665L341.345 364.568ZM349.55 364.709C349.248 362.247 349.812 360.929 351.4 360.734C351.856 360.678 352.318 360.661 352.843 360.839L353.035 358.296C352.551 358.134 352.06 358.073 351.405 358.154C350.453 358.271 349.349 359.132 349.085 360.917L348.809 358.674L346.05 359.013L347.188 368.283L349.948 367.945L349.55 364.709ZM361.644 361.773C361.812 363.143 360.81 364.173 359.678 364.312C358.487 364.458 357.345 363.691 357.177 362.322C357.016 361.011 357.941 360.011 359.132 359.865C360.284 359.724 361.475 360.403 361.644 361.773ZM355.364 369.053C356.37 370.682 358.238 371.622 360.283 371.371C363.558 370.968 365.287 368.801 364.797 364.811L363.817 356.831L361.138 357.16L361.279 358.312C360.7 357.537 359.485 357.162 358.334 357.303C355.952 357.596 353.94 359.757 354.306 362.735C354.667 365.672 357.139 367.263 359.521 366.971C360.692 366.827 361.783 366.189 362.134 365.279C362.458 367.094 362.102 368.628 359.978 368.889C359.045 369.004 357.878 368.522 357.453 367.688L355.364 369.053ZM373.64 361.932C373.259 362.604 372.497 362.959 371.723 363.054C370.73 363.176 369.54 362.839 369.25 361.786L376.039 360.953C376.029 360.712 376.003 360.332 375.974 360.094C375.615 357.176 373.27 355.469 370.63 355.793C367.99 356.118 366.015 358.254 366.376 361.192C366.734 364.11 369.177 365.785 371.817 365.461C373.405 365.266 375.031 364.562 375.813 363.056L373.64 361.932ZM369.077 360.054C369.15 358.837 370.193 358.305 370.947 358.213C371.741 358.115 372.79 358.45 373.087 359.562L369.077 360.054ZM380.781 360.874C380.478 358.413 381.042 357.094 382.63 356.899C383.087 356.843 383.548 356.827 384.074 357.004L384.265 354.462C383.782 354.299 383.291 354.239 382.636 354.319C381.683 354.436 380.58 355.297 380.315 357.083L380.04 354.84L377.28 355.178L378.419 364.449L381.178 364.11L380.781 360.874ZM389.919 359.49C390.636 359.584 390.881 359.775 390.93 360.172C390.988 360.649 390.506 360.99 389.893 361.085C389.119 361.18 388.478 360.715 388.392 360.181L385.811 360.498C386.065 362.563 388.209 363.448 390.075 363.219C392.02 362.98 393.97 361.794 393.729 359.828C393.653 359.213 393.197 357.798 390.876 357.438L389.257 357.214C388.684 357.143 388.414 356.914 388.357 356.619C388.286 356.205 388.629 355.88 389.245 355.805C389.701 355.749 390.292 355.797 390.397 356.49L392.997 356.17C392.717 353.887 390.634 353.337 388.808 353.561C386.863 353.8 385.351 355.275 385.52 356.645C385.624 357.499 385.78 358.93 388.669 359.321L389.919 359.49Z" fill="#FEFFF6"/>
<path d="M121.883 391.877C122.185 394.339 124.407 395.859 127.365 395.496C129.806 395.196 132.067 393.589 131.795 390.882C131.696 389.584 130.969 387.759 127.536 387.213L125.845 386.897C124.449 386.686 124.25 386.045 124.206 385.688C124.106 384.874 124.792 384.225 125.804 384.101C126.976 383.957 127.647 384.5 127.761 385.433L130.659 385.077C130.338 382.456 128.16 381.132 125.52 381.456C122.9 381.778 121.017 383.681 121.317 386.123C121.471 387.374 122.199 389.037 125.333 389.62L127.037 389.874C128.455 390.103 128.819 390.602 128.875 391.22C128.965 392.116 128.239 392.769 127.048 392.915C125.718 393.079 124.968 392.385 124.801 391.519L121.883 391.877ZM146.768 383.482L143.83 383.842L142.86 389.563L140.555 384.245L138.192 384.535L137.242 390.253L134.917 384.937L131.979 385.298L136.472 394.156L138.775 393.873L139.798 387.763L142.348 393.435L144.651 393.152L146.768 383.482ZM155.369 388.733C154.988 389.404 154.226 389.76 153.452 389.855C152.459 389.977 151.269 389.639 150.979 388.587L157.768 387.753C157.758 387.512 157.732 387.133 157.703 386.895C157.344 383.976 154.999 382.27 152.359 382.594C149.719 382.918 147.744 385.054 148.105 387.992C148.463 390.91 150.906 392.585 153.546 392.261C155.134 392.066 156.76 391.363 157.542 389.856L155.369 388.733ZM150.806 386.855C150.879 385.637 151.922 385.106 152.676 385.013C153.47 384.916 154.519 385.25 154.816 386.362L150.806 386.855ZM166.283 387.393C165.902 388.064 165.14 388.42 164.366 388.515C163.373 388.636 162.183 388.299 161.893 387.247L168.682 386.413C168.672 386.172 168.646 385.793 168.617 385.554C168.258 382.636 165.913 380.929 163.273 381.254C160.633 381.578 158.658 383.714 159.019 386.652C159.377 389.57 161.82 391.245 164.46 390.921C166.048 390.726 167.674 390.023 168.457 388.516L166.283 387.393ZM161.721 385.515C161.793 384.297 162.836 383.766 163.59 383.673C164.384 383.576 165.433 383.91 165.73 385.022L161.721 385.515ZM173.459 380.204L173.023 376.651L170.283 376.988L170.719 380.541L169.032 380.748L169.3 382.932L170.988 382.724L171.858 389.811L174.597 389.475L173.727 382.388L175.672 382.149L175.404 379.966L173.459 380.204ZM181.418 385.091C182.135 385.184 182.38 385.376 182.429 385.773C182.487 386.249 182.005 386.591 181.393 386.686C180.618 386.781 179.977 386.316 179.891 385.782L177.311 386.099C177.564 388.164 179.708 389.049 181.574 388.82C183.519 388.581 185.469 387.394 185.228 385.429C185.152 384.814 184.697 383.399 182.375 383.039L180.756 382.815C180.183 382.744 179.913 382.515 179.857 382.22C179.786 381.805 180.129 381.481 180.744 381.406C181.201 381.35 181.791 381.398 181.896 382.09L184.497 381.771C184.216 379.488 182.134 378.938 180.308 379.162C178.362 379.401 176.851 380.876 177.019 382.246C177.124 383.099 177.279 384.531 180.168 384.922L181.418 385.091Z" fill="#FEFFF6"/>
<path d="M182.646 292.011C181.811 292.098 180.943 291.866 180.239 291.297L90.2894 218.322C88.8833 217.181 88.6678 215.113 89.8085 213.707C90.9493 212.3 93.0176 212.085 94.4238 213.226L184.373 286.198C185.779 287.339 185.995 289.407 184.854 290.813C184.282 291.515 183.481 291.924 182.646 292.011V292.011Z" fill="#D99E82"/>
<path d="M125.772 226.449C126.805 236.363 119.605 245.237 109.692 246.27C99.7778 247.303 90.9035 240.104 89.8705 230.19C88.8375 220.276 96.0368 211.402 105.951 210.369C115.864 209.336 124.739 216.535 125.772 226.449V226.449Z" fill="#FCB1E3"/>
<path d="M147.35 248.172C148.623 238.286 141.641 229.24 131.755 227.967C121.869 226.694 112.823 233.676 111.55 243.562C110.277 253.448 117.259 262.494 127.145 263.767C137.031 265.04 146.077 258.057 147.35 248.172Z" fill="#FFD983"/>
<path d="M169.021 261.534C170.054 271.447 162.852 280.325 152.938 281.358C143.025 282.391 134.15 275.189 133.117 265.275C132.084 255.361 139.283 246.487 149.197 245.454C159.111 244.421 167.988 251.622 169.021 261.534Z" fill="#A6D388"/>
<path d="M182.646 292.011C181.811 292.098 180.943 291.866 180.239 291.297L158.163 273.388C156.754 272.247 156.539 270.179 157.682 268.773C158.826 267.366 160.889 267.151 162.297 268.292L184.373 286.201C185.779 287.342 185.995 289.41 184.854 290.816C184.282 291.515 183.48 291.924 182.646 292.011V292.011Z" fill="#D99E82"/>
<path d="M342.289 227.549C317.102 230.815 296.608 232.857 298.926 250.736C301.243 268.606 322.186 270.026 347.373 266.76C372.559 263.494 392.448 256.781 390.131 238.91C387.813 221.034 367.475 224.283 342.289 227.549Z" fill="#D99E82"/>
<path d="M386.732 223.167C386.732 223.167 364.298 223.386 342.107 226.149C319.946 229.137 298.198 234.646 298.198 234.646C298.269 252.329 317.341 257.145 345.65 253.475C373.96 249.804 391.173 240.284 386.732 223.167V223.167Z" fill="#662113"/>
<path d="M384.26 216.415L298.868 229.252C295.912 229.635 294.213 235.947 297.553 237.107C321.901 241.351 341.67 246.276 341.67 246.276C344.441 247.37 345.315 247.263 347.718 245.5C347.718 245.5 372.35 231.735 388.471 225.204C390.759 224.279 387.214 216.032 384.26 216.415Z" fill="#FFCC4D"/>
<path d="M386.544 216.348C380.827 212.304 381.448 214.77 377.391 214.173C375.85 213.947 363.433 201.578 339.192 204.721L339.138 204.728C314.898 207.871 306.045 222.997 304.613 223.609C300.843 225.221 300.814 222.678 296.318 228.046C294.254 230.511 293.765 231.717 296.311 231.955C300.145 232.314 300.099 234.612 302.869 235.051C306.223 235.581 307.326 233.675 312.627 233.71C317.148 233.738 318.185 239.463 322.668 238.882C327.151 238.301 326.873 236.15 331.353 235.57C335.833 234.989 339.231 240.413 343.714 239.832C348.198 239.25 350.097 233.139 354.58 232.558C359.063 231.977 359.342 234.127 363.822 233.546C368.306 232.965 367.849 227.165 372.213 225.984C377.33 224.602 378.885 226.16 381.99 224.793C384.557 223.662 383.926 221.453 387.542 220.126C389.948 219.249 389.17 218.205 386.544 216.348V216.348Z" fill="#77B255"/>
<path d="M384.143 211.489C385.183 219.509 366.328 225.804 342.464 228.898C318.6 231.992 298.763 230.714 297.723 222.694C295.84 208.172 298.436 207.835 339.05 202.569C379.664 197.304 382.261 196.97 384.143 211.489Z" fill="#DD2E44"/>
<path d="M335.359 174.098C310.172 177.364 291.287 191.813 293.604 209.689C295.739 226.151 316.242 224.176 341.428 220.91C366.615 217.645 386.943 214.326 384.809 197.863C382.491 179.985 360.545 170.833 335.359 174.098Z" fill="#D99E82"/>
<path d="M317.069 185.136C315.62 184.452 313.894 185.075 313.213 186.524C312.532 187.973 313.152 189.702 314.601 190.381C316.051 191.064 319.525 191.264 320.209 189.815C320.89 188.365 318.519 185.817 317.069 185.136V185.136ZM342.871 178.962C341.424 179.647 339.058 182.206 339.746 183.652C340.433 185.099 343.906 184.884 345.353 184.199C346.801 183.514 347.415 181.783 346.727 180.337C346.043 178.892 344.312 178.275 342.871 178.962ZM374.643 194.068C373.295 193.205 370.461 195.225 369.594 196.573C368.731 197.923 369.124 199.714 370.472 200.578C371.819 201.442 373.613 201.048 374.476 199.701C375.343 198.35 375.993 194.932 374.643 194.068ZM363.109 181.899C361.66 181.218 359.934 181.841 359.25 183.291C358.569 184.74 359.192 186.466 360.641 187.147C362.091 187.831 365.565 188.031 366.247 186.581C366.93 185.129 364.558 182.581 363.109 181.899ZM325.233 205.941C323.783 205.259 322.058 205.882 321.374 207.332C320.692 208.778 321.315 210.507 322.764 211.185C324.214 211.869 327.689 212.072 328.37 210.62C329.054 209.17 326.682 206.622 325.233 205.941V205.941ZM331.744 191.957C331.01 193.38 330.683 196.847 332.109 197.58C333.533 198.314 336.164 196.032 336.898 194.609C337.631 193.186 337.069 191.438 335.645 190.705C334.225 189.971 332.475 190.534 331.744 191.957V191.957ZM354.797 202.107C353.348 201.426 351.622 202.049 350.939 203.499C350.257 204.945 350.88 206.676 352.329 207.352C353.779 208.036 357.254 208.238 357.935 206.786C358.619 205.337 356.247 202.788 354.797 202.107V202.107ZM302.817 198.224C301.912 199.547 301.153 202.944 302.475 203.849C303.792 204.755 306.691 202.827 307.596 201.504C308.504 200.184 308.167 198.381 306.846 197.472C305.529 196.566 303.723 196.904 302.817 198.224V198.224Z" fill="#FFE8B6"/>
<defs>
<filter id="filter0_d" x="0.667725" y="0.480957" width="492.507" height="610.048" filterUnits="userSpaceOnUse" color-interpolation-filters="sRGB">
<feFlood flood-opacity="0" result="BackgroundImageFix"/>
<feColorMatrix in="SourceAlpha" type="matrix" values="0 0 0 0 0 0 0 0 0 0 0 0 0 0 0 0 0 0 127 0"/>
<feOffset dy="4"/>
<feGaussianBlur stdDeviation="2"/>
<feColorMatrix type="matrix" values="0 0 0 0 0 0 0 0 0 0 0 0 0 0 0 0 0 0 0.4 0"/>
<feBlend mode="normal" in2="BackgroundImageFix" result="effect1_dropShadow"/>
<feBlend mode="normal" in="SourceGraphic" in2="effect1_dropShadow" result="shape"/>
</filter>
</defs>
</svg>
