<svg width="567" height="363" viewBox="0 0 567 363" fill="none" xmlns="http://www.w3.org/2000/svg">
<g clip-path="url(#clip0)">
<path d="M382.241 159.759H0V0H382.241V159.759ZM1.16318 158.572H381.078V1.18648H1.16318V158.572Z" fill="#3F3D56"/>
<path d="M53.988 60.8883H29.9663C28.327 51.2217 28.327 41.3398 29.9663 31.6732H53.988C51.2817 41.2159 51.2817 51.3455 53.988 60.8883Z" fill="#FF6584"/>
<path d="M74.7842 73.3331H98.8059C100.445 63.6665 100.445 53.7846 98.8059 44.118H74.7842C77.4904 53.6608 77.4904 63.7904 74.7842 73.3331Z" fill="#E6E6E6"/>
<path d="M229.802 79.3066H262.444C262.671 79.2986 262.885 79.2013 263.042 79.0353C263.199 78.8693 263.287 78.6475 263.287 78.4167C263.287 78.1859 263.199 77.9641 263.042 77.7981C262.885 77.6321 262.671 77.5348 262.444 77.5269H229.802C229.576 77.5348 229.362 77.6321 229.205 77.7981C229.047 77.9641 228.959 78.1859 228.959 78.4167C228.959 78.6475 229.047 78.8693 229.205 79.0353C229.362 79.2013 229.576 79.2986 229.802 79.3066Z" fill="#E6E6E6"/>
<path d="M261.596 70.9114L266.696 75.6597C267.279 76.2027 268.883 77.3238 269.246 78.0338C269.995 79.5018 269.19 79.1669 267.906 79.6756C264.751 80.9562 261.844 82.7976 259.32 85.1141C258.476 85.8729 259.713 87.1276 260.553 86.3726C262.856 84.262 265.501 82.5765 268.37 81.3917C269.399 80.9766 271.351 80.7335 271.839 79.4834C272.438 77.9535 270.532 76.8245 269.63 75.984L262.83 69.6529C262.002 68.8821 260.764 70.1372 261.596 70.9114L261.596 70.9114Z" fill="#E6E6E6"/>
<path d="M46.8679 115.453H70.8896C72.5289 105.786 72.5289 95.9045 70.8896 86.2379H46.8679C49.5742 95.7806 49.5742 105.91 46.8679 115.453Z" fill="#FA885E"/>
<path d="M233.558 58.502H257.58C259.219 48.8355 259.219 38.9536 257.58 29.287H233.558C236.264 38.8297 236.264 48.9593 233.558 58.502Z" fill="#FA885E"/>
<path d="M157.509 106.506V34.399L151.111 32.9443V113.032L199.383 112.528L199.22 106.071L157.509 106.506Z" fill="#F2F2F2"/>
<path d="M205.199 119.054H147.04V23.5422H205.199V119.054ZM148.203 117.867H204.036V24.7287H148.203V117.867Z" fill="#3F3D56"/>
<path d="M161.694 29.4746H152.274V30.6611H161.694V29.4746Z" fill="#3F3D56"/>
<path d="M161.694 32.4408H152.274V33.6273H161.694V32.4408Z" fill="#3F3D56"/>
<path d="M161.694 35.407H152.274V36.5935H161.694V35.407Z" fill="#3F3D56"/>
<path d="M197.171 86.4255H156.927V87.612H197.171V86.4255Z" fill="#3F3D56"/>
<path d="M197.171 92.9512H156.927V94.1376H197.171V92.9512Z" fill="#3F3D56"/>
<path d="M197.171 99.4768H156.927V100.663H197.171V99.4768Z" fill="#3F3D56"/>
<path d="M196.475 37.1867C195.67 37.1867 194.883 36.9431 194.214 36.4868C193.544 36.0305 193.022 35.382 192.714 34.6232C192.406 33.8644 192.325 33.0294 192.483 32.2239C192.64 31.4183 193.027 30.6784 193.597 30.0976C194.166 29.5169 194.891 29.1214 195.681 28.9611C196.471 28.8009 197.289 28.8831 198.033 29.1975C198.777 29.5118 199.413 30.044 199.86 30.7269C200.308 31.4098 200.547 32.2127 200.547 33.034C200.545 34.135 200.116 35.1905 199.353 35.969C198.59 36.7476 197.555 37.1855 196.475 37.1867ZM196.475 30.0678C195.9 30.0678 195.338 30.2418 194.86 30.5677C194.382 30.8936 194.009 31.3569 193.789 31.8989C193.569 32.4409 193.511 33.0373 193.623 33.6127C193.736 34.1881 194.013 34.7166 194.419 35.1314C194.826 35.5463 195.344 35.8288 195.908 35.9432C196.472 36.0577 197.057 35.9989 197.588 35.7744C198.12 35.5499 198.574 35.1697 198.893 34.6819C199.213 34.1942 199.383 33.6207 199.383 33.034C199.382 32.2476 199.076 31.4937 198.531 30.9376C197.986 30.3815 197.246 30.0687 196.475 30.0678Z" fill="#3F3D56"/>
<path d="M197.638 72.7811H156.346V45.4921H197.638V72.7811ZM157.509 71.5946H196.475V46.6785H157.509V71.5946Z" fill="#3F3D56"/>
<path d="M157.241 45.5852L156.616 46.5857L196.746 72.6884L197.371 71.6879L157.241 45.5852Z" fill="#3F3D56"/>
<path d="M196.744 45.5852L156.614 71.6873L157.24 72.6877L197.37 46.5857L196.744 45.5852Z" fill="#3F3D56"/>
<path d="M305.232 106.506V34.399L298.834 32.9443V113.032L347.106 112.528L346.943 106.071L305.232 106.506Z" fill="#F2F2F2"/>
<path d="M353.504 117.867H295.345V22.3557H353.504V117.867ZM296.508 116.681H352.341V23.5422H296.508V116.681Z" fill="#3F3D56"/>
<path d="M309.999 28.2881H300.58V29.4746H309.999V28.2881Z" fill="#3F3D56"/>
<path d="M309.999 31.2543H300.58V32.4408H309.999V31.2543Z" fill="#3F3D56"/>
<path d="M309.999 34.2206H300.58V35.4071H309.999V34.2206Z" fill="#3F3D56"/>
<path d="M344.78 36.0003C343.975 36.0003 343.188 35.7567 342.518 35.3004C341.849 34.8441 341.327 34.1956 341.019 33.4368C340.711 32.678 340.63 31.843 340.787 31.0375C340.944 30.2319 341.332 29.492 341.901 28.9112C342.471 28.3305 343.196 27.935 343.986 27.7747C344.776 27.6145 345.594 27.6967 346.338 28.0111C347.082 28.3254 347.718 28.8576 348.165 29.5405C348.613 30.2234 348.851 31.0263 348.851 31.8476C348.85 32.9486 348.421 34.0041 347.658 34.7826C346.894 35.5612 345.859 35.9991 344.78 36.0003ZM344.78 28.8814C344.205 28.8814 343.643 29.0554 343.165 29.3813C342.686 29.7072 342.314 30.1705 342.094 30.7125C341.873 31.2545 341.816 31.8509 341.928 32.4263C342.04 33.0017 342.317 33.5302 342.724 33.945C343.131 34.3599 343.649 34.6424 344.213 34.7568C344.777 34.8713 345.362 34.8125 345.893 34.588C346.424 34.3635 346.878 33.9833 347.198 33.4955C347.518 33.0078 347.688 32.4343 347.688 31.8476C347.687 31.0612 347.381 30.3073 346.835 29.7512C346.29 29.1951 345.551 28.8823 344.78 28.8814Z" fill="#3F3D56"/>
<path d="M345.943 71.5945H304.651V44.3055H345.943V71.5945ZM305.814 70.4081H344.78V45.492H305.814V70.4081Z" fill="#3F3D56"/>
<path d="M305.545 44.3986L304.919 45.399L345.049 71.5016L345.674 70.5011L305.545 44.3986Z" fill="#3F3D56"/>
<path d="M345.051 44.4008L304.918 70.4987L305.544 71.4992L345.676 45.4013L345.051 44.4008Z" fill="#3F3D56"/>
<path d="M345.943 107.189H304.651V79.8999H345.943V107.189ZM305.814 106.002H344.78V81.0864H305.814V106.002Z" fill="#3F3D56"/>
<path d="M305.545 79.993L304.919 80.9934L345.049 107.096L345.674 106.095L305.545 79.993Z" fill="#3F3D56"/>
<path d="M345.051 79.9951L304.918 106.093L305.544 107.094L345.676 80.9956L345.051 79.9951Z" fill="#3F3D56"/>
<path d="M167.257 137.403H191.279C192.918 127.736 192.918 117.854 191.279 108.188H167.257C169.963 117.73 169.963 127.86 167.257 137.403Z" fill="#FA885E"/>
<path d="M464.955 132.819C473.204 128.22 476.235 117.671 471.726 109.257C467.217 100.844 456.876 97.7518 448.627 102.351C440.379 106.95 437.348 117.499 441.857 125.913C446.366 134.326 456.707 137.418 464.955 132.819Z" fill="#FFB8B8"/>
<path d="M483.475 111.387C491.791 111.387 498.533 104.511 498.533 96.0279C498.533 87.5452 491.791 80.6687 483.475 80.6687C475.159 80.6687 468.418 87.5452 468.418 96.0279C468.418 104.511 475.159 111.387 483.475 111.387Z" fill="#2F2E41"/>
<path d="M496.463 108.746C494.514 110.183 492.256 111.123 489.878 111.487C487.5 111.851 485.072 111.629 482.795 110.84C480.518 110.05 478.46 108.716 476.793 106.948C475.125 105.181 473.897 103.032 473.21 100.681C473.47 102.788 474.155 104.817 475.223 106.64C476.29 108.463 477.716 110.04 479.411 111.273C481.106 112.505 483.033 113.366 485.071 113.8C487.108 114.234 489.212 114.233 491.249 113.796C493.286 113.359 495.212 112.497 496.906 111.262C498.6 110.028 500.024 108.448 501.089 106.624C502.154 104.8 502.837 102.77 503.094 100.663C503.351 98.5562 503.178 96.4177 502.584 94.3827C502.921 97.1168 502.531 99.8931 501.454 102.42C500.377 104.948 498.653 107.133 496.463 108.746Z" fill="#2F2E41"/>
<path d="M437.04 108.763C439.668 103.963 440.674 101.958 444.063 99.0388C447.061 96.4572 450.747 95.6991 453.721 98.1452C457.239 96.5948 461.153 96.2433 464.882 97.1428C468.611 98.0422 471.956 100.145 474.421 103.138C476.885 106.131 478.337 109.855 478.561 113.758C478.786 117.66 477.77 121.531 475.665 124.798C473.56 128.064 470.478 130.551 466.878 131.888C463.277 133.226 459.349 133.343 455.678 132.222C452.007 131.101 448.788 128.803 446.5 125.667C444.212 122.532 442.976 118.727 442.976 114.819C442.979 114.132 443.019 113.447 443.097 112.765C440.513 112.394 439.624 109.134 437.04 108.763Z" fill="#2F2E41"/>
<path d="M415.573 354.583L407.788 352.277L412.805 320.55L424.295 323.954L415.573 354.583Z" fill="#FFB8B8"/>
<path d="M401.734 348.023L417.887 352.809L415.141 362.451L390.674 355.202L391.005 354.04C391.322 352.926 391.851 351.887 392.562 350.982C393.273 350.077 394.151 349.324 395.148 348.765C396.144 348.206 397.239 347.853 398.369 347.726C399.499 347.598 400.642 347.699 401.734 348.023Z" fill="#2F2E41"/>
<path d="M496.025 354.773L487.918 354.772L484.062 322.877L496.026 322.877L496.025 354.773Z" fill="#FFB8B8"/>
<path d="M480.942 352.409H497.762V362.451H472.284V361.241C472.284 360.081 472.508 358.933 472.943 357.861C473.378 356.79 474.016 355.816 474.82 354.996C475.624 354.176 476.578 353.525 477.628 353.082C478.679 352.638 479.805 352.409 480.942 352.409Z" fill="#2F2E41"/>
<path d="M476.951 243.743C476.332 242.978 475.886 242.084 475.642 241.124C475.399 240.164 475.365 239.161 475.543 238.186C475.721 237.211 476.107 236.288 476.672 235.482C477.238 234.675 477.97 234.005 478.816 233.518L474.607 209.801L485.898 214.723L488.164 236.491C488.872 237.996 489.013 239.714 488.562 241.319C488.11 242.924 487.097 244.304 485.715 245.197C484.333 246.091 482.677 246.437 481.062 246.169C479.447 245.901 477.984 245.037 476.951 243.743V243.743Z" fill="#FFB8B8"/>
<path d="M483.004 186.957L469.757 145.936C469.48 145.465 466.183 140.171 459.003 142.423C458.21 142.651 457.472 143.042 456.834 143.573C456.196 144.103 455.672 144.762 455.294 145.508C453.192 149.618 455.152 155.968 455.161 156.002L471.471 193.281L471.488 193.32L476.635 231.605L487.753 229.302L483.004 186.957Z" fill="#FA885E"/>
<path d="M394.954 338.713L414.893 276.347L438.012 222.445L437.679 196.303L465.113 189.778L468.308 200.734C486.785 213.17 480.698 237.092 480.264 238.695L508.104 343.497L477.748 346.937L457.372 247.709L438.58 288.029L425.293 348.34L394.954 338.713Z" fill="#2F2E41"/>
<path d="M435.701 174.358C430.247 163.693 434.19 159.632 440.154 153.489C442.591 151.063 444.878 148.484 447.001 145.768C456.304 133.567 467.102 139.56 467.21 139.622L467.271 139.657L469.939 143.738C478.73 152.763 465.398 177.563 464.386 179.41L465.054 197.144L436.703 199.898L435.701 174.358Z" fill="#FA885E"/>
<path d="M446.503 242.82C446.094 241.92 445.884 240.94 445.887 239.948C445.89 238.957 446.106 237.978 446.52 237.081C446.934 236.184 447.535 235.39 448.282 234.756C449.03 234.121 449.904 233.662 450.844 233.409L452.655 209.377L462.357 217.054L459.151 238.698C459.461 240.337 459.172 242.036 458.337 243.472C457.503 244.907 456.18 245.981 454.621 246.489C453.062 246.997 451.375 246.904 449.879 246.228C448.382 245.552 447.181 244.339 446.503 242.82Z" fill="#FFB8B8"/>
<path d="M448.558 231.553L453.138 192.641L446.609 152.375C446.594 152.092 446.269 145.415 449.486 141.795C450.087 141.112 450.82 140.561 451.639 140.179C452.458 139.796 453.346 139.59 454.246 139.572C462.403 139.208 464.354 146.14 464.372 146.21L467.029 189.467L461.036 232.26L448.558 231.553Z" fill="#FA885E"/>
<path d="M344.833 363H566.418C566.573 363 566.721 362.937 566.83 362.826C566.939 362.715 567 362.564 567 362.407C567 362.249 566.939 362.098 566.83 361.987C566.721 361.876 566.573 361.813 566.418 361.813H344.833C344.679 361.813 344.531 361.876 344.422 361.987C344.313 362.098 344.252 362.249 344.252 362.407C344.252 362.564 344.313 362.715 344.422 362.826C344.531 362.937 344.679 363 344.833 363Z" fill="#CCCCCC"/>
</g>
<defs>
<clipPath id="clip0">
<rect width="567" height="363" fill="white"/>
</clipPath>
</defs>
</svg>
