<svg width="568" height="329" viewBox="0 0 568 329" fill="none" xmlns="http://www.w3.org/2000/svg">
<g clip-path="url(#clip0)">
<path d="M568 237.034H425.26V238.221H568V237.034Z" fill="#3F3D56"/>
<path d="M457.091 226.373L461.237 248.326L470.122 250.699L467.752 224.593L457.091 226.373Z" fill="#A0616A"/>
<path d="M506.843 226.373L510.989 248.326L519.873 250.699L517.504 224.593L506.843 226.373Z" fill="#A0616A"/>
<path d="M466.568 244.173C466.568 244.173 457.091 243.58 457.091 246.546C457.091 249.513 452.353 259.599 452.353 259.599C452.353 259.599 448.799 271.466 458.276 270.279C467.753 269.093 473.675 258.413 473.675 258.413L471.306 247.14L466.568 244.173Z" fill="#2F2E41"/>
<path d="M514.033 245.267C514.033 245.267 507.712 241.196 508.163 243.91C508.615 246.624 509.066 253.861 512.227 254.313C515.388 254.765 524.869 257.479 525.321 258.384C525.772 259.288 536.609 262.907 536.609 257.027C536.609 251.147 529.836 246.624 529.836 246.624L522.16 240.744C522.16 240.744 517.194 240.291 516.291 243.457C515.388 246.624 514.033 245.267 514.033 245.267Z" fill="#2F2E41"/>
<path d="M453.985 101.459C453.985 101.459 443.917 86.6258 440.363 91.3725C436.809 96.1191 449.247 105.019 449.247 105.019L453.985 101.459Z" fill="#A0616A"/>
<path d="M457.539 115.699C456.947 115.105 446.286 105.019 446.286 105.019L453.985 99.679L462.87 108.579L457.539 115.699Z" fill="#575A89"/>
<path d="M459.02 69.7159C459.02 69.7159 451.32 70.3093 451.912 76.8359C452.505 83.3625 457.539 105.019 457.539 105.019L460.5 110.952C460.5 110.952 471.458 76.8359 459.02 69.7159Z" fill="#575A89"/>
<path d="M459.612 48.9495L461.744 56.0694H488.456L489.226 48.3562L491.536 56.0694H494.971L495.741 48.3562L498.051 56.0694H501.664L498.267 47.8715C496.689 43.9525 495.49 39.891 494.686 35.7426C493.626 30.5913 490.825 25.9638 486.756 22.6411C482.686 19.3183 477.596 17.5036 472.346 17.5032C472.031 17.5032 471.718 17.5095 471.406 17.5222C456.434 18.1303 446.846 33.8366 452.59 47.7003L456.058 56.0694H458.901L459.612 48.9495Z" fill="#2F2E41"/>
<path d="M459.316 110.952C459.316 110.952 440.955 126.379 446.286 147.145C451.616 167.912 453.393 233.178 453.393 233.178L471.754 231.398V149.518L497.222 198.171L501.368 233.178L522.098 229.618L512.622 186.898L494.398 132.444L492.484 116.734L459.316 110.952Z" fill="#2F2E41"/>
<path d="M472.05 49.5428C478.919 49.5428 484.488 43.9643 484.488 37.0829C484.488 30.2015 478.919 24.623 472.05 24.623C465.181 24.623 459.612 30.2015 459.612 37.0829C459.612 43.9643 465.181 49.5428 472.05 49.5428Z" fill="#A0616A"/>
<path d="M464.646 45.6862C464.646 45.6862 469.977 65.266 467.016 67.6393C464.054 70.0127 487.746 59.9261 487.746 59.9261C487.746 59.9261 477.677 48.6529 478.861 43.9062L464.646 45.6862Z" fill="#A0616A"/>
<path d="M486.561 55.7728C486.561 55.7728 477.078 63.9442 467.901 64.6051C467.901 64.6051 455.762 71.1993 456.354 71.7926C456.947 72.386 458.724 80.6926 458.724 80.6926C458.724 80.6926 461.685 85.2737 461.685 94.9324C461.685 96.1191 457.539 112.732 457.539 112.732L492.484 117.479C492.484 117.479 501.96 86.6258 502.553 75.9459C503.145 65.266 506.699 53.9928 501.368 53.3995C496.037 52.8062 486.561 55.7728 486.561 55.7728Z" fill="#575A89"/>
<path d="M500.184 55.7727C500.184 55.7727 504.33 52.2128 506.699 60.5194C509.068 68.8259 518.544 94.9323 516.175 100.272C513.806 105.612 499.591 129.345 499.591 129.345L492.484 124.599L506.699 97.899L498.407 78.9125L500.184 55.7727Z" fill="#575A89"/>
<path d="M495.445 124.005C495.445 124.005 477.084 135.279 483.007 137.652C488.93 140.025 498.999 127.565 498.999 127.565L495.445 124.005Z" fill="#A0616A"/>
<path d="M458.427 22.8431V35.303H463.166L464.943 29.9631L465.387 35.303H478.565L480.342 29.9631L480.786 35.303H486.265V22.8431H458.427Z" fill="#2F2E41"/>
<path opacity="0.2" d="M458.428 81.5825C458.428 81.5825 457.243 93.4491 459.02 95.8224C460.797 98.1957 458.428 81.5825 458.428 81.5825Z" fill="black"/>
<path d="M355.963 288.654H104.834V289.84H355.963V288.654Z" fill="#3F3D56"/>
<path d="M340.687 198.533L267.825 271.524C256.686 282.682 241.578 288.95 225.826 288.95C210.073 288.95 194.966 282.682 183.827 271.524C182.844 270.54 181.896 269.525 180.996 268.481C179.512 266.784 178.13 265.001 176.856 263.141C172.183 256.369 168.986 248.686 167.474 240.594C167.136 238.832 166.882 237.052 166.71 235.254C166.526 233.338 166.434 231.404 166.432 229.452C166.427 223.993 167.168 218.559 168.635 213.301C169.138 211.492 169.729 209.712 170.406 207.961C173.397 200.238 177.969 193.226 183.827 187.379L215.615 155.535C217.281 153.866 219.54 152.929 221.896 152.929C224.252 152.929 226.511 153.866 228.177 155.535C229.843 157.204 230.779 159.467 230.779 161.827C230.779 164.187 229.843 166.451 228.177 168.119L196.389 199.963C193.987 202.366 191.885 205.051 190.129 207.961C186.228 214.447 184.178 221.88 184.2 229.452C184.201 231.393 184.333 233.331 184.597 235.254C184.844 237.057 185.212 238.841 185.699 240.594C187.639 247.623 191.386 254.019 196.566 259.144C201.745 264.268 208.176 267.942 215.216 269.799C222.256 271.655 229.659 271.63 236.686 269.724C243.713 267.819 250.118 264.1 255.262 258.94L273.576 240.594L306.151 207.961L328.125 185.949C335.034 179.009 339.287 169.855 340.139 160.091C340.991 150.327 338.388 140.574 332.786 132.538C331.467 130.6 330.965 128.22 331.387 125.914C331.81 123.608 333.123 121.561 335.043 120.22C336.963 118.878 339.333 118.349 341.64 118.748C343.947 119.147 346.003 120.441 347.362 122.35C355.345 133.817 359.05 147.729 357.83 161.656C356.609 175.582 350.542 188.635 340.687 198.533Z" fill="#3F3D56"/>
<path d="M454.874 59.4988C454.874 59.9379 454.868 60.3769 454.856 60.816C454.703 68.5829 453.027 76.2438 449.922 83.3624C449.127 85.1875 448.237 86.9699 447.257 88.7024C444.596 93.4169 441.306 97.7464 437.478 101.572L405.69 133.416C404.024 135.08 401.766 136.015 399.412 136.013C397.058 136.011 394.801 135.074 393.137 133.407C391.473 131.739 390.537 129.479 390.535 127.121C390.534 124.763 391.466 122.501 393.128 120.831L424.916 88.9872C425.011 88.8923 425.106 88.7973 425.194 88.7024C432.53 81.2441 436.776 71.2817 437.082 60.816C437.099 60.3769 437.105 59.9379 437.105 59.4988C437.105 58.146 437.042 56.8051 436.916 55.4761C435.988 45.8495 431.746 36.8462 424.916 30.0105C424.282 29.3756 423.637 28.7645 422.967 28.183C415.369 21.4908 405.597 17.7998 395.479 17.7998C385.362 17.7998 375.59 21.4908 367.992 28.183C367.322 28.7645 366.677 29.3756 366.043 30.0105L293.18 103.002C285.386 110.829 281.009 121.434 281.009 132.49C281.009 143.546 285.386 154.151 293.18 161.978C294.846 163.647 295.782 165.91 295.782 168.271C295.782 170.631 294.846 172.894 293.18 174.563C291.514 176.232 289.255 177.169 286.899 177.169C284.543 177.169 282.284 176.232 280.618 174.563C269.496 163.396 263.249 148.265 263.249 132.49C263.249 116.715 269.496 101.584 280.618 90.4171L353.481 17.426C359.82 11.089 367.506 6.26836 375.965 3.32395C384.424 0.379531 393.439 -0.612572 402.334 0.421698C411.23 1.45597 419.777 4.48989 427.339 9.29696C434.9 14.104 441.28 20.5601 446.001 28.183C447.077 29.9092 448.059 31.6917 448.945 33.523C452.277 40.3959 454.244 47.8517 454.737 55.4761C454.826 56.8111 454.872 58.152 454.874 59.4988Z" fill="#3F3D56"/>
<path d="M74.2224 312.485C71.5091 322.533 62.2155 328.756 62.2155 328.756C62.2155 328.756 57.3209 318.688 60.0342 308.64C62.7475 298.593 72.0412 292.37 72.0412 292.37C72.0412 292.37 76.9357 302.438 74.2224 312.485Z" fill="#FA885E"/>
<path d="M49.5389 312.485C52.2522 322.533 61.5458 328.756 61.5458 328.756C61.5458 328.756 66.4404 318.688 63.7271 308.64C61.0138 298.593 51.7201 292.37 51.7201 292.37C51.7201 292.37 46.8256 302.438 49.5389 312.485Z" fill="#FA885E"/>
<path d="M53.5259 310.326C60.9713 317.586 61.8807 328.747 61.8807 328.747C61.8807 328.747 50.7188 328.137 43.2734 320.876C35.8281 313.616 34.9187 302.455 34.9187 302.455C34.9187 302.455 46.0806 303.065 53.5259 310.326Z" fill="#3F3D56"/>
<path d="M70.2354 310.326C62.79 317.586 61.8806 328.747 61.8806 328.747C61.8806 328.747 73.0425 328.137 80.4879 320.876C87.9332 313.616 88.8426 302.455 88.8426 302.455C88.8426 302.455 77.6807 303.065 70.2354 310.326Z" fill="#3F3D56"/>
<path d="M404.53 58.4428C404.53 59.2398 404.45 60.0348 404.293 60.8161C403.746 63.4961 402.292 65.9048 400.177 67.6346C398.062 69.3645 395.415 70.3093 392.684 70.3093C389.953 70.3093 387.307 69.3645 385.191 67.6346C383.076 65.9048 381.622 63.4961 381.075 60.8161C380.719 59.0485 380.765 57.2231 381.212 55.4761C381.93 52.6769 383.644 50.2365 386.031 48.6131C388.418 46.9897 391.314 46.2949 394.176 46.659C397.039 47.0232 399.67 48.4213 401.576 50.5909C403.482 52.7605 404.533 55.5525 404.53 58.4428Z" fill="#3F3D56"/>
<path d="M229.806 238.221C229.806 239.018 229.727 239.813 229.569 240.594C229.023 243.274 227.569 245.683 225.453 247.413C223.338 249.143 220.691 250.087 217.96 250.087C215.23 250.087 212.583 249.143 210.468 247.413C208.352 245.683 206.898 243.274 206.352 240.594C205.995 238.827 206.042 237.001 206.488 235.254C207.206 232.455 208.92 230.015 211.307 228.391C213.694 226.768 216.591 226.073 219.453 226.437C222.315 226.801 224.946 228.199 226.852 230.369C228.759 232.539 229.809 235.331 229.806 238.221Z" fill="#3F3D56"/>
<path d="M136.818 327.813H0V329H136.818V327.813Z" fill="#3F3D56"/>
<path d="M342.743 28.183H367.992C367.322 28.7644 366.677 29.3756 366.043 30.0104L362.537 33.5229H337.412L342.743 28.183Z" fill="#FA885E"/>
<path d="M448.945 33.5229H428.049C427.072 32.2938 426.026 31.1211 424.916 30.0104C424.282 29.3756 423.637 28.7644 422.968 28.183H446.001C447.077 29.9092 448.059 31.6917 448.945 33.5229Z" fill="#FA885E"/>
<path d="M315.498 55.4762H340.622L335.292 60.8161H310.167L315.498 55.4762Z" fill="#FA885E"/>
<path d="M404.157 55.4762C404.603 57.2232 404.649 59.0486 404.293 60.8161H381.075C380.719 59.0486 380.765 57.2232 381.212 55.4762H404.157Z" fill="#FA885E"/>
<path d="M454.874 59.499C454.874 59.938 454.868 60.3771 454.856 60.8161H437.082C437.099 60.3771 437.105 59.938 437.105 59.499C437.105 58.1462 437.042 56.8052 436.916 55.4762H454.738C454.826 56.8112 454.872 58.1521 454.874 59.499Z" fill="#FA885E"/>
<path d="M287.66 83.3624H312.785L307.455 88.7024H282.33L287.66 83.3624Z" fill="#FA885E"/>
<path d="M449.922 83.3624C449.127 85.1875 448.237 86.9699 447.257 88.7024H425.194C426.821 87.0507 428.305 85.2644 429.631 83.3624H449.922Z" fill="#FA885E"/>
<path d="M190.129 207.961C189.099 209.673 188.195 211.458 187.422 213.301H168.635C169.138 211.491 169.729 209.711 170.406 207.961H190.129Z" fill="#FA885E"/>
<path d="M331.276 207.961L325.946 213.301H300.821L306.152 207.961H331.276Z" fill="#FA885E"/>
<path d="M185.699 240.594H167.474C167.136 238.832 166.882 237.052 166.71 235.254H184.597C184.844 237.057 185.212 238.841 185.699 240.594Z" fill="#FA885E"/>
<path d="M229.806 238.221C229.806 239.018 229.727 239.813 229.569 240.594H206.352C205.995 238.827 206.042 237.001 206.488 235.254H229.433C229.681 236.224 229.806 237.22 229.806 238.221Z" fill="#FA885E"/>
<path d="M304.031 235.254L298.701 240.594H273.576L278.906 235.254H304.031Z" fill="#FA885E"/>
<path d="M211.114 268.481H180.996C179.513 266.784 178.13 265 176.856 263.141H201.282C204.302 265.36 207.609 267.156 211.114 268.481Z" fill="#FA885E"/>
<path d="M276.194 263.141L270.863 268.481H240.538C244.043 267.156 247.35 265.36 250.37 263.141H276.194Z" fill="#FA885E"/>
<path d="M186.921 100.708C182.393 93.0432 173.434 92.686 173.434 92.686C173.434 92.686 164.704 91.5677 159.104 103.241C153.884 114.122 146.68 124.628 157.944 127.175L159.979 120.831L161.239 127.647C162.843 127.763 164.452 127.79 166.058 127.73C178.121 127.339 189.609 127.844 189.239 123.507C188.747 117.743 191.278 108.083 186.921 100.708Z" fill="#2F2E41"/>
<path d="M154.29 269.964L154.882 285.391H165.543L164.951 268.777L154.29 269.964Z" fill="#FBBEBE"/>
<path d="M183.312 160.792L182.234 164.381L168.268 210.857L166.728 215.971L167.912 270.557L153.105 272.337C153.105 272.337 152.673 266.606 152.039 258.145C150.766 241.389 148.681 213.912 147.473 198.96C147.028 193.431 146.709 189.616 146.59 188.678C145.998 183.931 153.698 160.198 153.698 160.198L169.097 159.012L183.312 160.792Z" fill="#2F2E41"/>
<path d="M157.844 283.61C157.844 283.61 153.698 278.864 153.105 282.424C152.513 285.984 145.406 299.63 145.406 299.63C145.406 299.63 124.676 313.277 142.444 314.464C142.444 314.464 151.329 313.277 154.29 308.53C154.29 308.53 159.028 305.564 160.213 305.564C161.397 305.564 168.505 303.19 167.32 299.63C166.136 296.07 166.728 283.017 166.728 283.017L157.844 283.61Z" fill="#2F2E41"/>
<path d="M157.251 255.724L162.582 265.811L170.874 261.657L165.543 249.791L157.251 255.724Z" fill="#FBBEBE"/>
<path opacity="0.2" d="M153.105 226.651C153.105 226.651 148.687 216.98 147.479 202.028C156.055 192.428 166.432 181.855 166.432 181.855L178.87 181.262L182.719 180.965C183.62 189.983 176.003 201.601 168.268 210.857C163.567 216.451 158.502 221.727 153.105 226.651Z" fill="black"/>
<path d="M168.505 181.558C168.505 181.558 130.599 214.785 135.929 228.431C141.26 242.078 156.067 258.691 156.067 258.691L167.506 251.851L156.659 226.651C156.659 226.651 161.207 222.611 166.742 216.625C175.75 206.884 187.374 191.99 186.273 180.965L185.681 160.792L175.612 161.978L168.505 181.558Z" fill="#2F2E41"/>
<path d="M164.951 263.437C164.951 263.437 160.805 263.437 161.397 266.997C161.99 270.557 163.174 276.491 163.174 276.491C163.174 276.491 158.436 304.377 169.689 297.85C180.943 291.324 177.981 274.117 177.981 274.117C177.981 274.117 182.127 263.437 176.797 262.251C171.466 261.064 169.689 259.877 169.097 260.471C168.505 261.064 164.951 263.437 164.951 263.437Z" fill="#2F2E41"/>
<path d="M173.243 118.072C179.131 118.072 183.904 113.291 183.904 107.392C183.904 101.494 179.131 96.7123 173.243 96.7123C167.355 96.7123 162.582 101.494 162.582 107.392C162.582 113.291 167.355 118.072 173.243 118.072Z" fill="#FBBEBE"/>
<path d="M169.097 111.546C169.097 111.546 173.835 124.005 172.058 124.599C170.281 125.192 166.728 128.159 166.728 128.159L172.651 133.499L188.05 125.192C188.05 125.192 180.943 115.699 181.535 111.546H169.097Z" fill="#FBBEBE"/>
<path d="M188.05 122.819C188.05 122.819 175.657 128.939 171.192 124.989C171.192 124.989 163.766 124.599 162.582 128.752C161.397 132.905 163.766 136.465 160.805 137.652C157.844 138.839 155.771 142.102 157.547 147.442C159.324 152.782 159.028 153.672 156.659 155.452C154.29 157.232 151.921 160.792 151.921 161.978C151.921 163.165 149.552 163.165 150.736 164.352C151.921 165.538 149.552 164.352 151.921 165.538C154.29 166.725 160.805 156.045 165.543 161.385C170.282 166.725 185.089 175.625 186.273 170.285C187.458 164.945 191.012 151.892 191.012 151.892C191.012 151.892 203.449 128.752 199.896 126.379C196.342 124.005 188.05 122.819 188.05 122.819Z" fill="#CFCCE0"/>
<path d="M186.273 164.352C186.273 164.352 179.758 163.165 177.981 167.318C176.204 171.472 166.136 180.965 172.651 181.558C179.166 182.151 183.904 171.472 183.904 171.472L190.419 170.285L186.273 164.352Z" fill="#FBBEBE"/>
<path d="M192.788 126.379L200.534 126.811C200.534 126.811 204.042 130.532 204.634 134.092C205.226 137.652 216.48 164.352 209.372 167.318C202.265 170.285 186.865 172.065 186.865 172.065L185.089 163.758L195.157 160.198L188.05 145.365L192.788 126.379Z" fill="#CFCCE0"/>
<path opacity="0.2" d="M157.547 226.948L167.29 251.347L155.771 226.948L165.839 216.268L157.547 226.948Z" fill="black"/>
<path opacity="0.2" d="M151.709 253.805L155.771 258.987H152.809L151.709 253.805Z" fill="black"/>
<path d="M174.531 99.2141C178.108 99.2141 181.008 96.3088 181.008 92.7249C181.008 89.1411 178.108 86.2358 174.531 86.2358C170.953 86.2358 168.053 89.1411 168.053 92.7249C168.053 96.3088 170.953 99.2141 174.531 99.2141Z" fill="#2F2E41"/>
<path d="M167.371 91.0172C167.371 89.4145 167.963 87.8686 169.034 86.6772C170.104 85.4859 171.576 84.7333 173.167 84.5646C172.94 84.5405 172.713 84.5283 172.485 84.5281C171.634 84.5273 170.791 84.6945 170.004 85.0203C169.218 85.346 168.503 85.8239 167.901 86.4265C167.299 87.0292 166.821 87.7448 166.495 88.5325C166.169 89.3202 166.001 90.1645 166.001 91.0172C166.001 91.8699 166.169 92.7142 166.495 93.5019C166.821 94.2896 167.299 95.0052 167.901 95.6079C168.503 96.2105 169.218 96.6884 170.004 97.0141C170.791 97.3399 171.634 97.5071 172.485 97.5063C172.713 97.506 172.94 97.4938 173.167 97.4698C171.576 97.3011 170.104 96.5485 169.034 95.3571C167.963 94.1658 167.371 92.6199 167.371 91.0172Z" fill="#2F2E41"/>
<path d="M184.919 99.969L176.068 95.3251L163.846 97.2249L161.317 108.413L167.612 108.171L169.371 104.06V108.103L172.275 107.991L173.961 101.447L175.015 108.413L185.34 108.202L184.919 99.969Z" fill="#2F2E41"/>
</g>
<defs>
<clipPath id="clip0">
<rect width="568" height="329" fill="white"/>
</clipPath>
</defs>
</svg>
