<svg width="576" height="337" viewBox="0 0 576 337" fill="none" xmlns="http://www.w3.org/2000/svg">
<g clip-path="url(#clip0)" filter="url(#filter0_d)">
<path d="M572 237.034H429.26V238.221H572V237.034Z" fill="#3F3D56"/>
<path d="M461.091 226.373L465.237 248.326L474.122 250.699L471.752 224.593L461.091 226.373Z" fill="#A0616A"/>
<path d="M510.843 226.373L514.989 248.326L523.873 250.699L521.504 224.593L510.843 226.373Z" fill="#A0616A"/>
<path d="M470.568 244.173C470.568 244.173 461.091 243.58 461.091 246.546C461.091 249.513 456.353 259.599 456.353 259.599C456.353 259.599 452.799 271.466 462.276 270.279C471.753 269.093 477.675 258.413 477.675 258.413L475.306 247.14L470.568 244.173Z" fill="#2F2E41"/>
<path d="M518.033 245.267C518.033 245.267 511.712 241.196 512.163 243.91C512.615 246.624 513.066 253.861 516.227 254.313C519.388 254.765 528.869 257.479 529.321 258.384C529.772 259.288 540.609 262.907 540.609 257.027C540.609 251.147 533.836 246.624 533.836 246.624L526.16 240.744C526.16 240.744 521.194 240.291 520.291 243.457C519.388 246.624 518.033 245.267 518.033 245.267Z" fill="#2F2E41"/>
<path d="M457.985 101.459C457.985 101.459 447.917 86.6258 444.363 91.3725C440.809 96.1191 453.247 105.019 453.247 105.019L457.985 101.459Z" fill="#A0616A"/>
<path d="M461.539 115.699C460.947 115.105 450.286 105.019 450.286 105.019L457.985 99.679L466.87 108.579L461.539 115.699Z" fill="#575A89"/>
<path d="M463.02 69.7159C463.02 69.7159 455.32 70.3093 455.912 76.8359C456.505 83.3625 461.539 105.019 461.539 105.019L464.5 110.952C464.5 110.952 475.458 76.8359 463.02 69.7159Z" fill="#575A89"/>
<path d="M463.612 48.9495L465.744 56.0694H492.456L493.226 48.3562L495.536 56.0694H498.971L499.741 48.3562L502.051 56.0694H505.664L502.267 47.8715C500.689 43.9525 499.49 39.891 498.686 35.7426C497.626 30.5913 494.825 25.9638 490.756 22.6411C486.686 19.3183 481.596 17.5036 476.346 17.5032C476.031 17.5032 475.718 17.5095 475.406 17.5222C460.434 18.1303 450.846 33.8366 456.59 47.7003L460.058 56.0694H462.901L463.612 48.9495Z" fill="#2F2E41"/>
<path d="M463.316 110.952C463.316 110.952 444.955 126.379 450.286 147.145C455.616 167.912 457.393 233.178 457.393 233.178L475.754 231.398V149.518L501.222 198.171L505.368 233.178L526.098 229.618L516.622 186.898L498.398 132.444L496.484 116.734L463.316 110.952Z" fill="#2F2E41"/>
<path d="M476.05 49.5428C482.919 49.5428 488.488 43.9643 488.488 37.0829C488.488 30.2015 482.919 24.623 476.05 24.623C469.181 24.623 463.612 30.2015 463.612 37.0829C463.612 43.9643 469.181 49.5428 476.05 49.5428Z" fill="#A0616A"/>
<path d="M468.646 45.6862C468.646 45.6862 473.977 65.266 471.016 67.6393C468.054 70.0127 491.746 59.9261 491.746 59.9261C491.746 59.9261 481.677 48.6529 482.861 43.9062L468.646 45.6862Z" fill="#A0616A"/>
<path d="M490.561 55.7728C490.561 55.7728 481.078 63.9442 471.901 64.6051C471.901 64.6051 459.762 71.1993 460.354 71.7926C460.947 72.386 462.724 80.6926 462.724 80.6926C462.724 80.6926 465.685 85.2737 465.685 94.9324C465.685 96.1191 461.539 112.732 461.539 112.732L496.484 117.479C496.484 117.479 505.96 86.6258 506.553 75.9459C507.145 65.266 510.699 53.9928 505.368 53.3995C500.037 52.8062 490.561 55.7728 490.561 55.7728Z" fill="#575A89"/>
<path d="M504.184 55.7727C504.184 55.7727 508.33 52.2128 510.699 60.5194C513.068 68.8259 522.544 94.9323 520.175 100.272C517.806 105.612 503.591 129.345 503.591 129.345L496.484 124.599L510.699 97.899L502.407 78.9125L504.184 55.7727Z" fill="#575A89"/>
<path d="M499.445 124.005C499.445 124.005 481.084 135.279 487.007 137.652C492.93 140.025 502.999 127.565 502.999 127.565L499.445 124.005Z" fill="#A0616A"/>
<path d="M462.427 22.8431V35.303H467.166L468.943 29.9631L469.387 35.303H482.565L484.342 29.9631L484.786 35.303H490.265V22.8431H462.427Z" fill="#2F2E41"/>
<path opacity="0.2" d="M462.428 81.5825C462.428 81.5825 461.243 93.4491 463.02 95.8224C464.797 98.1957 462.428 81.5825 462.428 81.5825Z" fill="black"/>
<path d="M359.963 288.654H108.834V289.84H359.963V288.654Z" fill="#3F3D56"/>
<path d="M344.687 198.533L271.825 271.524C260.686 282.682 245.578 288.95 229.826 288.95C214.073 288.95 198.966 282.682 187.827 271.524C186.844 270.54 185.896 269.525 184.996 268.481C183.512 266.784 182.13 265.001 180.856 263.141C176.183 256.369 172.986 248.686 171.474 240.594C171.136 238.832 170.882 237.052 170.71 235.254C170.526 233.338 170.434 231.404 170.432 229.452C170.427 223.993 171.168 218.559 172.635 213.301C173.138 211.492 173.729 209.712 174.406 207.961C177.397 200.238 181.969 193.226 187.827 187.379L219.615 155.535C221.281 153.866 223.54 152.929 225.896 152.929C228.252 152.929 230.511 153.866 232.177 155.535C233.843 157.204 234.779 159.467 234.779 161.827C234.779 164.187 233.843 166.451 232.177 168.119L200.389 199.963C197.987 202.366 195.885 205.051 194.129 207.961C190.228 214.447 188.178 221.88 188.2 229.452C188.201 231.393 188.333 233.331 188.597 235.254C188.844 237.057 189.212 238.841 189.699 240.594C191.639 247.623 195.386 254.019 200.566 259.144C205.745 264.268 212.176 267.942 219.216 269.799C226.256 271.655 233.659 271.63 240.686 269.724C247.713 267.819 254.118 264.1 259.262 258.94L277.576 240.594L310.151 207.961L332.125 185.949C339.034 179.009 343.287 169.855 344.139 160.091C344.991 150.327 342.388 140.574 336.786 132.538C335.467 130.6 334.965 128.22 335.387 125.914C335.81 123.608 337.123 121.561 339.043 120.22C340.963 118.878 343.333 118.349 345.64 118.748C347.947 119.147 350.003 120.441 351.362 122.35C359.345 133.817 363.05 147.729 361.83 161.656C360.609 175.582 354.542 188.635 344.687 198.533Z" fill="#3F3D56"/>
<path d="M458.874 59.4988C458.874 59.9379 458.868 60.3769 458.856 60.816C458.703 68.5829 457.027 76.2438 453.922 83.3624C453.127 85.1875 452.237 86.9699 451.257 88.7024C448.596 93.4169 445.306 97.7464 441.478 101.572L409.69 133.416C408.024 135.08 405.766 136.015 403.412 136.013C401.058 136.011 398.801 135.074 397.137 133.407C395.473 131.739 394.537 129.479 394.535 127.121C394.534 124.763 395.466 122.501 397.128 120.831L428.916 88.9872C429.011 88.8923 429.106 88.7973 429.194 88.7024C436.53 81.2441 440.776 71.2817 441.082 60.816C441.099 60.3769 441.105 59.9379 441.105 59.4988C441.105 58.146 441.042 56.8051 440.916 55.4761C439.988 45.8495 435.746 36.8462 428.916 30.0105C428.282 29.3756 427.637 28.7645 426.967 28.183C419.369 21.4908 409.597 17.7998 399.479 17.7998C389.362 17.7998 379.59 21.4908 371.992 28.183C371.322 28.7645 370.677 29.3756 370.043 30.0105L297.18 103.002C289.386 110.829 285.009 121.434 285.009 132.49C285.009 143.546 289.386 154.151 297.18 161.978C298.846 163.647 299.782 165.91 299.782 168.271C299.782 170.631 298.846 172.894 297.18 174.563C295.514 176.232 293.255 177.169 290.899 177.169C288.543 177.169 286.284 176.232 284.618 174.563C273.496 163.396 267.249 148.265 267.249 132.49C267.249 116.715 273.496 101.584 284.618 90.4171L357.481 17.426C363.82 11.089 371.506 6.26836 379.965 3.32395C388.424 0.379531 397.439 -0.612572 406.334 0.421698C415.23 1.45597 423.777 4.48989 431.339 9.29696C438.9 14.104 445.28 20.5601 450.001 28.183C451.077 29.9092 452.059 31.6917 452.945 33.523C456.277 40.3959 458.244 47.8517 458.737 55.4761C458.826 56.8111 458.872 58.152 458.874 59.4988Z" fill="#3F3D56"/>
<path d="M78.2224 312.485C75.5091 322.533 66.2155 328.756 66.2155 328.756C66.2155 328.756 61.3209 318.688 64.0342 308.64C66.7475 298.593 76.0412 292.37 76.0412 292.37C76.0412 292.37 80.9357 302.438 78.2224 312.485Z" fill="#FA885E"/>
<path d="M53.5389 312.485C56.2522 322.533 65.5458 328.756 65.5458 328.756C65.5458 328.756 70.4404 318.688 67.7271 308.64C65.0138 298.593 55.7201 292.37 55.7201 292.37C55.7201 292.37 50.8256 302.438 53.5389 312.485Z" fill="#FA885E"/>
<path d="M57.5259 310.326C64.9713 317.586 65.8807 328.747 65.8807 328.747C65.8807 328.747 54.7188 328.137 47.2734 320.876C39.8281 313.616 38.9187 302.455 38.9187 302.455C38.9187 302.455 50.0806 303.065 57.5259 310.326Z" fill="#3F3D56"/>
<path d="M74.2354 310.326C66.79 317.586 65.8806 328.747 65.8806 328.747C65.8806 328.747 77.0425 328.137 84.4879 320.876C91.9332 313.616 92.8426 302.455 92.8426 302.455C92.8426 302.455 81.6807 303.065 74.2354 310.326Z" fill="#3F3D56"/>
<path d="M408.53 58.4428C408.53 59.2398 408.45 60.0348 408.293 60.8161C407.746 63.4961 406.292 65.9048 404.177 67.6346C402.062 69.3645 399.415 70.3093 396.684 70.3093C393.953 70.3093 391.307 69.3645 389.191 67.6346C387.076 65.9048 385.622 63.4961 385.075 60.8161C384.719 59.0485 384.765 57.2231 385.212 55.4761C385.93 52.6769 387.644 50.2365 390.031 48.6131C392.418 46.9897 395.314 46.2949 398.176 46.659C401.039 47.0232 403.67 48.4213 405.576 50.5909C407.482 52.7605 408.533 55.5525 408.53 58.4428Z" fill="#3F3D56"/>
<path d="M233.806 238.221C233.806 239.018 233.727 239.813 233.569 240.594C233.023 243.274 231.569 245.683 229.453 247.413C227.338 249.143 224.691 250.087 221.96 250.087C219.23 250.087 216.583 249.143 214.468 247.413C212.352 245.683 210.898 243.274 210.352 240.594C209.995 238.827 210.042 237.001 210.488 235.254C211.206 232.455 212.92 230.015 215.307 228.391C217.694 226.768 220.591 226.073 223.453 226.437C226.315 226.801 228.946 228.199 230.852 230.369C232.759 232.539 233.809 235.331 233.806 238.221Z" fill="#3F3D56"/>
<path d="M140.818 327.813H4V329H140.818V327.813Z" fill="#3F3D56"/>
<path d="M346.743 28.183H371.992C371.322 28.7644 370.677 29.3756 370.043 30.0104L366.537 33.5229H341.412L346.743 28.183Z" fill="#FA885E"/>
<path d="M452.945 33.5229H432.049C431.072 32.2938 430.026 31.1211 428.916 30.0104C428.282 29.3756 427.637 28.7644 426.968 28.183H450.001C451.077 29.9092 452.059 31.6917 452.945 33.5229Z" fill="#FA885E"/>
<path d="M319.498 55.4762H344.622L339.292 60.8161H314.167L319.498 55.4762Z" fill="#FA885E"/>
<path d="M408.157 55.4762C408.603 57.2232 408.649 59.0486 408.293 60.8161H385.075C384.719 59.0486 384.765 57.2232 385.212 55.4762H408.157Z" fill="#FA885E"/>
<path d="M458.874 59.499C458.874 59.938 458.868 60.3771 458.856 60.8161H441.082C441.099 60.3771 441.105 59.938 441.105 59.499C441.105 58.1462 441.042 56.8052 440.916 55.4762H458.738C458.826 56.8112 458.872 58.1521 458.874 59.499Z" fill="#FA885E"/>
<path d="M291.66 83.3624H316.785L311.455 88.7024H286.33L291.66 83.3624Z" fill="#FA885E"/>
<path d="M453.922 83.3624C453.127 85.1875 452.237 86.9699 451.257 88.7024H429.194C430.821 87.0507 432.305 85.2644 433.631 83.3624H453.922Z" fill="#FA885E"/>
<path d="M194.129 207.961C193.099 209.673 192.195 211.458 191.422 213.301H172.635C173.138 211.491 173.729 209.711 174.406 207.961H194.129Z" fill="#FA885E"/>
<path d="M335.276 207.961L329.946 213.301H304.821L310.152 207.961H335.276Z" fill="#FA885E"/>
<path d="M189.699 240.594H171.474C171.136 238.832 170.882 237.052 170.71 235.254H188.597C188.844 237.057 189.212 238.841 189.699 240.594Z" fill="#FA885E"/>
<path d="M233.806 238.221C233.806 239.018 233.727 239.813 233.569 240.594H210.352C209.995 238.827 210.042 237.001 210.488 235.254H233.433C233.681 236.224 233.806 237.22 233.806 238.221Z" fill="#FA885E"/>
<path d="M308.031 235.254L302.701 240.594H277.576L282.906 235.254H308.031Z" fill="#FA885E"/>
<path d="M215.114 268.481H184.996C183.513 266.784 182.13 265 180.856 263.141H205.282C208.302 265.36 211.609 267.156 215.114 268.481Z" fill="#FA885E"/>
<path d="M280.194 263.141L274.863 268.481H244.538C248.043 267.156 251.35 265.36 254.37 263.141H280.194Z" fill="#FA885E"/>
<path d="M190.921 100.708C186.393 93.0432 177.434 92.686 177.434 92.686C177.434 92.686 168.704 91.5677 163.104 103.241C157.884 114.122 150.68 124.628 161.944 127.175L163.979 120.831L165.239 127.647C166.843 127.763 168.452 127.79 170.058 127.73C182.121 127.339 193.609 127.844 193.239 123.507C192.747 117.743 195.278 108.083 190.921 100.708Z" fill="#2F2E41"/>
<path d="M158.29 269.964L158.882 285.391H169.543L168.951 268.777L158.29 269.964Z" fill="#FBBEBE"/>
<path d="M187.312 160.792L186.234 164.381L172.268 210.857L170.728 215.971L171.912 270.557L157.105 272.337C157.105 272.337 156.673 266.606 156.039 258.145C154.766 241.389 152.681 213.912 151.473 198.96C151.028 193.431 150.709 189.616 150.59 188.678C149.998 183.931 157.698 160.198 157.698 160.198L173.097 159.012L187.312 160.792Z" fill="#2F2E41"/>
<path d="M161.844 283.61C161.844 283.61 157.698 278.864 157.105 282.424C156.513 285.984 149.406 299.63 149.406 299.63C149.406 299.63 128.676 313.277 146.444 314.464C146.444 314.464 155.329 313.277 158.29 308.53C158.29 308.53 163.028 305.564 164.213 305.564C165.397 305.564 172.505 303.19 171.32 299.63C170.136 296.07 170.728 283.017 170.728 283.017L161.844 283.61Z" fill="#2F2E41"/>
<path d="M161.251 255.724L166.582 265.811L174.874 261.657L169.543 249.791L161.251 255.724Z" fill="#FBBEBE"/>
<path opacity="0.2" d="M157.105 226.651C157.105 226.651 152.687 216.98 151.479 202.028C160.055 192.428 170.432 181.855 170.432 181.855L182.87 181.262L186.719 180.965C187.62 189.983 180.003 201.601 172.268 210.857C167.567 216.451 162.502 221.727 157.105 226.651Z" fill="black"/>
<path d="M172.505 181.558C172.505 181.558 134.599 214.785 139.929 228.431C145.26 242.078 160.067 258.691 160.067 258.691L171.506 251.851L160.659 226.651C160.659 226.651 165.207 222.611 170.742 216.625C179.75 206.884 191.374 191.99 190.273 180.965L189.681 160.792L179.612 161.978L172.505 181.558Z" fill="#2F2E41"/>
<path d="M168.951 263.437C168.951 263.437 164.805 263.437 165.397 266.997C165.99 270.557 167.174 276.491 167.174 276.491C167.174 276.491 162.436 304.377 173.689 297.85C184.943 291.324 181.981 274.117 181.981 274.117C181.981 274.117 186.127 263.437 180.797 262.251C175.466 261.064 173.689 259.877 173.097 260.471C172.505 261.064 168.951 263.437 168.951 263.437Z" fill="#2F2E41"/>
<path d="M177.243 118.072C183.131 118.072 187.904 113.291 187.904 107.392C187.904 101.494 183.131 96.7123 177.243 96.7123C171.355 96.7123 166.582 101.494 166.582 107.392C166.582 113.291 171.355 118.072 177.243 118.072Z" fill="#FBBEBE"/>
<path d="M173.097 111.546C173.097 111.546 177.835 124.005 176.058 124.599C174.281 125.192 170.728 128.159 170.728 128.159L176.651 133.499L192.05 125.192C192.05 125.192 184.943 115.699 185.535 111.546H173.097Z" fill="#FBBEBE"/>
<path d="M192.05 122.819C192.05 122.819 179.657 128.939 175.192 124.989C175.192 124.989 167.766 124.599 166.582 128.752C165.397 132.905 167.766 136.465 164.805 137.652C161.844 138.839 159.771 142.102 161.547 147.442C163.324 152.782 163.028 153.672 160.659 155.452C158.29 157.232 155.921 160.792 155.921 161.978C155.921 163.165 153.552 163.165 154.736 164.352C155.921 165.538 153.552 164.352 155.921 165.538C158.29 166.725 164.805 156.045 169.543 161.385C174.282 166.725 189.089 175.625 190.273 170.285C191.458 164.945 195.012 151.892 195.012 151.892C195.012 151.892 207.449 128.752 203.896 126.379C200.342 124.005 192.05 122.819 192.05 122.819Z" fill="#CFCCE0"/>
<path d="M190.273 164.352C190.273 164.352 183.758 163.165 181.981 167.318C180.204 171.472 170.136 180.965 176.651 181.558C183.166 182.151 187.904 171.472 187.904 171.472L194.419 170.285L190.273 164.352Z" fill="#FBBEBE"/>
<path d="M196.788 126.379L204.534 126.811C204.534 126.811 208.042 130.532 208.634 134.092C209.226 137.652 220.48 164.352 213.372 167.318C206.265 170.285 190.865 172.065 190.865 172.065L189.089 163.758L199.157 160.198L192.05 145.365L196.788 126.379Z" fill="#CFCCE0"/>
<path opacity="0.2" d="M161.547 226.948L171.29 251.347L159.771 226.948L169.839 216.268L161.547 226.948Z" fill="black"/>
<path opacity="0.2" d="M155.709 253.805L159.771 258.987H156.809L155.709 253.805Z" fill="black"/>
<path d="M178.531 99.2141C182.108 99.2141 185.008 96.3088 185.008 92.7249C185.008 89.1411 182.108 86.2358 178.531 86.2358C174.953 86.2358 172.053 89.1411 172.053 92.7249C172.053 96.3088 174.953 99.2141 178.531 99.2141Z" fill="#2F2E41"/>
<path d="M171.371 91.0172C171.371 89.4145 171.963 87.8686 173.034 86.6772C174.104 85.4859 175.576 84.7333 177.167 84.5646C176.94 84.5405 176.713 84.5283 176.485 84.5281C175.634 84.5273 174.791 84.6945 174.004 85.0203C173.218 85.346 172.503 85.8239 171.901 86.4265C171.299 87.0292 170.821 87.7448 170.495 88.5325C170.169 89.3202 170.001 90.1645 170.001 91.0172C170.001 91.8699 170.169 92.7142 170.495 93.5019C170.821 94.2896 171.299 95.0052 171.901 95.6079C172.503 96.2105 173.218 96.6884 174.004 97.0141C174.791 97.3399 175.634 97.5071 176.485 97.5063C176.713 97.506 176.94 97.4938 177.167 97.4698C175.576 97.3011 174.104 96.5485 173.034 95.3571C171.963 94.1658 171.371 92.6199 171.371 91.0172Z" fill="#2F2E41"/>
<path d="M188.919 99.969L180.068 95.3251L167.846 97.2249L165.317 108.413L171.612 108.171L173.371 104.06V108.103L176.275 107.991L177.961 101.447L179.015 108.413L189.34 108.202L188.919 99.969Z" fill="#2F2E41"/>
</g>
<defs>
<filter id="filter0_d" x="0" y="0" width="576" height="337" filterUnits="userSpaceOnUse" color-interpolation-filters="sRGB">
<feFlood flood-opacity="0" result="BackgroundImageFix"/>
<feColorMatrix in="SourceAlpha" type="matrix" values="0 0 0 0 0 0 0 0 0 0 0 0 0 0 0 0 0 0 127 0"/>
<feOffset dy="4"/>
<feGaussianBlur stdDeviation="2"/>
<feColorMatrix type="matrix" values="0 0 0 0 0 0 0 0 0 0 0 0 0 0 0 0 0 0 0.25 0"/>
<feBlend mode="normal" in2="BackgroundImageFix" result="effect1_dropShadow"/>
<feBlend mode="normal" in="SourceGraphic" in2="effect1_dropShadow" result="shape"/>
</filter>
<clipPath id="clip0">
<rect width="568" height="329" fill="white" transform="translate(4)"/>
</clipPath>
</defs>
</svg>
