<svg width="452" height="375" viewBox="0 0 452 375" fill="none" xmlns="http://www.w3.org/2000/svg">
<g clip-path="url(#clip0)">
<path d="M84.5225 23.793C89.7716 23.793 94.0267 19.5307 94.0267 14.2728C94.0267 9.01492 89.7716 4.75256 84.5225 4.75256C79.2735 4.75256 75.0183 9.01492 75.0183 14.2728C75.0183 19.5307 79.2735 23.793 84.5225 23.793Z" fill="#F1F1F1"/>
<path d="M128.322 40.9244C131.633 40.9244 134.318 38.2357 134.318 34.9189C134.318 31.6021 131.633 28.9133 128.322 28.9133C125.011 28.9133 122.327 31.6021 122.327 34.9189C122.327 38.2357 125.011 40.9244 128.322 40.9244Z" fill="#F1F1F1"/>
<path d="M168.901 57.2735C171.266 57.2735 173.183 55.3532 173.183 52.9844C173.183 50.6156 171.266 48.6953 168.901 48.6953C166.536 48.6953 164.619 50.6156 164.619 52.9844C164.619 55.3532 166.536 57.2735 168.901 57.2735Z" fill="#F1F1F1"/>
<path d="M370.325 23.793C375.574 23.793 379.829 19.5307 379.829 14.2728C379.829 9.01492 375.574 4.75256 370.325 4.75256C365.076 4.75256 360.821 9.01492 360.821 14.2728C360.821 19.5307 365.076 23.793 370.325 23.793Z" fill="#F1F1F1"/>
<path d="M326.525 40.9244C329.836 40.9244 332.521 38.2357 332.521 34.9189C332.521 31.6021 329.836 28.9133 326.525 28.9133C323.214 28.9133 320.53 31.6021 320.53 34.9189C320.53 38.2357 323.214 40.9244 326.525 40.9244Z" fill="#F1F1F1"/>
<path d="M285.946 57.2735C288.311 57.2735 290.228 55.3532 290.228 52.9844C290.228 50.6156 288.311 48.6953 285.946 48.6953C283.582 48.6953 281.665 50.6156 281.665 52.9844C281.665 55.3532 283.582 57.2735 285.946 57.2735Z" fill="#F1F1F1"/>
<path d="M231.797 343.124C259.9 343.124 282.682 340.524 282.682 337.318C282.682 334.111 259.9 331.511 231.797 331.511C203.694 331.511 180.912 334.111 180.912 337.318C180.912 340.524 203.694 343.124 231.797 343.124Z" fill="#F1F1F1"/>
<path d="M412.816 305.078L68.9055 302.757L72.3762 66.6785L416.293 71.7515L412.816 305.078Z" fill="#F1F1F1"/>
<path d="M0.561279 374.094H451.439" stroke="#3F3D56" stroke-width="2" stroke-miterlimit="10"/>
<path d="M0.561279 0.524902H451.439" stroke="#3F3D56" stroke-width="2" stroke-miterlimit="10"/>
<path d="M451.476 1.2843L282.644 69.5817V302.659L451.476 374.208V1.2843Z" fill="#3F3D56" stroke="#3F3D56" stroke-width="2" stroke-miterlimit="10"/>
<path d="M296.714 252.791L417.926 280.977" stroke="white" stroke-width="2" stroke-miterlimit="10"/>
<path d="M296.714 234.362L417.926 252.791" stroke="white" stroke-width="2" stroke-miterlimit="10"/>
<path d="M296.714 214.848L417.926 227.857" stroke="white" stroke-width="2" stroke-miterlimit="10"/>
<path d="M402.775 148.678V176.864L305.372 170.36V148.678H402.775Z" fill="#FA885E"/>
<path opacity="0.2" d="M402.775 148.678V176.864L305.372 170.36V169.275L400.61 174.696V148.678H402.775Z" fill="black"/>
<path d="M0.523926 1.2843L169.356 69.5817V302.659L0.523926 374.208V1.2843Z" fill="#3F3D56" stroke="#3F3D56" stroke-width="2" stroke-miterlimit="10"/>
<path d="M155.287 252.791L34.074 280.977" stroke="white" stroke-width="2" stroke-miterlimit="10"/>
<path d="M155.287 234.362L34.074 252.791" stroke="white" stroke-width="2" stroke-miterlimit="10"/>
<path d="M155.287 214.848L34.074 227.857" stroke="white" stroke-width="2" stroke-miterlimit="10"/>
<path d="M49.2253 148.678V176.864L146.629 170.36V148.678H49.2253Z" fill="#FA885E"/>
<path opacity="0.2" d="M49.2253 148.678V176.864L146.629 170.36V169.275L51.3898 174.696V148.678H49.2253Z" fill="black"/>
<path d="M185.086 88.4524L269.762 89.4957" stroke="#3F3D56" stroke-width="2" stroke-miterlimit="10"/>
<path d="M188.505 92.7878L189.23 92.0279L185.488 88.4585L189.316 84.9809L188.611 84.2036L183.95 88.4396L188.505 92.7878Z" fill="#3F3D56"/>
<path d="M266.237 93.7456L265.532 92.9678L269.359 89.4918L265.618 85.9208L266.342 85.1614L270.898 89.5107L266.237 93.7456Z" fill="#3F3D56"/>
<path d="M227.424 96.0711C231.337 96.0711 234.509 92.8935 234.509 88.9739C234.509 85.0542 231.337 81.8767 227.424 81.8767C223.511 81.8767 220.339 85.0542 220.339 88.9739C220.339 92.8935 223.511 96.0711 227.424 96.0711Z" fill="#3F3D56"/>
<path d="M217.948 314.413C217.948 314.413 216.016 322.8 216.66 326.026C217.304 329.252 217.304 336.35 217.304 336.35H219.237V328.607C219.237 328.607 224.39 331.188 225.678 335.059C226.966 338.93 240.492 337.64 241.136 336.349C241.781 335.059 234.695 332.478 234.695 332.478L228.898 315.058L217.948 314.413Z" fill="#2F2E41"/>
<path d="M213.44 238.28C213.44 238.28 216.66 249.893 216.66 254.41C216.66 258.926 214.084 316.994 216.66 316.994C219.237 316.994 229.542 318.284 230.187 315.703C230.831 313.122 228.898 289.25 230.187 286.669C231.475 284.089 240.492 229.247 239.848 228.602C239.204 227.957 216.66 226.021 213.44 238.28Z" fill="#2F2E41"/>
<path d="M212.151 227.311C212.151 227.311 206.354 242.796 211.507 242.796C216.66 242.796 219.881 238.28 223.745 239.57C227.61 240.86 239.204 224.73 239.204 224.73L212.151 227.311Z" fill="#3F3D56"/>
<path d="M236.306 162.469C241.997 162.469 246.612 157.847 246.612 152.146C246.612 146.445 241.997 141.823 236.306 141.823C230.614 141.823 226 146.445 226 152.146C226 157.847 230.614 162.469 236.306 162.469Z" fill="#FFB9B9"/>
<path d="M241.459 155.372C241.459 155.372 236.95 170.212 238.238 172.147C239.526 174.083 226 171.502 226 171.502C226 171.502 230.509 159.243 229.865 156.663C229.221 154.082 241.459 155.372 241.459 155.372Z" fill="#FFB9B9"/>
<path d="M234.051 165.372C234.051 165.372 228.254 163.437 226.322 165.372C224.39 167.308 217.304 213.117 212.796 217.633C208.287 222.15 205.066 228.602 208.931 229.247C212.796 229.892 244.357 233.763 245.645 231.828C246.934 229.892 246.611 210.859 245.967 206.342C245.323 201.826 240.492 166.018 234.051 165.372Z" fill="#FA885E"/>
<path d="M228.899 229.247L231.475 235.699L237.272 231.182L236.628 226.666L228.899 229.247Z" fill="#FFB9B9"/>
<path opacity="0.1" d="M226 176.018C226 176.018 225.678 167.953 221.813 178.277C217.948 188.6 209.575 202.149 216.66 212.472C223.746 222.795 223.941 227.299 227.288 226.989C230.635 226.678 241.136 230.537 241.136 229.247C241.136 227.957 228.898 207.956 228.898 207.956C228.581 206.102 228.708 204.2 229.268 202.406C229.828 200.611 230.805 198.975 232.119 197.632C236.628 193.116 234.373 177.954 226 176.018Z" fill="black"/>
<path d="M230.187 167.953C230.187 167.953 223.101 166.663 219.237 176.986C215.372 187.309 206.999 200.858 214.084 211.181C221.169 221.505 224.781 231.804 228.128 231.493C231.475 231.182 238.56 229.247 238.56 227.956C238.56 226.666 226.322 206.665 226.322 206.665C226.005 204.812 226.131 202.91 226.691 201.115C227.251 199.32 228.228 197.684 229.542 196.342C234.051 191.826 238.56 169.889 230.187 167.953Z" fill="#FA885E"/>
<path d="M233.111 136.698C227.812 135.948 222.587 139.312 219.656 143.798C216.725 148.284 215.663 153.714 214.891 159.019C214.736 160.622 214.37 162.197 213.801 163.703C212.52 166.65 209.619 168.876 209.147 172.055C208.848 174.066 209.596 176.063 209.987 178.058C211.025 183.357 209.487 188.93 206.666 193.532C205.406 195.587 203.57 197.662 201.165 197.736L206.206 198.519C205.354 200.385 203.879 201.895 202.034 202.789C208.036 202.034 213.575 199.171 217.667 194.709C221.758 190.247 224.136 184.475 224.377 178.421C224.45 176.593 224.361 174.631 225.353 173.094C226.21 171.765 227.707 171.027 229.068 170.222C233.741 167.455 237.646 162.867 238.27 157.464C238.544 155.09 238.182 152.714 238.089 150.341C237.99 147.84 242.182 146.152 242.747 143.759C243.605 140.12 236.446 137.17 233.111 136.698Z" fill="#2F2E41"/>
</g>
<defs>
<clipPath id="clip0">
<rect width="452" height="375" fill="white"/>
</clipPath>
</defs>
</svg>
