<svg width="484" height="308" viewBox="0 0 484 308" fill="none" xmlns="http://www.w3.org/2000/svg">
<g clip-path="url(#clip0)">
<path d="M27.1333 307.102C19.6666 306.487 13.0744 301.085 9.32552 294.599C8.06832 292.424 7.20692 289.57 8.63061 287.5C9.03812 286.907 9.60129 286.439 10.2581 286.146C10.9148 285.853 11.6397 285.747 12.3529 285.84C13.066 285.933 13.7397 286.22 14.2998 286.671C14.8598 287.123 15.2844 287.72 15.5269 288.397C15.0683 285.855 14.8713 283.274 14.9388 280.692C14.9962 278.507 15.4092 276.035 17.2265 274.82C19.3349 273.41 22.3739 274.53 23.9074 276.55C25.441 278.57 25.8571 281.198 26.2252 283.708C25.9247 282.646 25.8954 281.525 26.1399 280.449C26.3845 279.372 26.8951 278.374 27.6251 277.546C28.355 276.718 29.281 276.086 30.3183 275.708C31.3555 275.331 32.471 275.219 33.5625 275.384C36.6505 275.85 39.0696 278.524 40.0135 281.501C40.9575 284.478 40.6628 287.706 40.0552 290.769C39.3428 294.362 38.1867 297.925 36.1052 300.938C34.0237 303.951 30.9319 306.38 27.3448 307.117L27.1333 307.102Z" fill="#F2F2F2"/>
<path d="M484 64.6054C484 78.004 479.836 91.0715 472.083 101.999C464.331 112.927 453.373 121.176 440.727 125.603C440.325 125.743 439.916 125.883 439.508 126.011V60.3633H354.931C354.955 59.955 354.985 59.5466 355.022 59.1444H439.508V46.3208C439.508 45.5127 439.186 44.7378 438.615 44.1663C438.044 43.5949 437.269 43.2737 436.461 43.2734H358.399C358.539 42.865 358.685 42.4567 358.843 42.0544C364.132 27.8597 374.239 15.9744 387.4 8.47469C400.561 0.975012 415.938 -1.66214 430.846 1.02394C445.754 3.71002 459.244 11.5486 468.959 23.1702C478.675 34.7918 483.998 49.4575 484 64.6054Z" fill="#F2F2F2"/>
<path d="M436.461 42.0544H139.645C138.514 42.0557 137.429 42.5056 136.629 43.3054C135.83 44.1053 135.38 45.1897 135.378 46.3208V247.451C135.38 248.582 135.83 249.666 136.629 250.466C137.429 251.266 138.514 251.716 139.645 251.717H436.461C437.592 251.716 438.676 251.266 439.476 250.466C440.276 249.666 440.726 248.582 440.727 247.451V46.3208C440.726 45.1897 440.276 44.1053 439.476 43.3054C438.676 42.5056 437.592 42.0557 436.461 42.0544ZM439.508 247.451C439.508 248.259 439.187 249.034 438.615 249.605C438.044 250.177 437.269 250.498 436.461 250.498H139.645C138.837 250.498 138.062 250.177 137.49 249.605C136.919 249.034 136.598 248.259 136.597 247.451V46.3208C136.598 45.5127 136.919 44.7378 137.49 44.1663C138.062 43.5949 138.837 43.2737 139.645 43.2734H436.461C437.269 43.2737 438.044 43.5949 438.615 44.1663C439.187 44.7378 439.508 45.5127 439.508 46.3208V247.451Z" fill="#3F3D56"/>
<path d="M440.118 59.1443H135.988V60.3633H440.118V59.1443Z" fill="#3F3D56"/>
<path d="M146.349 54.8536C148.369 54.8536 150.006 53.2164 150.006 51.1967C150.006 49.177 148.369 47.5398 146.349 47.5398C144.329 47.5398 142.692 49.177 142.692 51.1967C142.692 53.2164 144.329 54.8536 146.349 54.8536Z" fill="#3F3D56"/>
<path d="M156.862 54.8536C158.882 54.8536 160.519 53.2164 160.519 51.1967C160.519 49.177 158.882 47.5398 156.862 47.5398C154.843 47.5398 153.206 49.177 153.206 51.1967C153.206 53.2164 154.843 54.8536 156.862 54.8536Z" fill="#3F3D56"/>
<path d="M167.376 54.8536C169.396 54.8536 171.033 53.2164 171.033 51.1967C171.033 49.177 169.396 47.5398 167.376 47.5398C165.356 47.5398 163.719 49.177 163.719 51.1967C163.719 53.2164 165.356 54.8536 167.376 54.8536Z" fill="#3F3D56"/>
<path d="M218.877 84.1089H165.243C164.112 84.1101 163.027 84.56 162.228 85.3599C161.428 86.1597 160.978 87.2441 160.977 88.3753V142.01C160.978 143.141 161.428 144.225 162.228 145.025C163.027 145.825 164.112 146.275 165.243 146.276H218.877C220.008 146.275 221.093 145.825 221.892 145.025C222.692 144.225 223.142 143.141 223.143 142.01V88.3753C223.142 87.2441 222.692 86.1597 221.892 85.3599C221.093 84.56 220.008 84.1101 218.877 84.1089ZM221.924 142.01C221.924 142.818 221.603 143.593 221.031 144.164C220.46 144.736 219.685 145.057 218.877 145.057H165.243C164.435 145.057 163.66 144.736 163.088 144.164C162.517 143.593 162.196 142.818 162.196 142.01V88.3753C162.196 87.5672 162.517 86.7922 163.088 86.2208C163.66 85.6494 164.435 85.3282 165.243 85.3279H218.877C219.685 85.3282 220.46 85.6494 221.031 86.2208C221.603 86.7922 221.924 87.5672 221.924 88.3753V142.01Z" fill="#3F3D56"/>
<path d="M315.175 84.4136H261.54C260.49 84.4156 259.484 84.8337 258.741 85.5762C257.999 86.3187 257.581 87.3252 257.579 88.3752V142.01C257.581 143.06 257.999 144.066 258.741 144.809C259.484 145.551 260.49 145.969 261.54 145.972H315.175C316.225 145.969 317.231 145.551 317.974 144.809C318.716 144.066 319.134 143.06 319.136 142.01V88.3752C319.134 87.3252 318.716 86.3187 317.974 85.5762C317.231 84.8337 316.225 84.4156 315.175 84.4136Z" fill="#FA885E"/>
<path d="M411.472 84.4136H357.838C356.788 84.4156 355.782 84.8337 355.039 85.5762C354.297 86.3187 353.878 87.3252 353.876 88.3752V142.01C353.878 143.06 354.297 144.066 355.039 144.809C355.782 145.551 356.788 145.969 357.838 145.972H411.472C412.522 145.969 413.529 145.551 414.271 144.809C415.014 144.066 415.432 143.06 415.434 142.01V88.3752C415.432 87.3252 415.014 86.3187 414.271 85.5762C413.529 84.8337 412.522 84.4156 411.472 84.4136Z" fill="#E6E6E6"/>
<path d="M218.877 164.865H165.243C164.193 164.868 163.186 165.286 162.444 166.028C161.701 166.771 161.283 167.777 161.281 168.827V222.462C161.283 223.512 161.701 224.518 162.444 225.261C163.186 226.003 164.193 226.421 165.243 226.423H218.877C219.927 226.421 220.933 226.003 221.676 225.261C222.418 224.518 222.837 223.512 222.839 222.462V168.827C222.837 167.777 222.418 166.771 221.676 166.028C220.933 165.286 219.927 164.868 218.877 164.865Z" fill="#E6E6E6"/>
<path d="M315.175 164.865H261.54C260.49 164.868 259.484 165.286 258.741 166.028C257.999 166.771 257.581 167.777 257.579 168.827V222.462C257.581 223.512 257.999 224.518 258.741 225.261C259.484 226.003 260.49 226.421 261.54 226.423H315.175C316.225 226.421 317.231 226.003 317.974 225.261C318.716 224.518 319.134 223.512 319.136 222.462V168.827C319.134 167.777 318.716 166.771 317.974 166.028C317.231 165.286 316.225 164.868 315.175 164.865Z" fill="#FA885E"/>
<path d="M411.472 164.865H357.838C356.788 164.868 355.782 165.286 355.039 166.028C354.297 166.771 353.878 167.777 353.876 168.827V222.462C353.878 223.512 354.297 224.518 355.039 225.261C355.782 226.003 356.788 226.421 357.838 226.423H411.472C412.522 226.421 413.529 226.003 414.271 225.261C415.014 224.518 415.432 223.512 415.434 222.462V168.827C415.432 167.777 415.014 166.771 414.271 166.028C413.529 165.286 412.522 164.868 411.472 164.865Z" fill="#E6E6E6"/>
<path d="M205.773 173.703H152.139C151.089 173.702 150.082 173.284 149.339 172.541C148.596 171.799 148.179 170.792 148.177 169.741V116.107C148.179 115.056 148.596 114.049 149.339 113.307C150.082 112.564 151.089 112.146 152.139 112.145H205.773C206.823 112.146 207.83 112.564 208.573 113.307C209.316 114.049 209.734 115.056 209.735 116.107V169.741C209.734 170.792 209.316 171.799 208.573 172.541C207.83 173.284 206.823 173.702 205.773 173.703Z" fill="#FA885E"/>
<path d="M123.569 299.92L130.712 297.728L125.656 269.132L115.113 272.367L123.569 299.92Z" fill="#A0616A"/>
<path d="M146.524 300.133L124.074 307.023L121.412 298.349L135.189 294.121C136.328 293.771 137.524 293.65 138.711 293.763C139.897 293.876 141.049 294.221 142.102 294.779C143.154 295.338 144.087 296.098 144.845 297.016C145.604 297.935 146.175 298.994 146.524 300.133Z" fill="#2F2E41"/>
<path d="M62.6226 300.085L70.0948 300.084L73.6492 271.263L62.6213 271.263L62.6226 300.085Z" fill="#A0616A"/>
<path d="M84.5056 307.022L61.022 307.023L61.0216 297.95L75.432 297.949C76.6235 297.949 77.8033 298.184 78.9042 298.64C80.005 299.095 81.0053 299.764 81.8478 300.606C82.6904 301.449 83.3588 302.449 83.8148 303.55C84.2708 304.651 84.5056 305.83 84.5056 307.022L84.5056 307.022Z" fill="#2F2E41"/>
<path d="M62.0866 216.538C61.4728 216 60.9844 215.334 60.6558 214.586C60.3273 213.839 60.1665 213.029 60.185 212.212C60.2035 211.396 60.4007 210.594 60.7628 209.862C61.1248 209.131 61.6429 208.487 62.2805 207.977L68.0738 135.025L79.8555 137.969L70.4223 209.132C71.2077 210.259 71.5522 211.636 71.3903 213.001C71.2285 214.366 70.5716 215.624 69.5441 216.537C68.5166 217.45 67.19 217.954 65.8155 217.955C64.4411 217.955 63.1143 217.451 62.0866 216.538Z" fill="#A0616A"/>
<path d="M85.6801 106.731C93.9475 106.731 100.65 100.029 100.65 91.7611C100.65 83.4936 93.9475 76.7915 85.6801 76.7915C77.4127 76.7915 70.7107 83.4936 70.7107 91.7611C70.7107 100.029 77.4127 106.731 85.6801 106.731Z" fill="#A0616A"/>
<path d="M72.6636 132.781C69.2859 128.144 69.1818 121.758 72.8203 117.322C75.1947 114.428 79.1665 112.112 85.7976 112.112C103.472 112.112 110.177 126.13 110.177 126.13C110.177 126.13 117.49 139.538 113.224 151.728C108.958 163.918 108.958 165.137 108.958 165.137L80.9217 162.699C80.9217 162.699 85.6514 150.612 72.6636 132.781Z" fill="#CCCCCC"/>
<path d="M64.0181 144.915L70.0578 125.155C70.4623 123.832 71.1525 122.614 72.0795 121.587C73.0066 120.56 74.1479 119.749 75.4228 119.211C76.6977 118.674 78.0751 118.423 79.4576 118.477C80.8402 118.53 82.1941 118.886 83.4238 119.521C85.5571 120.625 87.1905 122.5 87.9927 124.765C88.7949 127.03 88.7059 129.515 87.7437 131.716L80.0653 149.203L64.0181 144.915Z" fill="#CCCCCC"/>
<path d="M108.348 162.089L132.118 285.205L119.319 288.862L88.2354 207.801L74.2174 290.691L60.8089 292.519C60.8089 292.519 54.9273 182.845 80.9217 162.699L108.348 162.089Z" fill="#2F2E41"/>
<path d="M142.559 156.319C142.342 156.577 142.146 156.852 141.972 157.141L111.782 158.605L105.968 140.857L95.8743 145.655L105.375 172.089L142.713 164.787C143.59 165.745 144.738 166.413 146.004 166.702C147.271 166.992 148.595 166.889 149.802 166.407C151.008 165.925 152.039 165.088 152.758 164.006C153.477 162.924 153.849 161.649 153.826 160.35C153.802 159.051 153.384 157.79 152.626 156.735C151.869 155.68 150.808 154.88 149.585 154.443C148.362 154.005 147.034 153.95 145.779 154.285C144.524 154.621 143.401 155.33 142.559 156.319Z" fill="#A0616A"/>
<path d="M91.6504 127.9C91.4887 126.526 91.6308 125.133 92.0667 123.82C92.5025 122.506 93.2215 121.305 94.1727 120.3C95.1239 119.296 96.2843 118.512 97.5716 118.005C98.859 117.498 100.242 117.28 101.623 117.367C104.021 117.52 106.27 118.58 107.915 120.332C109.56 122.083 110.477 124.394 110.481 126.796V145.895L94.0646 148.421L91.6504 127.9Z" fill="#CCCCCC"/>
<path d="M88.9721 106.866C86.7253 106.857 84.9921 104.491 85.0928 102.247C85.1935 100.002 86.701 98.0272 88.5172 96.7046C90.3335 95.382 92.4635 94.5763 94.4889 93.6039C96.5143 92.6315 98.5221 91.4185 99.7726 89.5519C100.528 88.3302 100.979 86.9449 101.088 85.5126C101.196 84.0802 100.959 82.6428 100.396 81.3212C99.2326 78.6779 97.2344 76.489 94.7079 75.0897C90.9549 72.8928 86.5121 72.1904 82.2644 73.1223C78.0167 74.0542 74.2759 76.552 71.7872 80.1182L69.2225 87.1016C66.6092 90.2442 66.1946 94.9111 67.8011 98.6694C69.4076 102.428 72.8282 105.255 76.688 106.6C80.6041 107.858 84.7962 107.984 88.7807 106.962" fill="#2F2E41"/>
<path d="M75.2914 83.6084C74.1889 81.8413 72.2779 80.7174 70.3023 80.0579C68.0136 79.2938 65.5794 79.0682 63.1893 79.3988C60.7991 79.7295 58.5175 80.6073 56.5222 81.9639C54.5268 83.3206 52.8715 85.1195 51.6851 87.2207C50.4987 89.3218 49.8133 91.6684 49.6822 94.0777C49.4728 97.9262 50.6779 101.69 51.386 105.478C52.094 109.267 52.2349 113.451 50.146 116.69C48.5549 119.157 45.9017 120.711 43.2828 122.037C41.1001 123.142 38.7391 124.18 36.3023 123.96C33.8656 123.739 31.4165 121.809 31.4812 119.363C30.6654 121.117 30.1146 122.982 29.8468 124.898C29.6753 126.821 30.1494 128.897 31.5387 130.238C33.558 132.187 36.7574 132.045 39.5324 131.624C45.54 130.714 51.6234 129.006 56.3696 125.212C61.1158 121.418 64.2652 115.171 63.0153 109.225C62.4932 106.741 61.2661 104.473 60.2746 102.137C59.2831 99.8 58.509 97.2443 58.9645 94.7472C59.2341 93.4607 59.7828 92.2492 60.5718 91.198C61.3608 90.1468 62.371 89.2816 63.531 88.6635C65.8769 87.4437 68.5612 87.0366 71.1633 87.5061C72.8693 87.786 74.9994 88.2207 76.0112 86.8189C76.2793 86.3749 76.4163 85.8639 76.4062 85.3453C76.3961 84.8266 76.2394 84.3214 75.9541 83.8882C75.3703 83.0311 74.6269 82.2945 73.7645 81.7186" fill="#2F2E41"/>
<path d="M188.015 308H0.725613C0.630136 308 0.535537 307.982 0.447248 307.945C0.35896 307.909 0.278716 307.856 0.211105 307.788C0.143495 307.721 0.0898502 307.641 0.0532487 307.553C0.0166473 307.464 -0.00219727 307.37 -0.00219727 307.274C-0.00219727 307.179 0.0166473 307.084 0.0532487 306.996C0.0898502 306.908 0.143495 306.828 0.211105 306.76C0.278716 306.693 0.35896 306.64 0.447248 306.603C0.535537 306.567 0.630136 306.548 0.725613 306.549H188.015C188.11 306.548 188.205 306.567 188.293 306.603C188.381 306.64 188.461 306.693 188.529 306.76C188.597 306.828 188.65 306.908 188.687 306.996C188.724 307.084 188.742 307.179 188.742 307.274C188.742 307.37 188.724 307.464 188.687 307.553C188.65 307.641 188.597 307.721 188.529 307.788C188.461 307.856 188.381 307.909 188.293 307.945C188.205 307.982 188.11 308 188.015 308Z" fill="#3F3D56"/>
</g>
<defs>
<clipPath id="clip0">
<rect width="484" height="308" fill="white"/>
</clipPath>
</defs>
</svg>
