<svg width="517" height="553" viewBox="0 0 517 553" fill="none" xmlns="http://www.w3.org/2000/svg">
<g filter="url(#filter0_d)">
<rect x="139.639" y="257.567" width="217.949" height="287.129" rx="7.34659" fill="#5ABE93" fill-opacity="0.3"/>
<rect x="132.905" y="227.568" width="230.805" height="304.271" rx="7.34659" fill="#5ABE93" fill-opacity="0.5"/>
<rect x="125.558" y="191.447" width="245.499" height="323.862" rx="7.34659" fill="#5ABE93" fill-opacity="0.7"/>
<g filter="url(#filter1_d)">
<rect x="120" y="158.001" width="258.054" height="340.999" rx="12.2883" fill="#FA885E"/>
<rect x="120.922" y="158.922" width="256.21" height="339.156" rx="11.3666" stroke="white" stroke-width="1.84324"/>
</g>
<path d="M249.997 158.922H365.814C372.092 158.922 377.181 164.011 377.181 170.289V486.711C377.181 492.989 372.092 498.078 365.814 498.078H249.997V158.922Z" fill="#5ABE93" stroke="white" stroke-width="1.84324"/>
<path d="M342.184 489.567H343.991V486.188H346.756V484.615H343.991V482.686H347.481V481.101H342.184V489.567ZM348.588 480.708V489.567H350.296V480.708H348.588ZM353.559 483.829H351.864V489.567H353.559V483.829ZM351.642 481.703C351.642 482.256 352.134 482.711 352.712 482.711C353.301 482.711 353.756 482.256 353.756 481.703C353.756 481.125 353.289 480.708 352.712 480.708C352.134 480.708 351.642 481.138 351.642 481.703ZM356.86 486.717C356.86 485.881 357.462 485.328 358.187 485.328C358.912 485.328 359.515 485.869 359.515 486.717C359.515 487.552 358.925 488.081 358.187 488.081C357.499 488.081 356.86 487.577 356.86 486.717ZM355.128 483.829V492.381H356.823V488.867C357.106 489.395 357.782 489.69 358.507 489.69C359.982 489.69 361.284 488.523 361.284 486.68C361.284 484.861 359.982 483.706 358.507 483.706C357.782 483.706 357.106 484.013 356.823 484.541V483.829H355.128ZM364.216 483.829H362.52V489.567H364.216V483.829ZM362.299 481.703C362.299 482.256 362.79 482.711 363.368 482.711C363.958 482.711 364.412 482.256 364.412 481.703C364.412 481.125 363.945 480.708 363.368 480.708C362.79 480.708 362.299 481.138 362.299 481.703ZM365.44 486.68C365.44 488.486 366.927 489.69 368.561 489.69C369.593 489.69 370.515 489.248 371.056 488.461L369.667 487.478C369.434 487.859 369.003 488.056 368.561 488.056C367.836 488.056 367.136 487.503 367.136 486.68C367.136 485.856 367.836 485.34 368.561 485.34C369.003 485.34 369.434 485.537 369.667 485.918L371.056 484.922C370.503 484.136 369.593 483.706 368.561 483.706C366.927 483.706 365.44 484.861 365.44 486.68Z" fill="#FEFFF6"/>
<path d="M296.472 370.408C296.472 368.97 295.489 368.049 293.965 368.049H290.573V376.515H294.211C295.894 376.515 296.914 375.323 296.914 373.923C296.914 373.222 296.435 372.288 295.317 371.993C296.202 371.662 296.472 370.961 296.472 370.408ZM292.38 371.391V369.634H293.781C294.309 369.634 294.579 369.99 294.579 370.519C294.579 371.023 294.272 371.391 293.793 371.391H292.38ZM294.076 372.878C294.715 372.878 295.022 373.406 295.022 373.886C295.022 374.39 294.715 374.93 294.112 374.93H292.38V372.878H294.076ZM301.888 373.812C301.888 374.684 301.384 374.979 300.855 374.979C300.462 374.979 299.835 374.758 299.835 373.837V370.777H298.127V374.205C298.127 375.84 299.11 376.638 300.401 376.638C300.954 376.638 301.58 376.306 301.888 375.729V376.515H303.596V370.777H301.888V373.812ZM306.881 374.512C306.881 372.989 307.323 372.227 308.306 372.227C308.589 372.227 308.872 372.251 309.179 372.399L309.486 370.863C309.203 370.728 308.909 370.654 308.503 370.654C307.913 370.654 307.176 371.096 306.881 372.165V370.777H305.173V376.515H306.881V374.512ZM314.476 373.628C314.476 374.476 313.787 375.029 313.087 375.029C312.35 375.029 311.711 374.476 311.711 373.628C311.711 372.817 312.35 372.276 313.087 372.276C313.8 372.276 314.476 372.78 314.476 373.628ZM310.101 377.597C310.593 378.666 311.662 379.379 312.927 379.379C314.955 379.379 316.171 378.187 316.171 375.717V370.777H314.512V371.489C314.218 370.973 313.505 370.654 312.792 370.654C311.318 370.654 309.929 371.821 309.929 373.665C309.929 375.483 311.318 376.638 312.792 376.638C313.517 376.638 314.23 376.331 314.512 375.803C314.574 376.933 314.242 377.843 312.927 377.843C312.35 377.843 311.674 377.462 311.477 376.921L310.101 377.597ZM321.78 374.623C321.497 375.004 321.006 375.164 320.526 375.164C319.912 375.164 319.211 374.869 319.113 374.205H323.316C323.328 374.058 323.34 373.824 323.34 373.677C323.34 371.87 322.038 370.654 320.403 370.654C318.769 370.654 317.405 371.809 317.405 373.628C317.405 375.434 318.769 376.638 320.403 376.638C321.387 376.638 322.431 376.331 323.021 375.471L321.78 374.623ZM319.138 373.136C319.273 372.399 319.949 372.153 320.416 372.153C320.907 372.153 321.522 372.436 321.62 373.136H319.138ZM326.213 374.512C326.213 372.989 326.656 372.227 327.639 372.227C327.921 372.227 328.204 372.251 328.511 372.399L328.819 370.863C328.536 370.728 328.241 370.654 327.835 370.654C327.246 370.654 326.508 371.096 326.213 372.165V370.777H324.505V376.515H326.213V374.512ZM331.89 374.353C332.32 374.463 332.455 374.598 332.455 374.844C332.455 375.139 332.136 375.311 331.755 375.323C331.275 375.323 330.919 374.992 330.907 374.66H329.309C329.309 375.938 330.55 376.638 331.706 376.638C332.91 376.638 334.188 376.061 334.188 374.844C334.188 374.463 334.016 373.566 332.627 373.173L331.656 372.915C331.312 372.829 331.165 372.669 331.153 372.485C331.14 372.227 331.374 372.055 331.755 372.055C332.037 372.055 332.394 372.128 332.406 372.559H334.016C334.016 371.145 332.787 370.654 331.656 370.654C330.452 370.654 329.42 371.44 329.42 372.288C329.42 372.817 329.408 373.701 331.14 374.156L331.89 374.353Z" fill="#FEFFF6"/>
<path d="M166.007 374.033C166.007 375.557 167.249 376.651 169.08 376.651C170.591 376.651 172.09 375.84 172.127 374.168C172.164 373.37 171.857 372.202 169.805 371.612L168.797 371.293C167.961 371.059 167.888 370.654 167.888 370.433C167.888 369.929 168.355 369.585 168.981 369.585C169.706 369.585 170.075 369.966 170.075 370.543H171.869C171.869 368.921 170.64 367.95 169.006 367.95C167.384 367.95 166.093 368.97 166.093 370.482C166.093 371.256 166.413 372.325 168.281 372.915L169.301 373.198C170.149 373.443 170.333 373.775 170.321 374.156C170.308 374.709 169.817 375.053 169.08 375.053C168.256 375.053 167.851 374.574 167.814 374.033H166.007ZM181.812 370.777H179.993L178.973 374.193L177.966 370.777H176.503L175.496 374.193L174.476 370.777H172.657L174.734 376.515H176.159L177.241 372.866L178.371 376.515H179.797L181.812 370.777ZM186.664 374.623C186.382 375.004 185.89 375.164 185.411 375.164C184.796 375.164 184.096 374.869 183.998 374.205H188.2C188.212 374.058 188.225 373.824 188.225 373.677C188.225 371.87 186.922 370.654 185.288 370.654C183.654 370.654 182.29 371.809 182.29 373.628C182.29 375.434 183.654 376.638 185.288 376.638C186.271 376.638 187.315 376.331 187.905 375.471L186.664 374.623ZM184.022 373.136C184.157 372.399 184.833 372.153 185.3 372.153C185.792 372.153 186.406 372.436 186.504 373.136H184.022ZM193.42 374.623C193.138 375.004 192.646 375.164 192.167 375.164C191.552 375.164 190.852 374.869 190.754 374.205H194.956C194.969 374.058 194.981 373.824 194.981 373.677C194.981 371.87 193.678 370.654 192.044 370.654C190.41 370.654 189.046 371.809 189.046 373.628C189.046 375.434 190.41 376.638 192.044 376.638C193.027 376.638 194.072 376.331 194.661 375.471L193.42 374.623ZM190.778 373.136C190.913 372.399 191.589 372.153 192.056 372.153C192.548 372.153 193.162 372.436 193.261 373.136H190.778ZM198.334 370.777V368.577H196.639V370.777H195.594V372.128H196.639V376.515H198.334V372.128H199.539V370.777H198.334ZM202.822 374.353C203.253 374.463 203.388 374.598 203.388 374.844C203.388 375.139 203.068 375.311 202.687 375.323C202.208 375.323 201.852 374.992 201.839 374.66H200.242C200.242 375.938 201.483 376.638 202.638 376.638C203.842 376.638 205.12 376.061 205.12 374.844C205.12 374.463 204.948 373.566 203.56 373.173L202.589 372.915C202.245 372.829 202.097 372.669 202.085 372.485C202.073 372.227 202.306 372.055 202.687 372.055C202.97 372.055 203.326 372.128 203.339 372.559H204.948C204.948 371.145 203.72 370.654 202.589 370.654C201.385 370.654 200.353 371.44 200.353 372.288C200.353 372.817 200.34 373.701 202.073 374.156L202.822 374.353Z" fill="#FEFFF6"/>
<path d="M210.541 317.898C210.025 317.888 209.513 317.682 209.126 317.282L159.736 266.044C158.964 265.243 158.988 263.965 159.789 263.193C160.59 262.421 161.867 262.445 162.639 263.246L212.029 314.482C212.801 315.283 212.778 316.56 211.977 317.333C211.576 317.718 211.056 317.907 210.541 317.898Z" fill="#D99E82"/>
<path d="M180.766 273.657C180.654 279.78 175.599 284.653 169.476 284.541C163.352 284.428 158.48 279.373 158.592 273.25C158.704 267.127 163.759 262.254 169.882 262.367C176.005 262.479 180.878 267.534 180.766 273.657Z" fill="#FCB1E3"/>
<path d="M192.299 288.52C193.815 282.586 190.235 276.547 184.301 275.031C178.368 273.514 172.328 277.095 170.812 283.028C169.295 288.962 172.876 295.001 178.809 296.517C184.743 298.034 190.782 294.453 192.299 288.52Z" fill="#FFD983"/>
<path d="M204.514 298.291C204.401 304.414 199.345 309.289 193.222 309.176C187.098 309.064 182.226 304.008 182.338 297.884C182.45 291.761 187.505 286.889 193.628 287.001C199.752 287.113 204.626 292.17 204.514 298.291Z" fill="#A6D388"/>
<path d="M210.54 317.898C210.025 317.888 209.513 317.682 209.126 317.282L197.005 304.707C196.231 303.906 196.254 302.629 197.057 301.857C197.859 301.085 199.134 301.108 199.907 301.909L212.029 314.484C212.801 315.285 212.778 316.562 211.977 317.334C211.575 317.718 211.056 317.907 210.54 317.898Z" fill="#D99E82"/>
<path d="M312.723 290.54C297.119 290.646 284.468 290.357 284.543 301.433C284.618 312.505 297.284 314.939 312.888 314.833C328.492 314.728 341.123 312.123 341.048 301.051C340.973 289.976 328.327 290.435 312.723 290.54Z" fill="#D99E82"/>
<path d="M340.154 291.196C340.154 291.196 326.457 289.65 312.718 289.673C298.979 289.836 285.304 291.567 285.304 291.567C284.023 302.356 295.293 306.721 312.832 306.602C330.371 306.484 341.581 301.967 340.154 291.196Z" fill="#662113"/>
<path d="M339.153 286.893L286.117 288.327C284.285 288.34 282.776 292.062 284.726 293.019C299.257 297.43 310.944 301.914 310.944 301.914C312.552 302.789 313.093 302.789 314.69 301.894C314.69 301.894 330.742 295.344 341.063 292.568C342.527 292.175 340.983 286.88 339.153 286.893Z" fill="#FFCC4D"/>
<path d="M340.55 287.023C337.367 284.129 337.561 285.679 335.131 285.011C334.209 284.758 327.562 276.285 312.544 276.387L312.511 276.387C297.493 276.489 290.962 285.051 290.043 285.317C287.623 286.017 287.795 284.464 284.651 287.401C283.208 288.75 282.82 289.449 284.354 289.785C286.666 290.29 286.465 291.689 288.122 292.164C290.128 292.738 290.943 291.658 294.173 292.076C296.928 292.432 297.132 296.001 299.91 295.982C302.687 295.963 302.678 294.631 305.454 294.612C308.23 294.594 309.896 298.156 312.673 298.137C315.451 298.118 317.067 294.534 319.844 294.515C322.622 294.496 322.631 295.828 325.406 295.81C328.184 295.791 328.339 292.22 331.089 291.826C334.314 291.367 335.145 292.433 337.141 291.832C338.791 291.335 338.572 289.941 340.876 289.402C342.409 289.047 342.013 288.352 340.55 287.023Z" fill="#77B255"/>
<path d="M339.45 283.88C339.483 288.849 327.513 291.276 312.729 291.376C297.944 291.476 285.942 289.211 285.909 284.242C285.848 275.245 287.456 275.235 312.618 275.064C337.78 274.894 339.389 274.885 339.45 283.88Z" fill="#DD2E44"/>
<path d="M312.499 257.425C296.895 257.531 284.296 264.928 284.37 276.003C284.439 286.202 297.091 286.533 312.695 286.427C328.299 286.322 340.945 285.82 340.876 275.621C340.801 264.544 328.103 257.32 312.499 257.425Z" fill="#D99E82"/>
<path d="M300.518 262.786C299.685 262.261 298.586 262.511 298.063 263.344C297.539 264.177 297.788 265.278 298.62 265.8C299.453 266.326 301.557 266.708 302.083 265.875C302.607 265.042 301.351 263.31 300.518 262.786ZM316.715 260.953C315.781 261.263 314.147 262.646 314.458 263.58C314.769 264.514 316.903 264.642 317.837 264.333C318.771 264.023 319.275 263.014 318.964 262.081C318.655 261.148 317.646 260.642 316.715 260.953ZM334.96 272.545C334.203 271.917 332.323 272.937 331.694 273.694C331.066 274.453 331.172 275.575 331.929 276.202C332.686 276.83 333.809 276.724 334.437 275.967C335.066 275.208 335.718 273.172 334.96 272.545ZM328.837 264.26C328.004 263.736 326.905 263.987 326.38 264.82C325.856 265.652 326.106 266.751 326.939 267.275C327.772 267.801 329.876 268.183 330.4 267.35C330.926 266.516 329.67 264.784 328.837 264.26ZM303.939 276.085C303.106 275.561 302.007 275.812 301.481 276.645C300.957 277.476 301.208 278.576 302.041 279.099C302.874 279.624 304.978 280.008 305.502 279.174C306.027 278.341 304.772 276.609 303.939 276.085ZM308.957 268.045C308.403 268.858 307.944 270.947 308.759 271.501C309.572 272.056 311.347 270.861 311.901 270.048C312.455 269.235 312.243 268.127 311.43 267.573C310.618 267.019 309.509 267.232 308.957 268.045ZM322.255 275.961C321.423 275.437 320.324 275.688 319.798 276.521C319.274 277.352 319.525 278.454 320.357 278.975C321.19 279.5 323.294 279.884 323.818 279.05C324.344 278.217 323.088 276.485 322.255 275.961ZM290.847 269.701C290.196 270.44 289.478 272.455 290.217 273.106C290.953 273.757 292.864 272.798 293.515 272.059C294.168 271.322 294.097 270.197 293.36 269.544C292.625 268.893 291.498 268.964 290.847 269.701Z" fill="#FFE8B6"/>
<g filter="url(#filter2_d)">
<rect x="2" y="66.5503" width="257.131" height="339.78" rx="12.2443" transform="rotate(-15 2 66.5503)" fill="#FA885E"/>
<rect x="3.12471" y="67.1996" width="255.294" height="337.943" rx="11.326" transform="rotate(-15 3.12471 67.1996)" stroke="white" stroke-width="1.83665"/>
</g>
<path d="M301.363 328.405L303.102 327.939L302.23 324.687L304.891 323.974L304.486 322.46L301.825 323.173L301.327 321.316L304.686 320.416L304.277 318.89L299.18 320.256L301.363 328.405ZM305.241 318.226L307.526 326.754L309.17 326.313L306.885 317.786L305.241 318.226ZM310.831 319.948L309.199 320.386L310.679 325.909L312.311 325.472L310.831 319.948ZM308.438 318.397C308.581 318.929 309.171 319.24 309.727 319.091C310.295 318.939 310.615 318.384 310.472 317.852C310.323 317.296 309.766 317.014 309.21 317.163C308.654 317.312 308.292 317.853 308.438 318.397ZM314.753 321.876C314.538 321.072 314.975 320.385 315.672 320.198C316.37 320.011 317.089 320.376 317.308 321.192C317.523 321.996 317.092 322.657 316.382 322.847C315.72 323.024 314.975 322.704 314.753 321.876ZM312.341 319.544L314.546 327.776L316.179 327.338L315.272 323.956C315.68 324.391 316.407 324.501 317.105 324.314C318.524 323.934 319.477 322.474 319.001 320.7C318.532 318.95 316.981 318.174 315.561 318.554C314.864 318.741 314.292 319.211 314.157 319.793L313.973 319.107L312.341 319.544ZM321.088 317.2L319.455 317.637L320.935 323.161L322.568 322.723L321.088 317.2ZM318.694 315.648C318.837 316.181 319.427 316.491 319.983 316.343C320.551 316.19 320.871 315.636 320.729 315.103C320.58 314.547 320.022 314.266 319.467 314.415C318.911 314.564 318.549 315.104 318.694 315.648ZM323.001 319.628C323.467 321.367 325.209 322.143 326.782 321.721C327.775 321.455 328.548 320.791 328.866 319.895L327.276 319.307C327.149 319.734 326.786 320.034 326.36 320.148C325.662 320.335 324.846 319.983 324.633 319.191C324.421 318.399 324.962 317.721 325.66 317.534C326.086 317.42 326.55 317.498 326.873 317.805L327.953 316.489C327.218 315.874 326.232 315.695 325.238 315.961C323.665 316.383 322.532 317.878 323.001 319.628Z" fill="#FEFFF6"/>
<path d="M216.864 202.073C216.136 202.268 215.334 202.184 214.63 201.78L124.615 149.807C123.207 148.995 122.724 147.192 123.537 145.785C124.349 144.378 126.152 143.895 127.559 144.707L217.574 196.677C218.981 197.49 219.464 199.292 218.651 200.7C218.244 201.402 217.591 201.878 216.864 202.073Z" fill="#D99E82"/>
<path d="M157.206 152.001C159.521 160.641 154.394 169.521 145.754 171.836C137.115 174.151 128.234 169.024 125.919 160.384C123.604 151.745 128.731 142.864 137.371 140.549C146.011 138.234 154.891 143.361 157.206 152.001Z" fill="#FCB1E3"/>
<path d="M179.395 168.205C179.127 159.265 171.663 152.234 162.722 152.501C153.781 152.769 146.75 160.233 147.018 169.174C147.286 178.115 154.75 185.145 163.691 184.878C172.631 184.61 179.662 177.146 179.395 168.205Z" fill="#FFD983"/>
<path d="M200.487 176.987C202.802 185.627 197.673 194.511 189.033 196.826C180.393 199.141 171.512 194.011 169.197 185.371C166.882 176.732 172.009 167.851 180.649 165.536C189.289 163.221 198.173 168.35 200.487 176.987Z" fill="#A6D388"/>
<path d="M216.864 202.073C216.136 202.268 215.334 202.185 214.63 201.78L192.538 189.025C191.129 188.213 190.646 186.411 191.46 185.003C192.275 183.595 194.073 183.114 195.483 183.925L217.574 196.68C218.981 197.492 219.464 199.295 218.652 200.702C218.244 201.403 217.591 201.878 216.864 202.073Z" fill="#D99E82"/>
<path d="M167.059 263.958C167.452 265.424 168.929 266.157 170.691 265.685C172.146 265.295 173.379 264.128 172.984 262.51C172.813 261.732 172.217 260.687 170.089 260.649L169.037 260.601C168.173 260.592 167.997 260.221 167.94 260.008C167.81 259.523 168.171 259.071 168.774 258.91C169.472 258.723 169.925 258.994 170.074 259.55L171.801 259.087C171.382 257.526 169.949 256.909 168.376 257.33C166.815 257.749 165.836 259.063 166.226 260.518C166.426 261.263 167.009 262.209 168.959 262.295L170.013 262.304C170.893 262.322 171.156 262.594 171.242 262.964C171.373 263.499 170.989 263.957 170.279 264.147C169.487 264.36 168.973 264.003 168.798 263.492L167.059 263.958ZM181.431 256.748L179.68 257.217L179.58 260.768L177.729 257.74L176.322 258.117L176.233 261.665L174.37 258.64L172.62 259.109L176.098 264.096L177.47 263.729L177.57 259.937L179.599 263.158L180.971 262.791L181.431 256.748ZM187.093 259.198C186.919 259.638 186.487 259.918 186.026 260.042C185.435 260.2 184.684 260.097 184.419 259.484L188.463 258.4C188.437 258.255 188.389 258.027 188.351 257.885C187.885 256.147 186.318 255.312 184.745 255.733C183.172 256.155 182.157 257.618 182.626 259.369C183.091 261.107 184.715 261.914 186.288 261.493C187.234 261.239 188.16 260.674 188.506 259.694L187.093 259.198ZM184.167 258.449C184.106 257.704 184.694 257.293 185.143 257.173C185.616 257.046 186.28 257.16 186.556 257.809L184.167 258.449ZM193.595 257.456C193.422 257.896 192.99 258.176 192.528 258.3C191.937 258.458 191.187 258.355 190.921 257.742L194.966 256.658C194.94 256.513 194.891 256.285 194.853 256.143C194.388 254.404 192.82 253.569 191.247 253.991C189.674 254.412 188.659 255.876 189.128 257.626C189.594 259.365 191.217 260.172 192.79 259.751C193.737 259.497 194.663 258.932 195.009 257.952L193.595 257.456ZM190.669 256.706C190.609 255.962 191.196 255.551 191.646 255.431C192.119 255.304 192.783 255.417 193.058 256.066L190.669 256.706ZM197.333 252.487L196.766 250.37L195.134 250.807L195.701 252.924L194.696 253.194L195.044 254.495L196.05 254.225L197.181 258.447L198.813 258.01L197.682 253.788L198.841 253.477L198.492 252.176L197.333 252.487ZM202.575 254.771C203.017 254.767 203.182 254.862 203.246 255.098C203.322 255.382 203.059 255.63 202.695 255.74C202.234 255.864 201.805 255.636 201.708 255.32L200.171 255.732C200.5 256.962 201.875 257.316 202.987 257.018C204.146 256.708 205.227 255.822 204.913 254.652C204.815 254.285 204.418 253.466 202.98 253.446L201.979 253.448C201.626 253.453 201.443 253.338 201.384 253.164C201.305 252.918 201.486 252.693 201.852 252.594C202.124 252.521 202.486 252.5 202.609 252.911L204.158 252.496C203.794 251.136 202.484 250.98 201.396 251.271C200.237 251.582 199.447 252.605 199.665 253.421C199.802 253.93 200.018 254.784 201.803 254.775L202.575 254.771Z" fill="#FEFFF6"/>
<g filter="url(#filter3_d)">
<rect x="261.002" y="57" width="257.131" height="339.78" rx="12.2443" transform="rotate(10 261.002 57)" fill="#5ABE93"/>
<rect x="261.747" y="58.0638" width="255.294" height="337.943" rx="11.326" transform="rotate(10 261.747 58.0638)" stroke="white" stroke-width="1.83665"/>
</g>
<path d="M421.653 420.837L423.425 421.15L424.01 417.834L426.723 418.312L426.995 416.769L424.282 416.291L424.616 414.397L428.04 415.001L428.315 413.446L423.118 412.529L421.653 420.837ZM429.469 413.251L427.936 421.945L429.612 422.241L431.145 413.547L429.469 413.251ZM433.808 417.174L432.144 416.881L431.151 422.512L432.815 422.806L433.808 417.174ZM432.295 414.757C432.199 415.299 432.603 415.831 433.169 415.93C433.748 416.033 434.273 415.665 434.369 415.122C434.469 414.556 434.083 414.065 433.516 413.965C432.949 413.865 432.392 414.202 432.295 414.757ZM436.547 420.579C436.692 419.759 437.378 419.321 438.09 419.446C438.801 419.572 439.299 420.207 439.152 421.039C439.007 421.859 438.337 422.275 437.614 422.147C436.938 422.028 436.398 421.423 436.547 420.579ZM435.347 417.446L433.867 425.838L435.531 426.132L436.139 422.683C436.325 423.251 436.937 423.657 437.649 423.782C439.096 424.037 440.576 423.117 440.895 421.309C441.209 419.524 440.131 418.165 438.684 417.91C437.973 417.785 437.256 417.969 436.887 418.439L437.011 417.739L435.347 417.446ZM444.265 419.018L442.601 418.725L441.608 424.356L443.272 424.65L444.265 419.018ZM442.751 416.601C442.656 417.143 443.059 417.674 443.626 417.774C444.205 417.876 444.73 417.509 444.825 416.966C444.925 416.399 444.539 415.909 443.973 415.809C443.406 415.709 442.849 416.046 442.751 416.601ZM444.973 422.028C444.66 423.8 445.911 425.239 447.515 425.522C448.527 425.701 449.508 425.426 450.175 424.748L448.982 423.543C448.687 423.876 448.231 423.995 447.797 423.918C447.086 423.793 446.494 423.129 446.637 422.321C446.779 421.513 447.556 421.128 448.267 421.253C448.701 421.33 449.089 421.597 449.253 422.011L450.787 421.275C450.381 420.408 449.563 419.828 448.55 419.65C446.946 419.367 445.287 420.243 444.973 422.028Z" fill="#FEFFF6"/>
<path d="M339.286 290.722C339.535 289.312 338.73 288.237 337.234 287.973L333.906 287.387L332.441 295.695L336.01 296.324C337.662 296.615 338.87 295.622 339.112 294.248C339.233 293.56 338.924 292.561 337.878 292.078C338.804 291.906 339.19 291.265 339.286 290.722ZM335.1 290.979L335.404 289.255L336.779 289.497C337.298 289.589 337.501 289.985 337.41 290.503C337.323 290.998 336.957 291.306 336.487 291.224L335.1 290.979ZM336.507 292.732C337.134 292.842 337.344 293.414 337.261 293.884C337.174 294.378 336.779 294.856 336.188 294.752L334.488 294.452L334.843 292.438L336.507 292.732ZM344.011 295C343.86 295.856 343.315 296.058 342.796 295.967C342.411 295.899 341.834 295.573 341.993 294.669L342.523 291.666L340.847 291.371L340.253 294.735C339.971 296.339 340.797 297.292 342.063 297.516C342.606 297.611 343.278 297.394 343.68 296.881L343.544 297.652L345.22 297.948L346.213 292.317L344.536 292.021L344.011 295ZM348.79 296.551C349.054 295.056 349.62 294.385 350.584 294.555C350.862 294.604 351.135 294.677 351.411 294.875L351.978 293.42C351.724 293.239 351.447 293.115 351.049 293.045C350.471 292.943 349.671 293.25 349.196 294.248L349.436 292.885L347.76 292.59L346.767 298.221L348.444 298.516L348.79 296.551ZM356.396 296.997C356.249 297.829 355.478 298.252 354.791 298.131C354.067 298.004 353.536 297.35 353.683 296.518C353.823 295.723 354.543 295.303 355.267 295.43C355.966 295.553 356.542 296.165 356.396 296.997ZM351.416 300.135C351.714 301.269 352.639 302.153 353.881 302.372C355.871 302.723 357.271 301.764 357.698 299.34L358.553 294.493L356.925 294.206L356.802 294.905C356.602 294.348 355.958 293.911 355.258 293.787C353.811 293.532 352.247 294.438 351.928 296.246C351.613 298.031 352.776 299.405 354.223 299.66C354.934 299.785 355.687 299.607 356.056 299.138C355.92 300.258 355.437 301.092 354.147 300.865C353.58 300.765 352.983 300.274 352.884 299.71L351.416 300.135ZM363.391 299.237C363.048 299.562 362.538 299.634 362.067 299.551C361.464 299.445 360.828 299.034 360.847 298.366L364.97 299.093C365.008 298.951 365.061 298.724 365.086 298.579C365.399 296.806 364.331 295.387 362.727 295.104C361.123 294.822 359.585 295.719 359.27 297.504C358.958 299.276 360.088 300.694 361.692 300.977C362.656 301.147 363.734 301.026 364.462 300.284L363.391 299.237ZM361.056 297.321C361.316 296.621 362.022 296.497 362.48 296.578C362.962 296.663 363.516 297.046 363.491 297.751L361.056 297.321ZM367.761 299.896C368.024 298.401 368.59 297.73 369.555 297.9C369.832 297.949 370.105 298.022 370.381 298.22L370.949 296.765C370.695 296.584 370.418 296.46 370.02 296.39C369.441 296.288 368.641 296.595 368.167 297.593L368.407 296.23L366.731 295.935L365.738 301.566L367.414 301.861L367.761 299.896ZM373.359 300.721C373.762 300.904 373.871 301.06 373.828 301.302C373.777 301.591 373.434 301.704 373.058 301.651C372.588 301.568 372.295 301.18 372.341 300.853L370.773 300.576C370.552 301.83 371.649 302.732 372.782 302.932C373.964 303.141 375.318 302.795 375.528 301.601C375.594 301.228 375.581 300.317 374.286 299.691L373.378 299.27C373.056 299.126 372.938 298.944 372.958 298.761C372.991 298.506 373.25 298.377 373.624 298.443C373.901 298.492 374.238 298.626 374.176 299.05L375.755 299.329C376 297.942 374.879 297.247 373.77 297.051C372.588 296.843 371.439 297.436 371.292 298.268C371.201 298.787 371.036 299.653 372.657 300.399L373.359 300.721Z" fill="#FEFFF6"/>
<path d="M366.9 219.89C347.981 216.554 332.725 213.395 330.357 226.825C327.99 240.249 342.787 246.008 361.707 249.344C380.626 252.68 396.501 252.329 398.868 238.905C401.235 225.477 385.82 223.226 366.9 219.89Z" fill="#D99E82"/>
<path d="M399.972 226.772C399.972 226.772 383.729 221.86 367.086 218.838C350.412 215.985 333.468 215.046 333.468 215.046C329.522 227.827 342.201 235.614 363.466 239.364C384.732 243.114 399.309 240.132 399.972 226.772Z" fill="#662113"/>
<path d="M399.715 221.339L335.172 211.303C332.951 210.912 330.298 215.084 332.446 216.677C349.063 225.244 362.22 233.268 362.22 233.268C363.973 234.684 364.629 234.804 366.762 234.075C366.762 234.075 387.654 229.706 400.768 228.636C402.628 228.485 401.933 221.73 399.715 221.339Z" fill="#FFCC4D"/>
<path d="M401.379 221.808C398.166 217.596 398.056 219.517 395.263 218.169C394.202 217.657 388.034 205.921 369.825 202.711L369.785 202.704C351.576 199.493 341.766 208.411 340.594 208.529C337.508 208.841 338.062 206.998 333.603 209.857C331.556 211.17 330.931 211.93 332.714 212.677C335.401 213.802 334.848 215.451 336.749 216.394C339.05 217.535 340.277 216.409 344.096 217.632C347.353 218.674 346.808 223.041 350.175 223.635C353.543 224.229 353.828 222.614 357.193 223.207C360.559 223.801 361.786 228.484 365.153 229.078C368.521 229.672 371.273 225.69 374.641 226.284C378.009 226.878 377.724 228.493 381.089 229.086C384.457 229.68 385.438 225.39 388.856 225.524C392.862 225.683 393.632 227.159 396.182 226.874C398.291 226.638 398.335 224.901 401.245 224.761C403.18 224.671 402.855 223.742 401.379 221.808Z" fill="#77B255"/>
<path d="M400.744 217.757C399.682 223.782 384.648 224.064 366.722 220.903C348.796 217.742 334.765 212.335 335.828 206.311C337.751 195.402 339.701 195.746 370.209 201.126C400.718 206.505 402.667 206.851 400.744 217.757Z" fill="#DD2E44"/>
<path d="M373.98 179.739C355.06 176.403 338.161 182.564 335.794 195.992C333.613 208.358 348.86 211.567 367.78 214.903C386.699 218.239 402.124 220.438 404.304 208.072C406.672 194.642 392.899 183.075 373.98 179.739Z" fill="#D99E82"/>
<path d="M358.283 183.572C357.391 182.751 356.005 182.81 355.185 183.703C354.366 184.595 354.423 185.983 355.316 186.8C356.207 187.622 358.671 188.551 359.492 187.659C360.311 186.767 359.175 184.392 358.283 183.572ZM378.304 184.948C377.104 185.115 374.818 186.427 374.988 187.627C375.157 188.827 377.713 189.457 378.912 189.289C380.111 189.122 380.946 188.012 380.777 186.812C380.609 185.615 379.499 184.778 378.304 184.948ZM397.824 203.035C397.047 202.106 394.544 202.925 393.614 203.702C392.685 204.481 392.564 205.863 393.342 206.791C394.119 207.719 395.503 207.84 396.431 207.063C397.361 206.284 398.603 203.963 397.824 203.035ZM392.249 191.643C391.357 190.824 389.97 190.883 389.149 191.775C388.329 192.667 388.389 194.054 389.281 194.873C390.173 195.694 392.636 196.624 393.455 195.732C394.277 194.838 393.141 192.462 392.249 191.643ZM359.473 200.436C358.581 199.616 357.194 199.676 356.373 200.568C355.554 201.458 355.613 202.846 356.505 203.664C357.397 204.485 359.86 205.417 360.68 204.523C361.501 203.631 360.365 201.255 359.473 200.436ZM367.334 191.813C366.483 192.675 365.463 195.103 366.327 195.955C367.188 196.806 369.604 195.754 370.455 194.893C371.306 194.031 371.295 192.643 370.433 191.791C369.574 190.94 368.183 190.951 367.334 191.813ZM381.681 204.352C380.789 203.532 379.402 203.592 378.581 204.484C377.762 205.374 377.821 206.764 378.714 207.58C379.606 208.401 382.068 209.333 382.888 208.438C383.709 207.547 382.573 205.171 381.681 204.352ZM345.036 189.799C344.084 190.549 342.768 192.829 343.518 193.782C344.264 194.733 346.792 193.997 347.744 193.247C348.698 192.499 348.862 191.121 348.115 190.166C347.369 189.215 345.988 189.05 345.036 189.799Z" fill="#FFE8B6"/>
</g>
<defs>
<filter id="filter0_d" x="0.749023" y="2.74878" width="515.539" height="549.947" filterUnits="userSpaceOnUse" color-interpolation-filters="sRGB">
<feFlood flood-opacity="0" result="BackgroundImageFix"/>
<feColorMatrix in="SourceAlpha" type="matrix" values="0 0 0 0 0 0 0 0 0 0 0 0 0 0 0 0 0 0 127 0"/>
<feOffset dy="4"/>
<feGaussianBlur stdDeviation="2"/>
<feColorMatrix type="matrix" values="0 0 0 0 0 0 0 0 0 0 0 0 0 0 0 0 0 0 0.25 0"/>
<feBlend mode="normal" in2="BackgroundImageFix" result="effect1_dropShadow"/>
<feBlend mode="normal" in="SourceGraphic" in2="effect1_dropShadow" result="shape"/>
</filter>
<filter id="filter1_d" x="117.542" y="158.001" width="262.969" height="345.915" filterUnits="userSpaceOnUse" color-interpolation-filters="sRGB">
<feFlood flood-opacity="0" result="BackgroundImageFix"/>
<feColorMatrix in="SourceAlpha" type="matrix" values="0 0 0 0 0 0 0 0 0 0 0 0 0 0 0 0 0 0 127 0"/>
<feOffset dy="2.45765"/>
<feGaussianBlur stdDeviation="1.22883"/>
<feColorMatrix type="matrix" values="0 0 0 0 0 0 0 0 0 0 0 0 0 0 0 0 0 0 0.4 0"/>
<feBlend mode="normal" in2="BackgroundImageFix" result="effect1_dropShadow"/>
<feBlend mode="normal" in="SourceGraphic" in2="effect1_dropShadow" result="shape"/>
</filter>
<filter id="filter2_d" x="2.30016" y="2.74878" width="335.711" height="394.152" filterUnits="userSpaceOnUse" color-interpolation-filters="sRGB">
<feFlood flood-opacity="0" result="BackgroundImageFix"/>
<feColorMatrix in="SourceAlpha" type="matrix" values="0 0 0 0 0 0 0 0 0 0 0 0 0 0 0 0 0 0 127 0"/>
<feOffset dy="2.44886"/>
<feGaussianBlur stdDeviation="1.22443"/>
<feColorMatrix type="matrix" values="0 0 0 0 0 0 0 0 0 0 0 0 0 0 0 0 0 0 0.4 0"/>
<feBlend mode="normal" in2="BackgroundImageFix" result="effect1_dropShadow"/>
<feBlend mode="normal" in="SourceGraphic" in2="effect1_dropShadow" result="shape"/>
</filter>
<filter id="filter3_d" x="201.489" y="58.9381" width="313.248" height="380.289" filterUnits="userSpaceOnUse" color-interpolation-filters="sRGB">
<feFlood flood-opacity="0" result="BackgroundImageFix"/>
<feColorMatrix in="SourceAlpha" type="matrix" values="0 0 0 0 0 0 0 0 0 0 0 0 0 0 0 0 0 0 127 0"/>
<feOffset dy="2.44886"/>
<feGaussianBlur stdDeviation="1.22443"/>
<feColorMatrix type="matrix" values="0 0 0 0 0 0 0 0 0 0 0 0 0 0 0 0 0 0 0.4 0"/>
<feBlend mode="normal" in2="BackgroundImageFix" result="effect1_dropShadow"/>
<feBlend mode="normal" in="SourceGraphic" in2="effect1_dropShadow" result="shape"/>
</filter>
</defs>
</svg>
