<svg width="346" height="507" viewBox="0 0 346 507" fill="none" xmlns="http://www.w3.org/2000/svg">
<rect x="29.7646" y="130.311" width="285.93" height="376.689" rx="9.63809" fill="#5ABE93" fill-opacity="0.3"/>
<rect x="20.9297" y="90.9555" width="302.797" height="399.178" rx="9.63809" fill="#5ABE93" fill-opacity="0.5"/>
<rect x="11.292" y="43.5682" width="322.073" height="424.879" rx="9.63809" fill="#5ABE93" fill-opacity="0.7"/>
<g filter="url(#filter0_d)">
<rect x="3.79346" y="0.000488281" width="338.27" height="447" rx="16.1081" fill="#FA885E"/>
<rect x="5.00156" y="1.2086" width="335.854" height="444.583" rx="14.9" stroke="white" stroke-width="2.41621"/>
</g>
<path d="M174.2 1.20837H326.019C334.248 1.20837 340.919 7.87932 340.919 16.1084V430.892C340.919 439.121 334.248 445.792 326.019 445.792H174.2V1.20837Z" fill="#5ABE93" stroke="white" stroke-width="2.41621"/>
<path d="M295.044 434.838H297.412V430.408H301.036V428.346H297.412V425.817H301.987V423.739H295.044V434.838ZM303.438 423.224V434.838H305.677V423.224H303.438ZM309.955 427.315H307.732V434.838H309.955V427.315ZM307.442 424.529C307.442 425.253 308.087 425.849 308.844 425.849C309.617 425.849 310.213 425.253 310.213 424.529C310.213 423.771 309.601 423.224 308.844 423.224C308.087 423.224 307.442 423.788 307.442 424.529ZM314.282 431.101C314.282 430.005 315.071 429.28 316.022 429.28C316.972 429.28 317.761 429.989 317.761 431.101C317.761 432.196 316.988 432.889 316.022 432.889C315.12 432.889 314.282 432.228 314.282 431.101ZM312.011 427.315V438.526H314.234V433.92C314.604 434.612 315.49 434.999 316.441 434.999C318.374 434.999 320.081 433.469 320.081 431.052C320.081 428.668 318.374 427.154 316.441 427.154C315.49 427.154 314.604 427.557 314.234 428.249V427.315H312.011ZM323.924 427.315H321.701V434.838H323.924V427.315ZM321.411 424.529C321.411 425.253 322.055 425.849 322.812 425.849C323.586 425.849 324.182 425.253 324.182 424.529C324.182 423.771 323.569 423.224 322.812 423.224C322.055 423.224 321.411 423.788 321.411 424.529ZM325.529 431.052C325.529 433.42 327.478 434.999 329.62 434.999C330.973 434.999 332.181 434.419 332.89 433.388L331.07 432.099C330.764 432.599 330.2 432.856 329.62 432.856C328.67 432.856 327.751 432.132 327.751 431.052C327.751 429.973 328.67 429.297 329.62 429.297C330.2 429.297 330.764 429.554 331.07 430.054L332.89 428.749C332.165 427.718 330.973 427.154 329.62 427.154C327.478 427.154 325.529 428.668 325.529 431.052Z" fill="#FEFFF6"/>
<path d="M235.122 278.638C235.122 276.753 233.833 275.545 231.836 275.545H227.39V286.643H232.158C234.365 286.643 235.702 285.081 235.702 283.245C235.702 282.326 235.074 281.102 233.608 280.716C234.768 280.281 235.122 279.363 235.122 278.638ZM229.758 279.926V277.623H231.594C232.287 277.623 232.641 278.09 232.641 278.783C232.641 279.443 232.239 279.926 231.611 279.926H229.758ZM231.981 281.875C232.819 281.875 233.221 282.568 233.221 283.196C233.221 283.857 232.819 284.565 232.029 284.565H229.758V281.875H231.981ZM242.221 283.1C242.221 284.243 241.561 284.63 240.868 284.63C240.353 284.63 239.531 284.34 239.531 283.132V279.121H237.292V283.615C237.292 285.757 238.581 286.805 240.272 286.805C240.997 286.805 241.819 286.37 242.221 285.613V286.643H244.46V279.121H242.221V283.1ZM248.767 284.018C248.767 282.02 249.347 281.022 250.635 281.022C251.006 281.022 251.376 281.054 251.779 281.247L252.182 279.234C251.811 279.057 251.425 278.96 250.893 278.96C250.12 278.96 249.153 279.54 248.767 280.941V279.121H246.528V286.643H248.767V284.018ZM258.722 282.858C258.722 283.969 257.82 284.694 256.902 284.694C255.936 284.694 255.098 283.969 255.098 282.858C255.098 281.795 255.936 281.086 256.902 281.086C257.836 281.086 258.722 281.747 258.722 282.858ZM252.988 288.061C253.632 289.462 255.034 290.397 256.693 290.397C259.351 290.397 260.945 288.834 260.945 285.596V279.121H258.771V280.055C258.384 279.379 257.45 278.96 256.516 278.96C254.583 278.96 252.762 280.49 252.762 282.906C252.762 285.29 254.583 286.805 256.516 286.805C257.466 286.805 258.4 286.402 258.771 285.709C258.851 287.191 258.416 288.383 256.693 288.383C255.936 288.383 255.05 287.884 254.792 287.175L252.988 288.061ZM268.297 284.163C267.926 284.662 267.282 284.872 266.654 284.872C265.849 284.872 264.93 284.485 264.801 283.615H270.31C270.327 283.422 270.343 283.116 270.343 282.922C270.343 280.555 268.635 278.96 266.493 278.96C264.35 278.96 262.562 280.474 262.562 282.858C262.562 285.226 264.35 286.805 266.493 286.805C267.781 286.805 269.151 286.402 269.924 285.274L268.297 284.163ZM264.834 282.214C265.011 281.247 265.897 280.925 266.509 280.925C267.153 280.925 267.959 281.296 268.088 282.214H264.834ZM274.109 284.018C274.109 282.02 274.689 281.022 275.977 281.022C276.348 281.022 276.718 281.054 277.121 281.247L277.524 279.234C277.153 279.057 276.767 278.96 276.235 278.96C275.462 278.96 274.495 279.54 274.109 280.941V279.121H271.87V286.643H274.109V284.018ZM281.55 283.808C282.114 283.953 282.291 284.131 282.291 284.453C282.291 284.839 281.872 285.065 281.373 285.081C280.744 285.081 280.277 284.646 280.261 284.211H278.167C278.167 285.886 279.794 286.805 281.308 286.805C282.887 286.805 284.562 286.047 284.562 284.453C284.562 283.953 284.337 282.777 282.516 282.262L281.244 281.924C280.793 281.811 280.6 281.602 280.583 281.36C280.567 281.022 280.873 280.796 281.373 280.796C281.743 280.796 282.21 280.893 282.226 281.457H284.337C284.337 279.604 282.726 278.96 281.244 278.96C279.665 278.96 278.312 279.991 278.312 281.102C278.312 281.795 278.296 282.955 280.567 283.551L281.55 283.808Z" fill="#FEFFF6"/>
<path d="M64.1023 283.39C64.1023 285.387 65.7292 286.821 68.1293 286.821C70.1106 286.821 72.0758 285.757 72.1241 283.567C72.1725 282.52 71.7698 280.989 69.0797 280.216L67.7588 279.797C66.6635 279.491 66.5668 278.96 66.5668 278.67C66.5668 278.009 67.179 277.558 68.0005 277.558C68.9508 277.558 69.4341 278.058 69.4341 278.815H71.7859C71.7859 276.689 70.1751 275.416 68.0327 275.416C65.9064 275.416 64.2151 276.753 64.2151 278.734C64.2151 279.749 64.6339 281.151 67.0823 281.924L68.4193 282.294C69.5307 282.616 69.7724 283.051 69.7563 283.551C69.7401 284.276 69.0958 284.727 68.1293 284.727C67.0501 284.727 66.5185 284.098 66.4702 283.39H64.1023ZM84.8197 279.121H82.4357L81.0987 283.599L79.7779 279.121H77.861L76.5401 283.599L75.2032 279.121H72.8192L75.5414 286.643H77.41L78.8275 281.859L80.3094 286.643H82.178L84.8197 279.121ZM91.1801 284.163C90.8097 284.662 90.1653 284.872 89.5371 284.872C88.7317 284.872 87.8135 284.485 87.6847 283.615H93.1937C93.2098 283.422 93.2259 283.116 93.2259 282.922C93.2259 280.555 91.5184 278.96 89.376 278.96C87.2337 278.96 85.4457 280.474 85.4457 282.858C85.4457 285.226 87.2337 286.805 89.376 286.805C90.6647 286.805 92.0339 286.402 92.8071 285.274L91.1801 284.163ZM87.7169 282.214C87.8941 281.247 88.78 280.925 89.3921 280.925C90.0365 280.925 90.8419 281.296 90.9707 282.214H87.7169ZM100.036 284.163C99.666 284.662 99.0216 284.872 98.3934 284.872C97.588 284.872 96.6699 284.485 96.541 283.615H102.05C102.066 283.422 102.082 283.116 102.082 282.922C102.082 280.555 100.375 278.96 98.2323 278.96C96.09 278.96 94.302 280.474 94.302 282.858C94.302 285.226 96.09 286.805 98.2323 286.805C99.521 286.805 100.89 286.402 101.663 285.274L100.036 284.163ZM96.5732 282.214C96.7504 281.247 97.6363 280.925 98.2484 280.925C98.8928 280.925 99.6982 281.296 99.827 282.214H96.5732ZM106.478 279.121V276.238H104.255V279.121H102.886V280.893H104.255V286.643H106.478V280.893H108.057V279.121H106.478ZM112.361 283.808C112.925 283.953 113.102 284.131 113.102 284.453C113.102 284.839 112.683 285.065 112.184 285.081C111.556 285.081 111.089 284.646 111.073 284.211H108.979C108.979 285.886 110.605 286.805 112.12 286.805C113.698 286.805 115.373 286.047 115.373 284.453C115.373 283.953 115.148 282.777 113.328 282.262L112.055 281.924C111.604 281.811 111.411 281.602 111.395 281.36C111.379 281.022 111.685 280.796 112.184 280.796C112.555 280.796 113.022 280.893 113.038 281.457H115.148C115.148 279.604 113.537 278.96 112.055 278.96C110.477 278.96 109.124 279.991 109.124 281.102C109.124 281.795 109.107 282.955 111.379 283.551L112.361 283.808Z" fill="#FEFFF6"/>
<path d="M122.479 209.602C121.803 209.589 121.132 209.319 120.625 208.795L55.8819 141.629C54.8698 140.579 54.9005 138.905 55.9505 137.893C57.0004 136.881 58.675 136.911 59.6871 137.961L124.43 205.124C125.442 206.174 125.412 207.849 124.362 208.861C123.836 209.366 123.155 209.614 122.479 209.602Z" fill="#D99E82"/>
<path d="M83.4484 151.609C83.3012 159.636 76.6749 166.023 68.6485 165.876C60.622 165.729 54.2345 159.102 54.3818 151.076C54.5291 143.049 61.1553 136.662 69.1818 136.809C77.2082 136.956 83.5957 143.583 83.4484 151.609Z" fill="#FCB1E3"/>
<path d="M98.5663 171.092C100.554 163.314 95.8606 155.397 88.0827 153.41C80.3049 151.422 72.3881 156.115 70.4002 163.893C68.4123 171.671 73.106 179.588 80.8838 181.576C88.6617 183.564 96.5784 178.87 98.5663 171.092Z" fill="#FFD983"/>
<path d="M114.579 183.901C114.431 191.927 107.803 198.317 99.7763 198.17C91.7499 198.022 85.3625 191.394 85.5097 183.367C85.657 175.341 92.2832 168.953 100.31 169.101C108.336 169.248 114.726 175.876 114.579 183.901Z" fill="#A6D388"/>
<path d="M122.479 209.602C121.803 209.589 121.132 209.319 120.625 208.795L104.735 192.311C103.721 191.261 103.752 189.587 104.804 188.575C105.856 187.563 107.526 187.593 108.54 188.643L124.43 205.127C125.442 206.177 125.411 207.851 124.361 208.863C123.835 209.366 123.155 209.614 122.479 209.602Z" fill="#D99E82"/>
<path d="M256.425 173.74C235.97 173.879 219.387 173.5 219.485 188.02C219.583 202.533 236.186 205.723 256.641 205.585C277.095 205.446 293.653 202.032 293.555 187.518C293.457 173.001 276.88 173.602 256.425 173.74Z" fill="#D99E82"/>
<path d="M292.383 174.599C292.383 174.599 274.428 172.573 256.417 172.603C238.408 172.817 220.482 175.086 220.482 175.086C218.803 189.229 233.576 194.951 256.567 194.795C279.558 194.64 294.253 188.719 292.383 174.599Z" fill="#662113"/>
<path d="M291.07 168.959L221.547 170.84C219.146 170.856 217.169 175.735 219.725 176.99C238.772 182.772 254.092 188.65 254.092 188.65C256.2 189.797 256.909 189.796 259.003 188.623C259.003 188.623 280.045 180.038 293.574 176.399C295.493 175.884 293.469 168.943 291.07 168.959Z" fill="#FFCC4D"/>
<path d="M292.902 169.13C288.729 165.336 288.983 167.369 285.799 166.493C284.589 166.161 275.877 155.054 256.19 155.188L256.147 155.188C236.46 155.321 227.899 166.544 226.694 166.893C223.522 167.812 223.748 165.776 219.627 169.626C217.735 171.394 217.226 172.309 219.237 172.75C222.267 173.413 222.005 175.246 224.177 175.868C226.805 176.621 227.874 175.206 232.108 175.754C235.72 176.22 235.987 180.899 239.628 180.874C243.269 180.849 243.257 179.103 246.896 179.079C250.534 179.054 252.718 183.724 256.359 183.699C260 183.674 262.118 178.976 265.759 178.951C269.4 178.926 269.412 180.673 273.05 180.648C276.691 180.623 276.895 175.942 280.5 175.426C284.726 174.824 285.816 176.222 288.433 175.434C290.596 174.782 290.308 172.954 293.329 172.249C295.339 171.783 294.819 170.872 292.902 169.13Z" fill="#77B255"/>
<path d="M291.459 165.01C291.503 171.523 275.813 174.705 256.432 174.836C237.051 174.967 221.319 171.998 221.275 165.485C221.195 153.691 223.303 153.677 256.287 153.454C289.271 153.231 291.379 153.219 291.459 165.01Z" fill="#DD2E44"/>
<path d="M256.131 130.332C235.676 130.47 219.161 140.167 219.259 154.684C219.35 168.054 235.934 168.487 256.388 168.349C276.843 168.211 293.42 167.553 293.329 154.183C293.231 139.664 276.586 130.193 256.131 130.332Z" fill="#D99E82"/>
<path d="M240.427 137.36C239.335 136.671 237.895 136.999 237.208 138.091C236.521 139.183 236.848 140.626 237.939 141.31C239.031 141.999 241.789 142.5 242.478 141.408C243.165 140.317 241.519 138.047 240.427 137.36ZM261.659 134.957C260.435 135.363 258.293 137.176 258.7 138.4C259.108 139.624 261.906 139.793 263.13 139.387C264.354 138.981 265.015 137.658 264.607 136.434C264.201 135.213 262.879 134.549 261.659 134.957ZM285.575 150.152C284.582 149.329 282.118 150.666 281.293 151.658C280.47 152.653 280.609 154.123 281.601 154.946C282.594 155.769 284.066 155.63 284.889 154.638C285.714 153.643 286.569 150.974 285.575 150.152ZM277.549 139.292C276.457 138.605 275.017 138.933 274.328 140.025C273.641 141.117 273.969 142.557 275.061 143.244C276.153 143.933 278.911 144.434 279.598 143.342C280.287 142.248 278.641 139.978 277.549 139.292ZM244.911 154.792C243.819 154.106 242.378 154.434 241.689 155.526C241.003 156.615 241.331 158.058 242.423 158.743C243.515 159.432 246.273 159.935 246.96 158.841C247.648 157.749 246.003 155.479 244.911 154.792ZM251.488 144.253C250.762 145.319 250.161 148.058 251.229 148.784C252.295 149.51 254.622 147.945 255.348 146.879C256.074 145.813 255.796 144.361 254.73 143.635C253.667 142.909 252.213 143.187 251.488 144.253ZM268.921 154.63C267.829 153.943 266.389 154.272 265.7 155.363C265.013 156.453 265.342 157.898 266.433 158.58C267.525 159.269 270.283 159.772 270.97 158.678C271.659 157.587 270.013 155.317 268.921 154.63ZM227.749 146.424C226.896 147.392 225.955 150.033 226.924 150.887C227.888 151.74 230.394 150.483 231.247 149.515C232.103 148.549 232.01 147.074 231.044 146.218C230.08 145.365 228.603 145.458 227.749 146.424Z" fill="#FFE8B6"/>
<defs>
<filter id="filter0_d" x="0.571839" y="0.000488281" width="344.713" height="453.443" filterUnits="userSpaceOnUse" color-interpolation-filters="sRGB">
<feFlood flood-opacity="0" result="BackgroundImageFix"/>
<feColorMatrix in="SourceAlpha" type="matrix" values="0 0 0 0 0 0 0 0 0 0 0 0 0 0 0 0 0 0 127 0"/>
<feOffset dy="3.22162"/>
<feGaussianBlur stdDeviation="1.61081"/>
<feColorMatrix type="matrix" values="0 0 0 0 0 0 0 0 0 0 0 0 0 0 0 0 0 0 0.4 0"/>
<feBlend mode="normal" in2="BackgroundImageFix" result="effect1_dropShadow"/>
<feBlend mode="normal" in="SourceGraphic" in2="effect1_dropShadow" result="shape"/>
</filter>
</defs>
</svg>
